<svg width="40" height="40" viewBox="0 0 40 40" fill="none" xmlns="http://www.w3.org/2000/svg">
<rect width="40" height="40" fill="white"/>
<path d="M25.9402 6.94206C25.9402 6.41869 26.3589 6 26.8823 6H33.058C33.5813 6 34 6.41869 34 6.94206V14.0598H25.9402V6.94206Z" fill="#339900"/>
<path d="M25.9402 15.9697H34V23.0875C34 23.6109 33.5813 24.0295 33.058 24.0295H25.9402V15.9697Z" fill="#339900"/>
<path d="M15.9701 16.9118C15.9701 16.3884 16.3888 15.9697 16.9121 15.9697H24.0299V24.0295H15.9701V16.9118Z" fill="#339900"/>
<path d="M15.9701 25.9404H24.0299V33.0582C24.0299 33.5816 23.6112 34.0002 23.0879 34.0002H15.9701V25.9404Z" fill="#FEBE00"/>
<path d="M6 26.8825C6 26.3591 6.41869 25.9404 6.94206 25.9404H14.0598V34.0002H6.94206C6.41869 34.0002 6 33.5816 6 33.0582V26.9087V26.8825Z" fill="#FF8900"/>
</svg>
