<svg width="40" height="40" viewBox="0 0 40 40" fill="none" xmlns="http://www.w3.org/2000/svg">
<rect width="40" height="40" fill="white"/>
<g clip-path="url(#clip0_25795_134969)">
<path d="M32.8102 14.5822C32.2447 15.0975 31.9021 15.7862 31.4529 16.3914C30.8085 17.2582 30.1987 18.1502 29.5738 19.0314C29.5569 19.0548 29.5445 19.0827 29.5241 19.1025C29.4149 19.2095 27.8242 19.2301 27.7097 19.1285C27.6032 19.0341 27.636 18.9082 27.636 18.7922C27.6343 16.3383 27.6396 13.8844 27.6289 11.4297C27.6271 11.114 27.7585 11.0088 28.0355 11.0088C28.4047 11.0088 28.7749 11.0223 29.1433 11.0052C29.5374 10.9873 29.6989 11.15 29.6945 11.5555C29.6812 12.8126 29.6874 14.0697 29.6927 15.3268C29.6927 15.4697 29.6439 15.6244 29.7815 15.806C30.1685 15.2485 30.5431 14.709 30.9168 14.1686C31.587 13.202 32.2634 12.2389 32.9202 11.2633C33.0321 11.097 33.1475 11.0142 33.3321 11.0124C33.7306 11.0097 34.1301 11.0034 34.5286 11.0124C34.8464 11.0187 34.9893 11.1797 34.9885 11.5187C34.9805 13.9132 34.9814 16.3069 34.9867 18.7014C34.9867 19.0692 34.8313 19.2113 34.4745 19.1924C34.1212 19.1735 33.7608 19.1519 33.412 19.1978C32.9628 19.2571 32.9051 19.0323 32.9078 18.6645C32.9176 17.3032 32.9096 15.9409 32.9078 14.5795C32.9584 14.5346 32.9593 14.4698 32.9007 14.4563C32.8119 14.4357 32.7968 14.5076 32.8093 14.5822H32.8102ZM29.8214 15.8582C29.785 15.8078 29.7708 15.7889 29.7566 15.7701C29.7335 15.7952 29.7034 15.8177 29.6909 15.8474C29.6856 15.8618 29.7211 15.9103 29.7264 15.9085C29.7611 15.8968 29.7912 15.8753 29.8205 15.8582H29.8214Z" fill="#1B1818"/>
<path d="M5.01118 24.8489C5.01118 23.6511 5.02183 22.4543 5.00497 21.2575C4.99964 20.8996 5.11947 20.7962 5.46832 20.7989C7.16729 20.8151 8.86714 20.8169 10.5661 20.7989C10.986 20.7944 11.104 20.9644 11.0996 21.3582C11.0845 22.689 11.2176 22.5649 9.9128 22.564C9.09971 22.564 8.28751 22.5739 7.47442 22.5586C7.18504 22.5532 7.05722 22.6117 7.05811 22.9471C7.06077 23.9515 7.04568 23.9506 8.04429 23.9524C8.71447 23.9533 9.37577 24.0072 10.0238 24.2077C10.9087 24.4811 11.4404 25.0863 11.5629 25.9899C11.6899 26.9323 11.4706 27.7955 10.6646 28.3998C10.1374 28.7945 9.54353 28.9923 8.87868 28.9869C7.74071 28.9762 6.60274 28.9726 5.46566 28.9914C5.11681 28.9977 4.99875 28.888 5.00408 28.5311C5.02094 27.3037 5.01029 26.0763 5.01029 24.8498L5.01118 24.8489ZM7.06609 26.471C7.06609 26.6796 7.0803 26.89 7.06254 27.0977C7.04124 27.3558 7.10249 27.4826 7.39541 27.4628C7.7771 27.4367 8.16146 27.4655 8.54492 27.4538C9.0784 27.4367 9.43435 27.042 9.44678 26.4728C9.46009 25.8686 9.15918 25.499 8.59996 25.4468C8.4242 25.4306 8.24667 25.4396 8.07003 25.4396C7.40074 25.4396 7.06609 25.7834 7.06609 26.471Z" fill="#BD2B3D"/>
<path d="M5.00935 15.0817C5.00935 13.8831 5.02089 12.6854 5.00225 11.4877C4.99692 11.1154 5.11232 10.9994 5.48247 11.003C7.16812 11.021 8.85289 11.0147 10.5385 11.0075C10.9114 11.0057 11.1004 11.119 11.0951 11.5434C11.0782 12.8625 11.2061 12.8059 9.88878 12.7942C9.0606 12.787 8.23242 12.8041 7.40512 12.787C7.13173 12.7816 7.05894 12.8625 7.05805 13.1395C7.05361 14.1565 7.04385 14.116 8.06909 14.1682C8.92301 14.2122 9.79735 14.1745 10.5829 14.6843C11.483 15.2679 11.7005 16.1275 11.5576 17.0842C11.4111 18.0715 10.8031 18.7109 9.83552 19.0238C9.38992 19.1677 8.95497 19.1883 8.50581 19.1883C7.51519 19.1892 6.52457 19.1704 5.53395 19.1973C5.13096 19.209 4.99071 19.1011 5.00047 18.674C5.0271 17.4763 5.00935 16.2786 5.01024 15.0799L5.00935 15.0817ZM7.06515 16.6265C7.06515 16.8648 7.07847 17.1049 7.0616 17.3423C7.04474 17.5815 7.10332 17.6975 7.37139 17.6813C7.76729 17.657 8.16673 17.6786 8.56351 17.6615C8.97006 17.6435 9.39169 17.2587 9.44584 16.8819C9.53638 16.248 9.36062 15.9441 8.8378 15.7319C8.5786 15.6266 8.32207 15.6428 8.0611 15.6419C7.06693 15.6374 7.06693 15.6401 7.06693 16.6265H7.06515Z" fill="#1B1818"/>
<path d="M12.5493 24.8866C12.5493 23.6889 12.5591 22.4902 12.5431 21.2925C12.5387 20.9337 12.6328 20.7935 13.0162 20.798C14.6424 20.8186 16.2686 20.8051 17.8948 20.8078C18.3572 20.8078 18.4851 20.9445 18.4931 21.413V21.5479C18.4936 22.1833 18.1895 22.501 17.5805 22.501C16.6787 22.501 15.7768 22.5091 14.875 22.4965C14.6255 22.4929 14.5519 22.5721 14.5439 22.8265C14.5048 24.0575 14.4968 24.0575 15.7111 24.0575C16.3911 24.0575 17.071 24.0593 17.7519 24.0566C17.9392 24.0566 18.1096 24.071 18.1682 24.294C18.272 24.6888 18.2605 25.088 18.1806 25.4809C18.1327 25.7174 17.9196 25.6734 17.751 25.6734C16.8198 25.6761 15.8878 25.6842 14.9566 25.6689C14.6628 25.6635 14.5102 25.7291 14.5483 26.0609C14.5936 26.4566 14.3797 26.9682 14.6406 27.2218C14.8794 27.4538 15.3738 27.2847 15.7546 27.2892C16.5083 27.2991 17.2628 27.3063 18.0164 27.2865C18.4114 27.2757 18.5809 27.4331 18.5845 27.8278C18.596 29.1955 18.5472 28.9842 17.4802 28.9851C15.9872 28.986 14.4933 28.9752 13.0003 28.9932C12.6416 28.9977 12.5387 28.8718 12.5431 28.5256C12.5573 27.3126 12.5484 26.0996 12.5484 24.8866H12.5493Z" fill="#BD2B3D"/>
<path d="M12.5522 15.072C12.5522 13.8752 12.5682 12.6775 12.5433 11.4816C12.5353 11.0931 12.6694 11.0014 13.0262 11.005C14.6515 11.0203 16.2759 11.0104 17.9012 11.0131C18.3645 11.0131 18.4897 11.1444 18.4968 11.6101C18.5092 12.3397 18.1666 12.7045 17.4689 12.7045C16.6265 12.7045 15.7841 12.717 14.9426 12.6973C14.6462 12.6901 14.505 12.7512 14.545 13.083C14.5902 13.4625 14.3843 13.9723 14.6346 14.1917C14.8494 14.3805 15.3367 14.2565 15.7033 14.2592C16.3833 14.2646 17.0623 14.2708 17.7423 14.2565C18.084 14.2493 18.2305 14.4183 18.2278 14.733C18.2198 15.8507 18.4036 15.9056 17.1697 15.8813C16.4312 15.8669 15.6918 15.8984 14.9542 15.8696C14.608 15.8561 14.5148 15.9766 14.5441 16.3021C14.5698 16.5845 14.568 16.8722 14.5441 17.1536C14.521 17.4342 14.6204 17.5061 14.8903 17.5016C15.9244 17.4864 16.9585 17.5133 17.9926 17.4864C18.4329 17.4747 18.5483 17.7147 18.5829 18.0717C18.598 18.2345 18.5873 18.4008 18.5856 18.5654C18.5802 19.1031 18.4986 19.1876 17.9828 19.1876C16.3283 19.1876 14.6737 19.1759 13.0191 19.1966C12.6374 19.2011 12.5406 19.068 12.546 18.7066C12.5628 17.4944 12.5522 16.2823 12.5522 15.0711V15.072Z" fill="#1B1818"/>
<path d="M19.901 24.8996C19.901 23.7037 19.9116 22.5069 19.8948 21.3109C19.8895 20.9423 19.9667 20.784 20.3786 20.7966C21.3967 20.8281 22.4175 20.7741 23.4339 20.8182C24.1546 20.8496 24.8719 20.9504 25.5092 21.3811C26.1359 21.8046 26.4013 22.407 26.4794 23.121C26.6978 25.1334 25.3565 26.0569 23.7978 26.1081C23.3256 26.1234 22.8524 26.1333 22.3811 26.1171C22.1139 26.1081 22.018 26.1863 22.026 26.4669C22.0438 27.1242 22.0216 27.7833 22.0358 28.4406C22.0438 28.8372 21.8991 29.017 21.4881 28.99C21.0913 28.9639 20.6901 28.963 20.2933 28.99C19.9676 29.0125 19.8957 28.8713 19.8983 28.5773C19.9081 27.3508 19.9028 26.1252 19.9028 24.8987L19.901 24.8996ZM21.971 23.4474C21.971 24.153 22.3255 24.5058 23.0344 24.5058C23.1968 24.5058 23.3646 24.5273 23.5208 24.495C23.9061 24.4176 24.2532 24.2612 24.349 23.8224C24.4609 23.308 24.2851 22.7604 23.9496 22.5995C23.646 22.4529 23.3122 22.4223 22.9758 22.4232C22.3054 22.425 21.9701 22.7664 21.9701 23.4474H21.971Z" fill="#BD2B3D"/>
<path d="M19.9 15.0899C19.9 13.8931 19.9089 12.6972 19.8947 11.5004C19.8903 11.1479 19.9675 10.9896 20.3616 11.0004C21.3354 11.0283 22.3127 10.969 23.2847 11.022C24.1563 11.0697 25.0253 11.1713 25.7435 11.8007C26.15 12.1568 26.3994 12.6001 26.4633 13.0901C26.695 14.8831 25.9414 16.1024 23.938 16.3048C23.4116 16.3578 22.8754 16.3362 22.3446 16.3209C22.0854 16.3137 22.0189 16.4046 22.0251 16.6536C22.0402 17.2813 22.0313 17.9098 22.0295 18.5383C22.0277 19.121 21.9621 19.1876 21.4099 19.1885C21.0558 19.1885 20.6998 19.1669 20.3474 19.1947C19.9826 19.2235 19.8912 19.0635 19.8947 18.7245C19.908 17.5133 19.9 16.3021 19.9 15.0899ZM22.8675 14.7096C23.0441 14.7096 23.2207 14.7132 23.3974 14.7096C24.2025 14.6889 24.6641 13.876 24.2628 13.1657C24.1492 12.9652 23.9983 12.7772 23.7489 12.7197C23.2758 12.6109 22.7938 12.6423 22.3144 12.6235C22.0544 12.6136 21.9363 12.672 21.9638 12.9634C21.9905 13.2439 21.9692 13.5298 21.9692 13.8131C21.9692 14.4114 22.2683 14.7105 22.8666 14.7105L22.8675 14.7096Z" fill="#1B1818"/>
<path d="M30.7993 24.2143C31.0727 23.5822 31.3532 22.9339 31.6328 22.2856C31.6559 22.2325 31.6745 22.1768 31.6967 22.1228C32.2923 20.6895 32.4148 20.6203 33.9833 20.8055C34.2949 20.8424 34.3428 21.0033 34.2283 21.2695C33.7312 22.4276 33.2421 23.5894 32.7406 24.7458C32.3438 25.6602 31.9648 26.5855 31.521 27.4766C31.0239 28.4747 30.2561 29.0574 29.0719 28.9944C28.0804 28.9423 28.0787 28.9836 28.0787 27.9981V27.7733C28.0787 27.188 28.0787 27.1826 28.6405 27.1889C28.866 27.1916 29.0631 27.1493 29.2637 27.0315C29.7341 26.7554 29.7998 26.5756 29.5495 26.1062C28.7266 24.5587 27.9029 23.0112 27.0809 21.4628C26.8058 20.9458 26.8927 20.8792 27.452 20.792C28.6033 20.6122 29.316 20.9961 29.6951 22.1561C29.9285 22.8727 30.3608 23.5238 30.7052 24.2035C30.7088 24.2107 30.7318 24.2071 30.8011 24.2134L30.7993 24.2143Z" fill="#BD2B3D"/>
<path d="M33.9209 28.9228C32.9001 28.9264 32.8859 29.0298 32.8867 27.8771C32.8867 26.6911 32.8788 26.79 33.9759 26.7918C34.6588 26.793 35.0002 27.1356 35.0002 27.8195C35.0002 28.5551 34.6405 28.9228 33.9209 28.9228Z" fill="#1B1818"/>
<path d="M32.8124 14.5826C32.8 14.508 32.815 14.436 32.9038 14.4567C32.9633 14.4702 32.9615 14.535 32.9109 14.5799C32.8781 14.5799 32.8452 14.5817 32.8124 14.5826Z" fill="#C95E6C"/>
<path d="M29.8217 15.8586C29.7924 15.8757 29.7614 15.8973 29.7276 15.909C29.7223 15.9108 29.6859 15.8613 29.6921 15.8478C29.7045 15.8182 29.7347 15.7957 29.7578 15.7705C29.772 15.7894 29.7862 15.8092 29.8226 15.8586H29.8217Z" fill="#B9BBBE"/>
</g>
<defs>
<clipPath id="clip0_25795_134969">
<rect width="30" height="18" fill="white" transform="translate(5 11)"/>
</clipPath>
</defs>
</svg>
