<svg width="340" height="46" viewBox="0 0 340 46" fill="none" xmlns="http://www.w3.org/2000/svg">
<path d="M112.979 10.5147C113.443 10.5147 113.786 10.9059 113.761 11.3704C113.688 12.2751 113.615 13.1064 113.566 13.8399C113.517 14.7935 113.492 15.7226 113.444 16.6028C113.395 17.483 113.37 18.3877 113.321 19.3168C113.321 20.197 113.321 20.7349 113.321 21.8107C113.321 21.8841 113.395 21.9575 113.468 21.9575C113.517 21.9575 113.566 21.933 113.59 21.9085L123.297 10.7592C123.444 10.588 123.664 10.4902 123.884 10.4902H132.246C132.906 10.4902 133.273 11.2726 132.833 11.7861L123.419 22.4709C123.15 22.7643 123.15 23.2044 123.419 23.4978L133.493 34.8428C133.933 35.3318 133.591 36.1387 132.906 36.1387H124.495C124.275 36.1387 124.055 36.0408 123.908 35.8697L113.566 24.3047C113.541 24.2802 113.492 24.2558 113.444 24.2558C113.346 24.2558 113.297 24.3291 113.297 24.4025C113.297 25.0626 113.297 25.4539 113.297 26.3585C113.297 27.3365 113.297 28.3634 113.297 29.4637C113.346 30.5395 113.346 31.6398 113.346 32.7889C113.37 33.6447 113.395 34.5005 113.395 35.3562C113.395 35.7963 113.052 36.1387 112.612 36.1387H104.324C103.883 36.1387 103.517 35.7719 103.541 35.3318C103.566 34.6716 103.59 33.987 103.614 33.3024C103.663 32.2999 103.688 31.2241 103.737 30.075C103.786 28.9013 103.786 27.6544 103.786 26.3096C103.786 24.9648 103.786 23.4734 103.786 21.8352C103.786 20.4171 103.786 19.219 103.786 18.241C103.786 17.2385 103.761 16.3339 103.737 15.527C103.737 14.7201 103.737 13.9377 103.737 13.1798C103.737 12.6174 103.737 12.0062 103.737 11.3216C103.737 10.8814 104.079 10.5391 104.519 10.5391H112.979V10.5147Z" fill="#242424"/>
<path d="M76.9392 11.2464C76.9392 10.8307 76.5969 10.464 76.1568 10.464H70.0198C69.5797 10.464 69.2373 10.8307 69.2373 11.2464C69.3351 15.2318 69.384 19.2416 69.384 23.2515C69.384 27.2614 69.3351 31.2712 69.2373 35.2566C69.2373 35.6967 69.5797 36.039 70.0198 36.039H79.2131C79.4576 36.039 79.702 35.9168 79.8487 35.7212L89.6289 22.5914C90.069 22.0045 91.0226 22.298 91.0226 23.0559V35.2566C91.0226 35.6723 91.3649 36.039 91.805 36.039H97.5997C98.0398 36.039 98.3822 35.6723 98.3822 35.2322C98.3333 33.3495 98.2843 31.4913 98.2354 29.633C98.211 27.5059 98.1865 25.3542 98.1865 23.2026C98.1865 21.051 98.211 18.9238 98.2354 16.8211C98.2599 14.9629 98.3088 13.0802 98.3822 11.1975C98.4066 10.7574 98.0398 10.3906 97.5997 10.3906H87.9418C87.6973 10.3906 87.4528 10.5129 87.3061 10.7329L78.3574 23.6427C77.9173 24.2784 76.9392 23.9606 76.9392 23.2026V11.2464Z" fill="#242424"/>
<path d="M91.4139 1.41806C91.8785 1.41806 92.2452 1.80926 92.1474 2.27382C91.9763 3.25184 91.6585 4.15647 91.1939 4.93889C90.6071 5.94135 89.6779 6.72376 88.4309 7.26167C87.184 7.82403 85.497 8.09299 83.3698 8.09299C81.1937 8.09299 79.5065 7.82405 78.2596 7.28614C77.0615 6.72379 76.1814 5.94137 75.6679 4.96336C75.2523 4.18095 74.9832 3.27627 74.8365 2.2249C74.7632 1.7848 75.13 1.39359 75.5945 1.39359H78.9687C79.3599 1.39359 79.7022 1.71145 79.7755 2.10265C79.9711 2.93396 80.3379 3.22736 80.8025 3.59412C81.3649 4.05867 82.2939 4.27874 83.5653 4.27874C84.6167 4.27874 85.497 4.03424 86.1571 3.54523C86.695 3.12957 87.0128 2.86062 87.184 2.07821C87.2573 1.687 87.5997 1.36914 87.9909 1.36914H91.4139V1.41806Z" fill="#242424"/>
<path d="M0.0187144 29.8539C-0.079087 29.3893 0.263313 28.9737 0.72787 28.9248C1.87704 28.7781 2.7817 28.5336 3.41741 28.1668C4.22427 27.6778 4.81103 26.7976 5.20224 25.5262C5.61789 24.2548 5.8868 22.3232 6.00905 19.707L6.37581 11.2472C6.40026 10.8315 6.74258 10.5137 7.13379 10.5137H31.2908C31.7065 10.5137 32.0487 10.856 32.0487 11.2716V35.4041C32.0487 35.8198 31.7065 36.1621 31.2908 36.1621H23.32C22.9043 36.1621 22.562 35.8198 22.562 35.4041V19.0469C22.562 18.6312 22.2197 18.2889 21.804 18.2889H14.9334C14.5178 18.2889 14.2 18.6067 14.1756 18.9979L14.0777 20.5383C13.931 24.6949 13.3931 27.9223 12.4884 30.2206C11.6082 32.4945 10.3124 34.0838 8.62529 35.0129C6.93821 35.9176 4.71323 36.3577 1.90144 36.3577C1.53468 36.3577 1.24128 36.1132 1.16793 35.7464L0.0187144 29.8539Z" fill="#242424"/>
<path d="M35.8385 36.0888C35.3251 36.0888 34.9583 35.5753 35.1295 35.1108L43.3448 10.9783C43.4426 10.6849 43.736 10.4648 44.0539 10.4648H57.526C57.8439 10.4648 58.1373 10.6604 58.2351 10.9783L66.3771 35.1108C66.5483 35.5998 66.1814 36.0888 65.668 36.0888H57.3305C56.9882 36.0888 56.6947 35.8688 56.6213 35.5509L55.4478 31.4921C55.35 31.1743 55.0566 30.9542 54.7387 30.9542H46.7924C46.45 30.9542 46.1566 31.1743 46.0588 31.4921L44.9586 35.5265C44.8608 35.8443 44.5674 36.0643 44.2251 36.0643H35.8385V36.0888ZM48.0637 24.4015C47.917 24.8661 48.2838 25.3551 48.7729 25.3551H52.6849C53.1739 25.3551 53.5406 24.8906 53.3939 24.4015L51.4379 17.531C51.2423 16.7975 50.2154 16.7975 49.9954 17.531L48.0637 24.4015Z" fill="#242424"/>
<path d="M317.776 11.2971C317.776 10.8814 317.433 10.5147 316.993 10.5147H310.587C310.147 10.5147 309.805 10.8814 309.805 11.2971C309.902 15.2825 309.951 19.2679 309.951 23.2777C309.951 27.2876 309.902 31.273 309.805 35.2584C309.805 35.6985 310.147 36.0408 310.587 36.0408H320.172C320.416 36.0408 320.636 35.9186 320.783 35.7474L330.979 22.5932C331.443 22.0063 332.372 22.3242 332.372 23.0577V35.2829C332.372 35.6986 332.715 36.0653 333.155 36.0653H339.219C339.659 36.0653 340.025 35.6985 340.001 35.2584C339.928 33.3757 339.903 31.5175 339.854 29.6838C339.805 27.5566 339.805 25.4294 339.805 23.2777C339.805 21.1261 339.83 18.9989 339.854 16.8962C339.879 15.038 339.928 13.1798 340.001 11.2971C340.025 10.857 339.659 10.4902 339.219 10.4902H329.145C328.9 10.4902 328.656 10.6125 328.509 10.8081L319.145 23.7668C318.705 24.378 317.727 24.0602 317.727 23.3267V11.2971H317.776Z" fill="#242424"/>
<path d="M305.012 10.5371C305.476 10.5371 305.843 10.9283 305.794 11.3929C305.696 12.3953 305.623 13.3489 305.55 14.2536C305.501 15.4272 305.476 16.5764 305.427 17.7255C305.378 18.8502 305.354 19.9994 305.305 21.173C305.305 22.3222 305.305 23.5447 305.305 24.865C305.305 26.4054 305.305 28.0925 305.305 29.9018C305.354 31.5155 305.378 33.3248 305.427 35.3298C305.427 35.7699 305.085 36.1122 304.645 36.1122H295.99C295.525 36.1122 295.183 35.7454 295.207 35.2809C295.256 34.2784 295.305 33.2515 295.354 32.2001C295.378 31.0265 295.427 29.7307 295.452 28.3125C295.452 27.8724 295.109 27.5301 294.669 27.5301H287.065C286.625 27.5301 286.283 27.8724 286.283 28.3125C286.283 29.315 286.283 30.3908 286.283 31.5155C286.307 32.6891 286.356 33.9605 286.381 35.3542C286.381 35.7943 286.038 36.1366 285.598 36.1366H276.918C276.478 36.1366 276.111 35.7699 276.136 35.3298C276.16 34.6696 276.185 34.0095 276.234 33.3249C276.283 32.3713 276.307 31.3444 276.356 30.2441C276.405 29.1438 276.429 27.9213 276.429 26.6255C276.429 25.3051 276.429 23.8626 276.429 22.2488C276.429 20.8307 276.429 19.6082 276.429 18.6057C276.429 17.5544 276.405 16.6253 276.356 15.7695C276.356 14.9137 276.356 14.0824 276.356 13.3C276.356 12.7132 276.356 12.0775 276.356 11.3929C276.356 10.9772 276.698 10.6105 277.138 10.6105H285.989C286.454 10.6105 286.821 11.0017 286.772 11.4662C286.65 12.8844 286.552 14.2047 286.478 15.4272C286.405 16.6252 286.356 17.8478 286.307 19.0703C286.283 19.5104 286.65 19.8772 287.09 19.8772H294.694C295.134 19.8772 295.476 19.5348 295.476 19.0947C295.476 18.4346 295.476 17.8233 295.476 17.2854C295.476 16.503 295.452 15.745 295.403 15.036C295.403 14.3025 295.403 13.5934 295.403 12.9088C295.403 12.4198 295.403 11.9308 295.403 11.3929C295.403 10.9772 295.745 10.6105 296.185 10.6105H305.012V10.5371Z" fill="#242424"/>
<path d="M231.295 24.254C231.319 23.3982 230.17 23.1537 229.828 23.9117L225.133 34.4498C225.011 34.7187 224.742 34.9143 224.424 34.9143H220.732C220.414 34.9143 220.145 34.7432 220.023 34.4498L215.646 24.2784C215.304 23.496 214.179 23.7405 214.204 24.5963C214.228 25.8677 214.277 27.1391 214.326 28.435C214.448 30.7578 214.546 33.0072 214.595 35.2322C214.619 35.6723 214.253 36.0146 213.837 36.0146H207.455C207.015 36.0146 206.673 35.6478 206.673 35.2322C206.722 33.3495 206.771 31.4913 206.795 29.633C206.82 27.5059 206.844 25.3542 206.844 23.2026C206.844 21.051 206.82 18.9238 206.795 16.8211C206.771 14.9629 206.722 13.0802 206.673 11.1975C206.649 10.7574 207.015 10.4151 207.455 10.4151H216.918C217.236 10.4151 217.529 10.6107 217.651 10.9285L222.126 23.2271C222.37 23.8872 223.299 23.9117 223.568 23.2515L228.629 10.8796C228.752 10.5862 229.021 10.3906 229.339 10.3906H238.214C238.654 10.3906 238.996 10.7574 238.996 11.173C238.899 15.1584 238.874 19.1683 238.874 23.2026C238.874 27.2125 238.923 31.2223 238.996 35.2322C238.996 35.6723 238.654 36.0146 238.214 36.0146H231.735C231.295 36.0146 230.952 35.6478 230.977 35.2077L231.295 24.254Z" fill="#242424"/>
<path d="M242.713 36.0633C242.199 36.0633 241.857 35.5743 242.004 35.1097L249.07 11.075C249.168 10.7572 249.461 10.5371 249.779 10.5371H265.696C266.039 10.5371 266.332 10.7572 266.405 11.075L273.472 35.1097C273.618 35.5987 273.251 36.0633 272.762 36.0633H264.327C263.985 36.0633 263.691 35.8432 263.594 35.5254L262.42 31.4911C262.322 31.1732 262.029 30.9532 261.686 30.9532H253.716C253.373 30.9532 253.08 31.1732 252.982 31.5155L251.857 35.5254C251.76 35.8432 251.466 36.0877 251.124 36.0877H242.713V36.0633ZM255.085 24.376C254.938 24.865 255.305 25.354 255.794 25.354H259.657C260.171 25.354 260.537 24.865 260.366 24.376L258.435 18.2879C258.215 17.5788 257.212 17.5788 256.992 18.2879L255.085 24.376Z" fill="#242424"/>
<path d="M159.9 42.6176C158.897 42.2508 157.944 41.8351 157.015 41.3461C156.868 41.2728 156.917 41.0527 157.088 41.0527H157.993C158.017 41.0527 158.066 41.0527 158.09 41.0772C158.702 41.5173 159.362 41.9329 160.022 42.3241C160.193 42.4219 160.071 42.6909 159.9 42.6176Z" fill="#FEE121"/>
<path d="M155.963 39.6839H154.447C154.423 39.6839 154.374 39.6839 154.35 39.6594C153.567 39.0726 152.834 38.4614 152.149 37.7768C152.051 37.679 152.125 37.5078 152.271 37.5078H154.154C154.203 37.5078 154.252 37.5323 154.276 37.5567C154.839 38.2169 155.45 38.8281 156.086 39.4149C156.183 39.5127 156.11 39.6839 155.963 39.6839Z" fill="#FEE121"/>
<path d="M152.833 36.1624H150.731C150.682 36.1624 150.633 36.1379 150.608 36.1135C150.119 35.5022 149.655 34.891 149.239 34.2308C149.166 34.133 149.239 33.9863 149.361 33.9863H151.611C151.66 33.9863 151.709 34.0108 151.733 34.0597C152.1 34.6954 152.491 35.3067 152.931 35.9179C153.029 36.0157 152.956 36.1624 152.833 36.1624Z" fill="#FEE121"/>
<path d="M150.73 32.6175H148.383C148.334 32.6175 148.261 32.593 148.236 32.5441C147.918 31.9329 147.625 31.3216 147.381 30.6615C147.332 30.5637 147.405 30.4414 147.527 30.4414H149.948C150.021 30.4414 150.07 30.4903 150.095 30.5392C150.339 31.1749 150.583 31.7862 150.877 32.3974C150.926 32.4952 150.853 32.6175 150.73 32.6175Z" fill="#FEE121"/>
<path d="M149.411 29.0951H146.941C146.868 29.0951 146.819 29.0462 146.795 28.9728C146.599 28.3616 146.452 27.7259 146.306 27.0901C146.281 26.9923 146.354 26.8945 146.452 26.8945H148.946C149.019 26.8945 149.093 26.9434 149.093 27.0168C149.215 27.6525 149.362 28.2637 149.533 28.875C149.582 28.9973 149.508 29.0951 149.411 29.0951Z" fill="#FEE121"/>
<path d="M148.848 20.0257C148.775 20.637 148.726 21.2482 148.701 21.8839C148.701 21.9573 148.628 22.0306 148.555 22.0306H146.012C145.914 22.0306 145.841 21.9573 145.865 21.8595C145.89 21.2238 145.938 20.588 145.987 19.9768C145.987 19.9034 146.061 19.8301 146.134 19.8301H148.701C148.799 19.8301 148.873 19.9279 148.848 20.0257Z" fill="#FEE121"/>
<path d="M149.557 16.5033C149.385 17.1145 149.239 17.7258 149.116 18.3615C149.092 18.4348 149.043 18.4837 148.97 18.4837H146.402C146.305 18.4837 146.231 18.386 146.256 18.2881C146.378 17.6524 146.525 17.0167 146.696 16.4055C146.72 16.3321 146.769 16.2832 146.842 16.2832H149.434C149.508 16.3077 149.581 16.4055 149.557 16.5033Z" fill="#FEE121"/>
<path d="M150.878 12.9828C150.584 13.594 150.34 14.2053 150.095 14.841C150.071 14.8899 150.022 14.9388 149.949 14.9388H147.381C147.284 14.9388 147.186 14.8166 147.235 14.7188C147.479 14.0586 147.748 13.4473 148.066 12.8361C148.09 12.7872 148.139 12.7383 148.213 12.7383H150.756C150.853 12.7627 150.927 12.885 150.878 12.9828Z" fill="#FEE121"/>
<path d="M152.956 9.48669C152.54 10.0735 152.125 10.7092 151.758 11.3449C151.733 11.3938 151.685 11.4182 151.636 11.4182H149.166C149.044 11.4182 148.971 11.2715 149.044 11.1737C149.46 10.5136 149.9 9.90234 150.389 9.29108C150.413 9.26663 150.462 9.24219 150.511 9.24219H152.858C152.956 9.24219 153.029 9.38889 152.956 9.48669Z" fill="#FEE121"/>
<path d="M156.061 5.96621C155.425 6.55302 154.838 7.16427 154.251 7.82443C154.227 7.84888 154.178 7.87332 154.129 7.87332H151.977C151.831 7.87332 151.757 7.70218 151.855 7.60438C152.54 6.91977 153.273 6.30852 154.056 5.72171C154.08 5.69726 154.129 5.69727 154.154 5.69727H155.938C156.085 5.69727 156.158 5.86841 156.061 5.96621Z" fill="#FEE121"/>
<path d="M160.51 2.78637C159.679 3.25093 158.872 3.76437 158.09 4.32673C158.065 4.35118 158.041 4.3512 157.992 4.3512H156.818C156.647 4.3512 156.598 4.13113 156.745 4.05778C157.919 3.42207 159.141 2.90863 160.388 2.51742C160.559 2.44407 160.682 2.68857 160.51 2.78637Z" fill="#FEE121"/>
<path d="M171.489 0H167.577C162.492 0 157.626 1.54038 153.665 4.35217C153.078 4.76783 152.491 5.23238 151.953 5.72139C151.782 5.86809 151.611 6.0148 151.44 6.18595C150.853 6.72386 150.315 7.31067 149.777 7.89748C149.411 8.33758 149.044 8.80213 148.701 9.26669C148.188 9.97575 147.724 10.6848 147.308 11.4428C147.063 11.8829 146.819 12.3474 146.623 12.812C146.281 13.5211 145.987 14.2546 145.743 14.9881C145.596 15.4282 145.45 15.8927 145.327 16.3573C145.132 17.0664 144.961 17.7999 144.838 18.5334C144.765 18.9735 144.692 19.438 144.643 19.9026C144.569 20.6117 144.521 21.3452 144.496 22.0787C144.496 22.2743 144.496 22.4943 144.496 22.6899C144.496 22.9344 144.496 23.1789 144.52 23.4234C144.545 24.157 144.594 24.8904 144.692 25.5995C144.741 26.0641 144.814 26.5042 144.912 26.9688C145.058 27.7023 145.23 28.4357 145.425 29.1448C145.547 29.6094 145.719 30.0495 145.865 30.514C146.134 31.2476 146.452 31.981 146.794 32.6901C147.014 33.1547 147.259 33.5948 147.528 34.0594C147.968 34.8173 148.457 35.5263 148.97 36.2354C149.313 36.7 149.704 37.1645 150.095 37.6047C150.511 38.0937 150.975 38.5582 151.44 38.9983C151.733 39.2673 152.002 39.5362 152.32 39.7807C152.883 40.2697 153.469 40.7098 154.056 41.15C157.993 43.9373 162.712 45.4777 167.602 45.4777H171.489C183.959 45.4288 194.106 35.2574 194.106 22.7877C194.081 10.1958 183.959 0.0489007 171.489 0ZM156.746 4.03431C157.919 3.3986 159.142 2.88513 160.389 2.49392C160.56 2.44502 160.682 2.68954 160.511 2.78735C159.68 3.2519 158.873 3.76534 158.09 4.3277C158.066 4.35215 158.042 4.35217 157.993 4.35217H156.819C156.648 4.35217 156.599 4.13211 156.746 4.03431ZM151.88 7.60405C152.565 6.91944 153.298 6.3082 154.081 5.72139C154.105 5.69694 154.154 5.69694 154.178 5.69694H155.963C156.11 5.69694 156.183 5.86809 156.061 5.96589C155.425 6.5527 154.839 7.16395 154.252 7.82411C154.227 7.84856 154.178 7.873 154.13 7.873H151.978C151.856 7.873 151.782 7.70185 151.88 7.60405ZM148.995 11.1738C149.411 10.5136 149.851 9.90239 150.34 9.29113C150.364 9.26668 150.413 9.24224 150.462 9.24224H152.809C152.931 9.24224 153.005 9.38895 152.931 9.48675C152.516 10.0736 152.1 10.7093 151.733 11.345C151.709 11.3939 151.66 11.4183 151.611 11.4183H149.142C149.019 11.4183 148.946 11.2716 148.995 11.1738ZM147.234 14.7436C147.479 14.0834 147.748 13.4721 148.066 12.8609C148.09 12.812 148.139 12.7631 148.212 12.7631H150.755C150.878 12.7631 150.951 12.8853 150.902 12.9831C150.609 13.5944 150.364 14.2056 150.12 14.8414C150.095 14.8903 150.046 14.9392 149.973 14.9392H147.406C147.259 14.9392 147.186 14.8414 147.234 14.7436ZM146.672 16.4306C146.697 16.3573 146.746 16.3084 146.819 16.3084H149.411C149.508 16.3084 149.582 16.4062 149.557 16.504C149.386 17.1152 149.239 17.7265 149.117 18.3622C149.093 18.4356 149.044 18.4845 148.97 18.4845H146.403C146.305 18.4845 146.232 18.3867 146.256 18.2889C146.354 17.6532 146.501 17.0174 146.672 16.4306ZM145.987 19.9759C145.987 19.9026 146.061 19.8292 146.134 19.8292H148.701C148.799 19.8292 148.873 19.9026 148.848 20.0004C148.775 20.6117 148.726 21.2229 148.701 21.8586C148.701 21.932 148.628 22.0053 148.555 22.0053H146.012C145.914 22.0053 145.841 21.932 145.865 21.8342C145.89 21.2229 145.914 20.5872 145.987 19.9759ZM146.012 25.4039C145.939 24.7927 145.89 24.1569 145.865 23.5212C145.865 23.4234 145.939 23.3501 146.012 23.3501H148.555C148.628 23.3501 148.701 23.4234 148.701 23.4968C148.726 24.1325 148.775 24.7437 148.848 25.355C148.848 25.4528 148.799 25.5262 148.701 25.5262H146.183C146.11 25.5506 146.036 25.5017 146.012 25.4039ZM146.794 28.9737C146.599 28.3624 146.452 27.7267 146.305 27.091C146.281 26.9932 146.354 26.8954 146.452 26.8954H148.946C149.019 26.8954 149.093 26.9443 149.093 27.0176C149.215 27.6533 149.362 28.2646 149.533 28.8759C149.557 28.9737 149.484 29.0715 149.386 29.0715H146.917C146.868 29.0959 146.819 29.047 146.794 28.9737ZM148.384 32.6168C148.335 32.6168 148.261 32.5923 148.237 32.5434C147.919 31.9322 147.626 31.3209 147.381 30.6607C147.332 30.5629 147.406 30.4407 147.528 30.4407H149.948C150.022 30.4407 150.071 30.4896 150.095 30.5385C150.34 31.1742 150.584 31.7855 150.878 32.3967C150.926 32.4945 150.853 32.6168 150.731 32.6168H148.384ZM150.731 36.1621C150.682 36.1621 150.633 36.1376 150.609 36.1132C150.12 35.5019 149.655 34.8907 149.239 34.2305C149.166 34.1327 149.239 33.986 149.362 33.986H151.611C151.66 33.986 151.709 34.0105 151.733 34.0594C152.1 34.6951 152.491 35.3063 152.931 35.9176C153.005 36.0154 152.931 36.1621 152.809 36.1621H150.731ZM155.963 39.6829H154.447C154.423 39.6829 154.374 39.6829 154.35 39.6585C153.567 39.0716 152.834 38.4604 152.149 37.7758C152.051 37.678 152.125 37.5068 152.271 37.5068H154.154C154.203 37.5068 154.252 37.5313 154.276 37.5557C154.839 38.2159 155.45 38.8271 156.086 39.414C156.183 39.5118 156.11 39.6829 155.963 39.6829ZM159.9 42.617C158.897 42.2502 157.944 41.8345 157.015 41.3455C156.868 41.2722 156.917 41.0521 157.088 41.0521H157.993C158.017 41.0521 158.066 41.0521 158.09 41.0766C158.702 41.5167 159.362 41.9323 160.022 42.3236C160.193 42.4214 160.071 42.6903 159.9 42.617ZM171.514 44.0351H171.391C170.951 44.0351 170.511 44.0106 170.047 43.9862C162.443 43.5216 155.89 39.0472 152.516 32.6412V32.6168C150.951 29.6583 150.071 26.2597 150.071 22.6899C150.071 10.9293 159.631 1.34477 171.391 1.34477H171.489C183.201 1.39367 192.737 10.9538 192.737 22.6899C192.737 34.4261 183.225 43.9617 171.514 44.0351Z" fill="#242424"/>
<path d="M148.848 25.379C148.848 25.4768 148.799 25.5501 148.701 25.5501H146.183C146.11 25.5501 146.036 25.5012 146.036 25.4034C145.963 24.7922 145.914 24.1565 145.89 23.5207C145.89 23.4229 145.963 23.3496 146.036 23.3496H148.579C148.653 23.3496 148.726 23.423 148.726 23.4963C148.726 24.1565 148.775 24.7677 148.848 25.379Z" fill="#FEE121"/>
<path d="M171.489 1.3457H171.391C159.63 1.3457 150.07 10.9303 150.07 22.6909C150.07 26.2851 150.951 29.6592 152.515 32.6177V32.6422C155.889 39.0481 162.442 43.5226 170.046 43.9871C170.486 44.0116 170.927 44.036 171.391 44.036H171.513C183.225 43.9627 192.736 34.427 192.736 22.6909C192.736 10.9547 183.201 1.3946 171.489 1.3457ZM171.489 41.5665C171.464 41.5665 171.416 41.5665 171.391 41.5665C169.631 41.5665 167.87 41.322 166.183 40.833H166.159C162.295 39.7328 158.848 37.3366 156.378 34.1581C153.836 30.8573 152.515 26.8963 152.515 22.7153C152.515 18.5343 153.86 14.5733 156.378 11.2725C158.823 8.06954 162.295 5.69785 166.159 4.57314H166.208C167.895 4.08413 169.631 3.8641 171.391 3.8641C171.416 3.8641 171.464 3.8641 171.489 3.8641C181.856 3.913 190.267 12.3728 190.267 22.7398C190.267 33.0578 181.856 41.5176 171.489 41.5665Z" fill="#FEE121"/>
<path d="M171.489 3.81445C171.465 3.81445 171.416 3.81445 171.391 3.81445C169.631 3.81445 167.895 4.05896 166.208 4.52352H166.159C162.296 5.62379 158.824 7.99547 156.379 11.2229C153.836 14.5482 152.516 18.4847 152.516 22.6657C152.516 26.8467 153.86 30.8076 156.379 34.1084C158.824 37.3114 162.296 39.6831 166.159 40.7834H166.183C167.87 41.2724 169.631 41.5169 171.391 41.5169C171.416 41.5169 171.465 41.5169 171.489 41.5169C181.856 41.468 190.267 33.0082 190.267 22.6412C190.267 12.3232 181.856 3.86335 171.489 3.81445ZM169.729 39.8054C168.653 39.8054 167.601 39.7076 166.575 39.512H166.55C159.093 37.3603 153.885 30.4409 153.885 22.6901C153.885 14.9149 159.093 8.01992 166.526 5.86829H166.55C167.577 5.67269 168.628 5.5749 169.704 5.5749C179.484 5.8683 187.382 13.2523 187.382 22.7146C187.406 33.0815 179.166 39.8054 169.729 39.8054Z" fill="#242424"/>
<path d="M187.406 22.6904C187.406 33.0818 179.166 39.8301 169.729 39.8301C168.653 39.8301 167.601 39.7323 166.574 39.5367H166.55C159.093 37.385 153.885 30.4656 153.885 22.7149C153.885 14.9396 159.093 8.04463 166.526 5.893H166.55C167.577 5.6974 168.628 5.59961 169.704 5.59961C179.484 5.84411 187.406 13.2281 187.406 22.6904Z" fill="#FEE121"/>
<path d="M166.086 19.9025V28.1912C166.086 28.6068 165.743 28.9491 165.328 28.9491H163.078C162.663 28.9491 162.32 28.6068 162.32 28.1912V19.9025C162.32 19.4868 162.663 19.1445 163.078 19.1445H165.328C165.401 19.1445 165.45 19.1445 165.523 19.169C165.572 19.169 165.621 19.1934 165.67 19.2179C165.914 19.3646 166.086 19.6091 166.086 19.9025Z" fill="white"/>
<path d="M181.44 20.8812L179.289 27.6784C179.191 27.9962 178.898 28.1918 178.58 28.1918H168.359C167.944 28.1918 167.577 27.8495 167.577 27.4094V20.49C167.577 20.001 168.017 19.5853 168.433 19.4142C169.02 19.1452 169.924 18.6806 170.731 17.8982C171.783 16.9936 172.394 16.1134 172.858 14.7442L172.883 14.6463C173.054 13.8639 173.396 13.4483 173.836 13.4238C174.154 13.4238 174.399 13.5216 174.594 13.7172C174.814 13.9373 174.937 14.304 174.937 14.7197C174.937 15.3309 174.863 16.2356 174.57 17.1403C174.374 17.776 174.497 18.5339 174.912 19.0963C175.279 19.5853 175.792 19.8787 176.355 19.8787H180.658C180.903 19.8787 181.123 20.001 181.269 20.1966C181.465 20.4166 181.514 20.6611 181.44 20.8812Z" fill="white"/>
<path d="M181.318 20.22C181.171 20.0244 180.951 19.9022 180.707 19.9022H176.404C175.841 19.9022 175.328 19.6087 174.961 19.1197C174.545 18.5574 174.423 17.7994 174.619 17.1637C174.912 16.2835 174.961 15.3544 174.986 14.7431C174.986 14.3519 174.863 13.9852 174.643 13.7407C174.448 13.5451 174.203 13.4473 173.885 13.4473C173.445 13.4473 173.103 13.8874 172.932 14.6698L172.907 14.7676C172.443 16.1368 171.832 17.017 170.78 17.9217C169.949 18.7041 169.069 19.1686 168.482 19.4376C168.066 19.6332 167.626 20.0489 167.626 20.5134V27.4329C167.626 27.8485 167.968 28.2153 168.408 28.2153H178.629C178.946 28.2153 179.24 28.0197 179.338 27.7018L181.489 20.9046C181.514 20.6601 181.465 20.4156 181.318 20.22Z" fill="#242424"/>
<path d="M182.565 19.3166C182.125 18.7298 181.464 18.3875 180.731 18.3875H176.428C176.33 18.3875 176.232 18.2897 176.208 18.2408C176.085 18.0696 176.036 17.8007 176.085 17.6295C176.428 16.5537 176.501 15.4779 176.526 14.7688C176.526 13.9375 176.257 13.204 175.743 12.6905C175.254 12.2015 174.643 11.957 173.909 11.957H173.885C173.738 11.957 173.445 11.9815 173.127 12.1037L172.687 12.3238L171.44 12.9595L171.366 13.0084C171.366 13.0084 171.342 13.0084 171.342 13.0329C170.804 13.3263 170.242 13.9131 169.973 15.1356C169.582 16.2114 169.141 16.8716 168.31 17.5806L168.286 17.6051C168.041 17.8251 167.797 18.0207 167.552 18.1919C167.332 18.3386 167.039 18.3386 166.819 18.1674C166.427 17.8496 165.914 17.6539 165.376 17.6539H163.127C162.833 17.6539 162.564 17.7029 162.295 17.8007L161.929 17.9963L160.706 18.632L160.682 18.6564L160.584 18.7053C160.559 18.7053 160.559 18.7298 160.535 18.7298C159.826 19.121 159.361 19.8545 159.361 20.7347V29.0234C159.361 30.2948 160.388 31.2973 161.635 31.2973H163.885C164.227 31.2973 164.545 31.2239 164.838 31.0772L164.985 31.0039L165.987 30.5149C166.11 30.4415 166.256 30.4415 166.403 30.4659C166.574 30.5148 166.77 30.5393 166.941 30.5393H177.161C177.43 30.5393 177.675 30.4904 177.919 30.417L178.433 30.1481L179.655 29.5368L179.704 29.5124C180.218 29.2434 180.633 28.7789 180.829 28.1921L182.98 21.3949C183.103 20.6614 182.98 19.9034 182.565 19.3166ZM163.078 28.9745C162.662 28.9745 162.32 28.6322 162.32 28.2165V19.9278C162.32 19.5122 162.662 19.1699 163.078 19.1699H165.327C165.401 19.1699 165.45 19.1699 165.523 19.1943C165.572 19.1943 165.621 19.2188 165.669 19.2432C165.914 19.3655 166.085 19.6344 166.085 19.9278V28.2165C166.085 28.6322 165.743 28.9745 165.327 28.9745H163.078ZM181.44 20.8814L179.288 27.6786C179.191 27.9964 178.897 28.1921 178.579 28.1921H168.359C167.943 28.1921 167.577 27.8497 167.577 27.4096V20.4902C167.577 20.0012 168.017 19.5855 168.432 19.4144C169.019 19.1454 169.924 18.6809 170.731 17.8984C171.782 16.9938 172.393 16.1136 172.858 14.7444L172.882 14.6466C173.053 13.8642 173.396 13.4485 173.836 13.4241C174.154 13.4241 174.398 13.5218 174.594 13.7174C174.814 13.9375 174.936 14.3042 174.936 14.7199C174.936 15.3312 174.863 16.2358 174.569 17.1405C174.374 17.7762 174.496 18.5342 174.912 19.0965C175.279 19.5855 175.792 19.879 176.354 19.879H180.658C180.902 19.879 181.122 20.0012 181.269 20.1968C181.464 20.4168 181.513 20.6614 181.44 20.8814Z" fill="#242424"/>
<path d="M181.44 20.8812L179.289 27.6784C179.191 27.9962 178.898 28.1918 178.58 28.1918H168.359C167.944 28.1918 167.577 27.8495 167.577 27.4094V20.49C167.577 20.001 168.017 19.5853 168.433 19.4142C169.02 19.1452 169.924 18.6806 170.731 17.8982C171.783 16.9936 172.394 16.1134 172.858 14.7442L172.883 14.6463C173.054 13.8639 173.396 13.4483 173.836 13.4238C174.154 13.4238 174.399 13.5216 174.594 13.7172C174.814 13.9373 174.937 14.304 174.937 14.7197C174.937 15.3309 174.863 16.2356 174.57 17.1403C174.374 17.776 174.497 18.5339 174.912 19.0963C175.279 19.5853 175.792 19.8787 176.355 19.8787H180.658C180.903 19.8787 181.123 20.001 181.269 20.1966C181.465 20.4166 181.514 20.6611 181.44 20.8812Z" fill="white"/>
</svg>
