<svg width="40" height="40" viewBox="0 0 40 40" fill="none" xmlns="http://www.w3.org/2000/svg">
<rect width="40" height="40" fill="white"/>
<path fill-rule="evenodd" clip-rule="evenodd" d="M14.2089 6L10.4638 24.6482C10.1936 25.8837 10.0005 27.0805 10.0005 28.3546C9.9619 31.675 12.124 33.8371 17.1432 33.8371C26.0233 33.8371 30 26.8489 30 20.5556C30 17.158 28.1468 13.9921 24.2859 13.9921C22.0465 13.9921 20.0389 14.9187 18.7648 16.1928H18.6875L20.811 6H14.2089ZM17.2976 23.7602C17.8381 20.9417 19.4597 19.3201 21.0813 19.3201C22.4326 19.3201 23.089 20.4012 23.089 22.0228C23.089 24.957 21.0813 28.8952 18.5717 28.8952C17.5679 28.8952 16.8729 28.2774 16.8343 27.1192C16.7571 26.3856 16.9115 25.7292 17.0274 25.1115L17.2976 23.7602Z" fill="#282735"/>
</svg>
