<svg width="40" height="40" viewBox="0 0 40 40" fill="none" xmlns="http://www.w3.org/2000/svg">
<rect width="40" height="40" rx="12" fill="white"/>
<path fill-rule="evenodd" clip-rule="evenodd" d="M22.8655 7.89979C23.0465 8.5242 22.8902 8.97029 22.2684 9.6029C21.9818 9.89471 21.4313 10.3185 21.0453 10.5449C19.1874 11.634 18.6202 12.1714 18.0947 13.3402C17.96 13.6399 17.8377 13.8851 17.8228 13.8851C17.7671 13.8851 17.8861 13.34 18.0694 12.756C18.1833 12.3926 18.4422 11.9048 18.7177 11.5341C19.2323 10.8418 19.2608 10.8509 18.0483 11.3217C16.5631 11.8986 15.1086 13.1574 14.2964 14.569C13.8776 15.2969 13.2813 16.9044 13.2774 17.316C13.2761 17.447 13.2302 17.6185 13.1755 17.6972C13.002 17.946 13.157 15.9113 13.3702 15.1403C13.5942 14.3306 14.0058 13.4571 14.4671 12.813C14.6454 12.5641 14.7629 12.3603 14.7284 12.3603C14.6937 12.3603 14.3437 12.5854 13.9505 12.8607C11.9771 14.2418 10.3955 16.5533 9.74641 19.005C9.5205 19.858 9.49972 20.0896 9.5 21.7474C9.50028 23.2894 9.52929 23.6647 9.69559 24.2759C10.6721 27.8659 12.9876 30.5402 16.2203 31.8116C17.4857 32.3094 18.496 32.4949 19.9691 32.4999C22.3472 32.5082 24.1036 31.9442 26.2448 30.4849C27.7726 29.4436 28.4643 28.6812 28.2505 28.2743C27.9993 27.7963 27.2052 27.5699 26.6006 27.804C26.4581 27.8592 26.0659 28.1326 25.7288 28.4117C24.5362 29.3993 23.5773 29.6655 24.1939 28.8377C25.2369 27.4376 25.1486 25.2921 23.9913 23.9153C23.776 23.6593 23.3986 23.3865 22.9402 23.1558C22.2431 22.8049 22.1984 22.7957 21.1905 22.7957C20.2643 22.7957 20.1004 22.8224 19.6212 23.0511C19.3268 23.1916 18.8741 23.5084 18.6151 23.7551C18.0576 24.2861 18.0078 24.2126 18.4983 23.5824C19.3622 22.4721 20.5433 21.9299 21.9359 22.0044C23.0006 22.0613 23.7901 22.4589 24.8976 23.4961C25.8487 24.3866 26.3146 24.6842 27.0814 24.8907C28.315 25.2231 29.5383 24.727 30.2321 23.6128C30.5114 23.1644 30.5807 22.6088 30.4003 22.2653C30.2663 22.0103 30.1452 22.0314 29.5667 22.4109C28.6835 22.9904 27.8249 22.9483 27.1082 22.2903C26.636 21.8567 26.3843 21.3164 26.3816 20.7308C26.3781 19.984 26.4182 19.9513 26.9733 20.2494C27.4172 20.4878 27.5415 20.5085 28.5319 20.5085C29.4725 20.5085 29.6584 20.4812 30.007 20.2915C30.4488 20.0513 30.4424 20.1063 30.1528 19.0342C29.7736 17.6304 29.0049 16.8245 27.89 16.6622L27.4557 16.5989L27.3969 16.1099C27.3192 15.4621 26.9502 14.6625 26.4947 14.1544C26.1357 13.7539 26.1235 13.7172 26.0621 12.8633C25.931 11.0398 25.3542 9.51875 24.4287 8.55565C23.9671 8.07524 23.0994 7.5 22.8364 7.5C22.7876 7.5 22.8003 7.67535 22.8655 7.89979ZM25.8144 14.5784C25.2924 15.9472 25.203 17.735 25.6096 18.671C25.715 18.9136 25.7807 19.133 25.7556 19.1584C25.7306 19.1839 25.5289 19.1231 25.3075 19.0235C24.7675 18.7802 23.5758 18.618 22.8 18.6822C22.4526 18.7109 22.1683 18.7041 22.1683 18.6671C22.1683 18.6302 22.5157 18.479 22.9403 18.3311C24.2517 17.8744 24.3513 17.8068 24.4351 17.316C24.7034 15.7454 24.9909 15.032 25.6481 14.306C25.8576 14.0745 26.0402 13.8851 26.0538 13.8851C26.0676 13.8851 25.9598 14.1971 25.8144 14.5784ZM19.6883 19.0259C19.5854 19.0682 19.1917 19.1979 18.8134 19.3139C17.4934 19.719 16.1823 20.5798 15.5021 21.4881C14.7917 22.4366 14.32 23.8835 14.3106 25.1419C14.3016 26.3547 14.7828 27.9868 15.4739 29.0867C15.7735 29.5638 15.7874 29.6098 15.5832 29.4462C15.1287 29.0821 14.4001 28.1248 14.0757 27.4655C13.6385 26.5769 13.4651 25.8327 13.4651 24.8447C13.4651 22.2782 14.9154 20.3013 17.4221 19.4513C18.1259 19.2125 19.2898 18.9557 19.6883 18.9511L19.8755 18.9489L19.6883 19.0259Z" fill="#FF4700"/>
</svg>
