<svg width="40" height="40" viewBox="0 0 40 40" fill="none" xmlns="http://www.w3.org/2000/svg">
<g clip-path="url(#clip0_1945_8214)">
<path d="M40 0H0V40H40V0Z" fill="#B7BC11"/>
<path d="M37.1827 17.7339C37.1827 18.4833 36.9554 19.0722 36.501 19.5001C36.0462 19.9279 35.4089 20.142 34.5883 20.142C33.7681 20.142 33.1305 19.9279 32.676 19.5001C32.2215 19.0722 31.9943 18.4833 31.9943 17.7339C31.9943 16.9845 32.2215 16.396 32.676 15.968C33.1305 15.54 33.7681 15.3262 34.5883 15.3262C35.4089 15.3262 36.0462 15.54 36.501 15.968C36.9554 16.396 37.1827 16.9845 37.1827 17.7339ZM31.6589 20.0622H29.8765V18.3461H28.6857V20.0622H26.903V15.4059H28.6857V17.0155H29.8765V15.4059H31.6589V20.0622ZM26.4844 20.0622H24.7017V18.4589C24.449 18.5036 24.3136 18.5277 24.2958 18.5322C23.9898 18.581 23.7371 18.6054 23.5377 18.6054C23.0142 18.6054 22.6067 18.5059 22.3147 18.306C22.3446 18.1205 22.3585 17.9289 22.3585 17.7339C22.3585 17.0606 22.1911 16.4311 21.7749 15.9216V15.4059H23.5576V16.8893C23.5576 17.0533 23.6217 17.1664 23.7505 17.2283C23.83 17.2684 23.9323 17.2884 24.0565 17.2884C24.1675 17.2884 24.2748 17.2784 24.3789 17.2585C24.4834 17.2385 24.5907 17.2086 24.7017 17.1687V15.4059H26.4844V20.0622ZM12.3485 19.9557C12.1092 20.0223 11.8786 20.0698 11.6568 20.0987C11.4351 20.1275 11.2312 20.142 11.0449 20.142C10.1625 20.142 9.47289 19.9158 8.97617 19.4634C8.50175 19.0333 8.26428 18.4568 8.26428 17.7339C8.26428 17.0601 8.47499 16.5101 8.8964 16.0842C9.39758 15.5789 10.1291 15.3262 11.0914 15.3262C11.3265 15.3262 11.5548 15.3417 11.7765 15.3726C11.8431 15.3815 11.9937 15.408 12.2289 15.4524L12.3351 15.4723V16.703C12.2021 16.6497 12.0549 16.6064 11.893 16.5734C11.7311 16.54 11.566 16.5235 11.3973 16.5235C11.025 16.5235 10.7222 16.6332 10.4894 16.8528C10.2567 17.0722 10.1402 17.3527 10.1402 17.6941C10.1402 18 10.2157 18.2551 10.3664 18.4589C10.5836 18.7518 10.9384 18.8979 11.4306 18.8979C11.5548 18.8979 11.6791 18.8869 11.803 18.8649C11.9274 18.8426 12.1092 18.7938 12.3485 18.7185V19.9557ZM20.0953 17.7339C20.0953 17.3794 20.0599 17.1044 19.9888 16.9092C19.8736 16.5988 19.6697 16.4437 19.3769 16.4437C19.0798 16.4437 18.8757 16.5967 18.7649 16.9027C18.6941 17.0976 18.6584 17.3747 18.6584 17.7339C18.6584 18.089 18.6941 18.3637 18.7649 18.5589C18.8801 18.8693 19.0843 19.0244 19.3769 19.0244C19.6739 19.0244 19.878 18.8714 19.9888 18.5655C20.0599 18.3705 20.0953 18.0932 20.0953 17.7339ZM21.9712 17.7339C21.9712 18.4833 21.7437 19.0722 21.2892 19.5001C20.8347 19.9279 20.1974 20.142 19.3769 20.142C18.5563 20.142 17.919 19.9279 17.4645 19.5001C17.231 19.2803 17.0575 19.0176 16.9439 18.7127C17.0591 18.6366 17.168 18.5482 17.2695 18.4453C17.6408 18.0685 17.8271 17.6038 17.8271 17.0756C17.8271 16.655 17.7159 16.2737 17.4881 15.9462C17.941 15.5329 18.5705 15.3262 19.3769 15.3262C20.1974 15.3262 20.8347 15.54 21.2892 15.968C21.7437 16.396 21.9712 16.9845 21.9712 17.7339ZM17.4396 17.0756C17.4396 17.5057 17.291 17.8714 16.994 18.1732C16.6345 18.5366 16.1226 18.7185 15.4574 18.7185H14.4794V20.0622H12.6967V15.4059H15.4241C16.0848 15.4059 16.5949 15.5768 16.9539 15.9181C17.2777 16.2241 17.4396 16.6098 17.4396 17.0756ZM15.6434 17.0622C15.6434 16.8937 15.5925 16.7628 15.4905 16.6699C15.353 16.5455 15.1291 16.4836 14.8187 16.4836H14.433V17.6408H14.8253C15.0292 17.6408 15.1911 17.6164 15.311 17.5678C15.5327 17.4747 15.6434 17.306 15.6434 17.0622ZM27.2373 21.2556V24.9071H28.1961V21.9956H29.782V21.2556H27.2373ZM23.7746 21.2556V24.9071H25.544C26.5521 24.9071 27.0103 24.3713 27.0103 23.7297C27.0103 23.3915 26.8833 22.5526 25.4737 22.5526H24.7332V21.2556H23.7746ZM24.7332 23.1868H25.3325C25.8683 23.1868 26.0092 23.5185 26.0092 23.7297C26.0092 24.0118 25.7836 24.2726 25.3325 24.2726H24.7332V23.1868ZM19.8374 21.2556V24.9071H20.7959V23.3422H22.3328V24.9071H23.2916V21.2556H22.3328V22.6371H20.7959V21.2556H19.8374ZM19.5432 23.3703V23.1519C19.5432 22.8276 19.5151 21.1992 17.8586 21.1992C16.8788 21.1992 16.0538 21.904 16.0538 23.0814C16.0538 24.3713 16.9281 24.9646 18.0208 24.9646C18.4579 24.9646 18.909 24.8788 19.2826 24.7379V24.0189C18.9371 24.174 18.5634 24.2726 18.1407 24.2726C17.4215 24.2726 17.0832 23.8355 17.0549 23.3703H19.5432ZM17.0549 22.7148C17.062 22.2354 17.3792 21.8617 17.8022 21.8617C18.1546 21.8617 18.5705 22.1016 18.5566 22.7148H17.0549ZM12.7371 21.2556V22.4398C12.7371 23.1446 12.6949 23.7017 12.2648 24.2021H11.856V25.8599H12.7371V24.9071H15.317V25.8599H16.1982V24.2021H15.5988V21.2556H12.7371ZM13.1953 24.2021C13.5899 23.6592 13.5828 23.0743 13.5828 22.5033V21.9604H14.6403V24.2021H13.1953ZM30.0032 21.2556V24.9071H31.0252L32.6395 22.334H32.6608L32.6327 23.0179V24.9071H33.5912V21.2556H32.5199L30.9478 23.8284H30.9337L30.9617 23.1729V21.2556H30.0032ZM35.3068 17.7339C35.3068 17.3794 35.2714 17.1044 35.2005 16.9092C35.0851 16.5988 34.8812 16.4437 34.5883 16.4437C34.2913 16.4437 34.0874 16.5967 33.9764 16.9027C33.9056 17.0976 33.8702 17.3747 33.8702 17.7339C33.8702 18.089 33.9056 18.3637 33.9764 18.5589C34.0919 18.8693 34.2958 19.0244 34.5883 19.0244C34.8856 19.0244 35.0895 18.8714 35.2005 18.5655C35.2714 18.3705 35.3068 18.0932 35.3068 17.7339Z" fill="#36404C"/>
<path d="M4.72551 17.7999C4.58224 17.7106 4.46731 17.7122 4.41693 17.7311C4.37206 17.7482 4.39593 17.8497 4.53999 18.0221C4.97242 18.5404 5.52162 19.2431 5.97321 19.9366C6.45392 20.675 6.82364 21.4031 6.82364 21.887C6.82364 22.3708 6.45392 23.099 5.97321 23.8371C5.52162 24.5309 4.97242 25.2336 4.53999 25.7516C4.39593 25.9242 4.37206 26.0258 4.41693 26.0426C4.46731 26.0617 4.58224 26.063 4.72551 25.9741C5.20412 25.676 5.93096 25.0704 6.58853 24.3787C7.38229 23.544 8.07502 22.5839 8.10913 21.887C8.07502 21.19 7.38229 20.2299 6.58853 19.3952C5.93096 18.7036 5.20412 18.0979 4.72551 17.7999Z" fill="#FEFEFE"/>
<path fill-rule="evenodd" clip-rule="evenodd" d="M6.20127 14.0285C6.34454 13.9393 6.45947 13.9406 6.50985 13.9597C6.55472 13.9765 6.53084 14.0781 6.38679 14.2507C5.95435 14.7687 5.40515 15.4714 4.95357 16.1652C4.47285 16.9036 4.10313 17.6315 4.10313 18.1153C4.10313 18.5992 4.47285 19.3274 4.95357 20.0658C5.40515 20.7593 5.95435 21.4622 6.38679 21.9802C6.53084 22.1526 6.55472 22.2542 6.50985 22.2712C6.45947 22.2904 6.34454 22.2917 6.20127 22.2025C5.72266 21.9044 4.99581 21.299 4.33798 20.6073C3.54449 19.7727 2.85149 18.8123 2.81738 18.1153C2.85149 17.4187 3.54449 16.4583 4.33798 15.6236C4.99581 14.9319 5.72266 14.3263 6.20127 14.0285Z" fill="#36404C"/>
</g>
<defs>
<clipPath id="clip0_1945_8214">
<rect width="40" height="40" fill="white"/>
</clipPath>
</defs>
</svg>
