<svg width="180" height="40" viewBox="0 0 180 40" fill="none" xmlns="http://www.w3.org/2000/svg">
  <path
    d="M47.352 13.44V30H43.68V13.44H47.352ZM53.496 19.8V22.56H47.16V19.8H53.496ZM56.904 13.44V30H53.232V13.44H56.904ZM63.5138 18.144V25.944C63.5138 26.44 63.6178 26.792 63.8258 27C64.0498 27.208 64.4018 27.312 64.8818 27.312C65.3778 27.312 65.8658 27.224 66.3458 27.048C66.8418 26.856 67.4498 26.56 68.1698 26.16L68.4578 28.104C67.5938 28.856 66.7458 29.416 65.9138 29.784C65.0818 30.152 64.2258 30.336 63.3458 30.336C61.0898 30.336 59.9618 29.232 59.9618 27.024V18.144H63.5138ZM71.3618 18.144V30H68.5538L68.1458 27.672L67.8098 27.336V18.144H71.3618ZM77.0443 18.144L77.4763 20.496L77.8123 20.808V30H74.2603V18.144H77.0443ZM82.8283 17.832L82.4923 21.12H81.5083C80.9483 21.12 80.3643 21.2 79.7563 21.36C79.1483 21.52 78.3803 21.76 77.4523 22.08L77.2123 20.088C78.0443 19.352 78.8843 18.792 79.7323 18.408C80.5803 18.024 81.4043 17.832 82.2043 17.832H82.8283ZM99.5265 17.832C100.599 17.832 101.415 18.112 101.975 18.672C102.535 19.232 102.815 20.048 102.815 21.12V30H99.2865V22.224C99.2865 21.728 99.1905 21.376 98.9985 21.168C98.8065 20.944 98.4705 20.832 97.9905 20.832C97.7025 20.832 97.4305 20.872 97.1745 20.952C96.9185 21.032 96.6225 21.16 96.2865 21.336C95.9505 21.512 95.5425 21.752 95.0625 22.056L94.8705 20.088C95.6385 19.336 96.3905 18.776 97.1265 18.408C97.8785 18.024 98.6785 17.832 99.5265 17.832ZM87.3345 18.144L87.6945 20.496L88.0545 20.808V30H84.5025V18.144H87.3345ZM92.1345 17.832C93.1905 17.832 93.9905 18.112 94.5345 18.672C95.0945 19.216 95.3745 20.032 95.3745 21.12V30H91.9665V22.224C91.9665 21.712 91.8545 21.352 91.6305 21.144C91.4225 20.936 91.0945 20.832 90.6465 20.832C90.3745 20.832 90.1025 20.872 89.8305 20.952C89.5745 21.016 89.2705 21.136 88.9185 21.312C88.5825 21.488 88.1665 21.736 87.6705 22.056L87.4545 20.088C88.2385 19.336 88.9985 18.776 89.7345 18.408C90.4705 18.024 91.2705 17.832 92.1345 17.832ZM111.907 17.832C112.899 17.832 113.739 17.968 114.427 18.24C115.115 18.496 115.635 18.944 115.987 19.584C116.355 20.208 116.539 21.072 116.539 22.176V30H113.707L113.203 27.432L112.963 27.072V22.152C112.963 21.592 112.827 21.184 112.555 20.928C112.299 20.672 111.803 20.544 111.067 20.544C110.459 20.544 109.699 20.568 108.787 20.616C107.875 20.648 106.939 20.696 105.979 20.76L105.643 18.408C106.219 18.296 106.883 18.2 107.635 18.12C108.387 18.04 109.139 17.976 109.891 17.928C110.643 17.864 111.315 17.832 111.907 17.832ZM115.075 22.704L115.051 24.696L109.771 24.72C109.339 24.72 109.027 24.824 108.835 25.032C108.659 25.24 108.571 25.52 108.571 25.872V26.448C108.571 26.848 108.683 27.16 108.907 27.384C109.131 27.592 109.491 27.696 109.987 27.696C110.403 27.696 110.851 27.608 111.331 27.432C111.827 27.256 112.315 27.008 112.795 26.688C113.275 26.368 113.699 25.992 114.067 25.56V27.096C113.923 27.336 113.707 27.64 113.419 28.008C113.147 28.36 112.795 28.712 112.363 29.064C111.931 29.4 111.427 29.688 110.851 29.928C110.275 30.168 109.619 30.288 108.883 30.288C108.163 30.288 107.515 30.16 106.939 29.904C106.363 29.648 105.907 29.272 105.571 28.776C105.235 28.28 105.067 27.664 105.067 26.928V25.704C105.067 24.76 105.387 24.024 106.027 23.496C106.667 22.968 107.547 22.704 108.667 22.704H115.075ZM124.779 18.072C125.099 18.072 125.467 18.088 125.883 18.12C126.299 18.152 126.723 18.208 127.155 18.288C127.587 18.352 127.987 18.448 128.355 18.576L128.139 19.584C127.643 19.52 127.099 19.472 126.507 19.44C125.915 19.408 125.419 19.392 125.019 19.392C124.011 19.392 123.203 19.536 122.595 19.824C122.003 20.096 121.571 20.584 121.299 21.288C121.043 21.976 120.915 22.936 120.915 24.168C120.915 25.4 121.043 26.368 121.299 27.072C121.571 27.776 122.003 28.272 122.595 28.56C123.203 28.832 124.011 28.968 125.019 28.968C125.259 28.968 125.571 28.96 125.955 28.944C126.339 28.928 126.747 28.904 127.179 28.872C127.611 28.84 128.019 28.792 128.403 28.728L128.595 29.76C128.019 29.936 127.395 30.064 126.723 30.144C126.067 30.24 125.411 30.288 124.755 30.288C123.443 30.288 122.387 30.088 121.587 29.688C120.787 29.288 120.203 28.648 119.835 27.768C119.483 26.872 119.307 25.672 119.307 24.168C119.307 22.68 119.483 21.488 119.835 20.592C120.203 19.696 120.787 19.056 121.587 18.672C122.387 18.272 123.451 18.072 124.779 18.072ZM132.731 18.36L132.923 20.568L133.067 20.928V30H131.555V18.36H132.731ZM138.539 18.072L138.347 19.512H137.771C137.019 19.512 136.275 19.68 135.539 20.016C134.819 20.336 133.947 20.8 132.923 21.408L132.803 20.4C133.699 19.68 134.587 19.112 135.467 18.696C136.347 18.28 137.203 18.072 138.035 18.072H138.539ZM145.257 18.072C146.921 18.072 148.137 18.376 148.905 18.984C149.689 19.592 150.089 20.496 150.105 21.696C150.121 22.736 149.921 23.536 149.505 24.096C149.089 24.656 148.393 24.936 147.417 24.936H140.673V23.736H147.081C147.673 23.736 148.073 23.544 148.281 23.16C148.489 22.776 148.585 22.296 148.569 21.72C148.553 20.888 148.289 20.296 147.777 19.944C147.265 19.576 146.449 19.392 145.329 19.392C144.401 19.392 143.665 19.536 143.121 19.824C142.577 20.112 142.193 20.6 141.969 21.288C141.745 21.96 141.633 22.88 141.633 24.048C141.633 25.344 141.769 26.352 142.041 27.072C142.313 27.776 142.745 28.272 143.337 28.56C143.929 28.832 144.705 28.968 145.665 28.968C146.337 28.968 147.033 28.944 147.753 28.896C148.489 28.832 149.129 28.76 149.673 28.68L149.841 29.712C149.505 29.84 149.073 29.944 148.545 30.024C148.033 30.104 147.497 30.168 146.937 30.216C146.393 30.264 145.905 30.288 145.473 30.288C144.161 30.288 143.105 30.088 142.305 29.688C141.521 29.272 140.945 28.616 140.577 27.72C140.209 26.808 140.025 25.616 140.025 24.144C140.025 22.624 140.201 21.424 140.553 20.544C140.921 19.664 141.489 19.032 142.257 18.648C143.025 18.264 144.025 18.072 145.257 18.072ZM157.214 18.072C157.982 18.072 158.75 18.176 159.518 18.384C160.286 18.592 161.038 18.896 161.774 19.296L161.702 20.304C160.87 20.032 160.134 19.816 159.494 19.656C158.87 19.496 158.214 19.416 157.526 19.416C156.79 19.416 156.19 19.56 155.726 19.848C155.278 20.12 154.95 20.6 154.742 21.288C154.534 21.976 154.43 22.928 154.43 24.144C154.43 25.36 154.534 26.32 154.742 27.024C154.95 27.712 155.27 28.208 155.702 28.512C156.15 28.8 156.726 28.944 157.43 28.944C157.926 28.944 158.374 28.88 158.774 28.752C159.19 28.608 159.63 28.384 160.094 28.08C160.558 27.776 161.094 27.4 161.702 26.952L161.822 28.104C161.102 28.744 160.342 29.272 159.542 29.688C158.742 30.088 157.894 30.288 156.998 30.288C155.526 30.288 154.47 29.792 153.83 28.8C153.19 27.792 152.87 26.248 152.87 24.168C152.87 22.664 153.022 21.472 153.326 20.592C153.646 19.696 154.118 19.056 154.742 18.672C155.382 18.272 156.206 18.072 157.214 18.072ZM163.022 13.2V30H161.846L161.654 27.96L161.51 27.816V19.776L161.63 19.416C161.566 18.968 161.526 18.552 161.51 18.168C161.51 17.784 161.51 17.368 161.51 16.92V13.2H163.022ZM168.67 18.36V30H167.182V18.36H168.67ZM168.286 13.464C168.622 13.464 168.79 13.632 168.79 13.968V15.384C168.79 15.72 168.622 15.888 168.286 15.888H167.566C167.23 15.888 167.062 15.72 167.062 15.384V13.968C167.062 13.632 167.23 13.464 167.566 13.464H168.286ZM175.109 14.856V27.096C175.109 27.688 175.245 28.12 175.517 28.392C175.805 28.664 176.237 28.8 176.813 28.8H178.709L178.901 29.928C178.661 29.992 178.381 30.04 178.061 30.072C177.757 30.12 177.461 30.152 177.173 30.168C176.885 30.184 176.653 30.192 176.477 30.192C175.533 30.192 174.813 29.944 174.317 29.448C173.837 28.952 173.597 28.232 173.597 27.288V14.856H175.109ZM179.045 18.36V19.608H171.485V18.48L173.765 18.36H179.045Z"
    fill="#0B161F" />
  <path
    d="M7.6377 11.252L7.9786 3.36301L14.1013 7.08317L20.1477 2.25888L22.9628 9.44877L30.1323 9.27701L26.4683 16.2789L7.6377 11.252Z"
    fill="url(#paint0_radial_38_1239)" />
  <path
    d="M9.78795 3.25658C9.54289 4.16776 8.60034 4.70783 7.68271 4.46286C6.76507 4.2179 6.21984 3.28066 6.4649 2.36948C6.70996 1.4583 7.65251 0.918229 8.57015 1.1632C9.48778 1.40816 10.033 2.3454 9.78795 3.25658Z"
    fill="url(#paint1_radial_38_1239)" />
  <path
    d="M21.9569 2.15239C21.7118 3.06357 20.7693 3.60364 19.8517 3.35868C18.934 3.11371 18.3888 2.17647 18.6338 1.26529C18.8789 0.354113 19.8215 -0.185958 20.7391 0.059008C21.6567 0.303974 22.202 1.24121 21.9569 2.15239Z"
    fill="url(#paint2_radial_38_1239)" />
  <path
    d="M31.9413 9.17046C31.6962 10.0816 30.7537 10.6217 29.836 10.3767C28.9184 10.1318 28.3732 9.19454 28.6182 8.28336C28.8633 7.37218 29.8058 6.83211 30.7235 7.07707C31.6411 7.32204 32.1863 8.25928 31.9413 9.17046Z"
    fill="url(#paint3_radial_38_1239)" />
  <g filter="url(#filter0_i_38_1239)">
    <path
      d="M29.116 25.7675C27.0047 33.6177 17.9667 41.7675 10.0873 39.664C2.20787 37.5606 -1.52919 26.0005 0.58209 18.1503C2.69338 10.3002 9.71937 9.63141 17.5988 11.7349C25.4782 13.8383 31.2273 17.9174 29.116 25.7675Z"
      fill="url(#paint4_radial_38_1239)" />
  </g>
  <defs>
    <filter id="filter0_i_38_1239" x="0" y="10.709" width="29.5566" height="29.2911" filterUnits="userSpaceOnUse"
      color-interpolation-filters="sRGB">
      <feFlood flood-opacity="0" result="BackgroundImageFix" />
      <feBlend mode="normal" in="SourceGraphic" in2="BackgroundImageFix" result="shape" />
      <feColorMatrix in="SourceAlpha" type="matrix" values="0 0 0 0 0 0 0 0 0 0 0 0 0 0 0 0 0 0 127 0"
        result="hardAlpha" />
      <feOffset />
      <feGaussianBlur stdDeviation="3" />
      <feComposite in2="hardAlpha" operator="arithmetic" k2="-1" k3="1" />
      <feColorMatrix type="matrix" values="0 0 0 0 1 0 0 0 0 0.9 0 0 0 0 0 0 0 0 1 0" />
      <feBlend mode="normal" in2="shape" result="effect1_innerShadow_38_1239" />
    </filter>
    <radialGradient id="paint0_radial_38_1239" cx="0" cy="0" r="1" gradientUnits="userSpaceOnUse"
      gradientTransform="translate(18.9095 5.3659) rotate(114.098) scale(10.6875 24.0923)">
      <stop stop-color="#5ED30A" />
      <stop offset="1" stop-color="#3C8D02" />
    </radialGradient>
    <radialGradient id="paint1_radial_38_1239" cx="0" cy="0" r="1" gradientUnits="userSpaceOnUse"
      gradientTransform="translate(8.50197 1.41707) rotate(105.053) scale(3.9426 8.32793)">
      <stop stop-color="#5ED30A" />
      <stop offset="1" stop-color="#3C8D02" />
    </radialGradient>
    <radialGradient id="paint2_radial_38_1239" cx="0" cy="0" r="1" gradientUnits="userSpaceOnUse"
      gradientTransform="translate(20.6712 0.312847) rotate(105.053) scale(3.9426 8.32793)">
      <stop stop-color="#5ED30A" />
      <stop offset="1" stop-color="#3C8D02" />
    </radialGradient>
    <radialGradient id="paint3_radial_38_1239" cx="0" cy="0" r="1" gradientUnits="userSpaceOnUse"
      gradientTransform="translate(30.6553 7.33088) rotate(105.053) scale(3.9426 8.32793)">
      <stop stop-color="#5ED30A" />
      <stop offset="1" stop-color="#3C8D02" />
    </radialGradient>
    <radialGradient id="paint4_radial_38_1239" cx="0" cy="0" r="1" gradientUnits="userSpaceOnUse"
      gradientTransform="translate(13.7557 16.7469) rotate(110.81) scale(21.3184 21.4771)">
      <stop stop-color="#FD8601" />
      <stop offset="1" stop-color="#E12F00" />
    </radialGradient>
  </defs>
</svg>