<svg width="105" height="63" viewBox="0 0 105 63" fill="none" xmlns="http://www.w3.org/2000/svg">
<path d="M93.8002 2.05619C93.9067 1.3238 93.5728 0.511338 92.7499 0.272968H67.3126C67.3126 0.272968 67.2257 0.261141 67.0947 0.26569C64.9944 0.366224 65.5666 2.10578 66.0598 2.6976L79.0618 18.2094L93.1443 3.14659C93.1447 3.14614 93.7256 2.56432 93.8002 2.05619Z" fill="url(#paint0_linear)"/>
<path d="M104.589 13.4343C104.589 13.4343 102.235 10.6311 99.7231 7.66244C96.9955 4.43308 94.0832 1.0072 93.8176 0.769737C93.4091 0.405359 93.1061 0.299822 92.9291 0.273438H92.7504C93.5733 0.511807 93.9072 1.32426 93.8007 2.05666C93.7261 2.56479 93.1452 3.14661 93.1452 3.14661L79.0623 18.2094L73.3665 24.301L69.8551 27.8956C69.1017 28.5239 69.0003 29.6425 69.6285 30.3953L78.2967 40.7562C78.924 41.5105 80.0426 41.6119 80.7959 40.9837L104.362 15.9339C105.115 15.3062 105.216 14.1876 104.589 13.4343Z" fill="url(#paint1_linear)"/>
<path d="M4.32158 38.5863C3.86668 38.5863 3.4227 38.5376 2.99099 38.4389C2.55883 38.3402 2.16807 38.2383 1.81961 38.1314V36.8804H3.41178C3.79071 36.8804 4.12416 36.7976 4.41257 36.6307C4.70052 36.4637 4.95845 36.1608 5.1859 35.7209C5.41335 35.281 5.61806 34.6441 5.80002 33.8098C4.90523 33.8098 4.16601 33.5523 3.58237 33.0369C2.99827 32.5215 2.60023 31.8696 2.38824 31.0804L0 22.4372H2.72942L5.04943 30.8529C5.14041 31.1868 5.28416 31.4593 5.48159 31.6718C5.67856 31.8842 5.89874 31.9897 6.1412 31.9897L8.07454 22.4368H10.804L8.30199 34.7192C8.04406 36.0234 7.58552 36.9937 6.92591 37.6305C6.2663 38.2683 5.39789 38.5863 4.32158 38.5863Z" fill="white"/>
<path d="M11.4772 38.3588L12.2733 26.9862H15.2301L17.8003 33.9235H17.8913L20.4615 26.9862H23.4184L24.2145 38.3588H21.5988L21.0984 31.1941H21.0074L18.9831 36.6529H16.7086L14.6842 31.1941H14.5933L14.0929 38.3588H11.4772Z" fill="white"/>
<path d="M26.4933 38.3588V26.9862H29.2227V31.7627H32.2933V26.9862H35.0227V38.3588H32.2933V33.4686H29.2227V38.3588H26.4933Z" fill="white"/>
<path d="M41.6005 38.5862C40.7512 38.5862 40.0197 38.5526 39.4056 38.4839C38.7915 38.4152 38.1965 38.2983 37.6201 38.1313V26.9862H40.3495V31.3078C40.6375 31.2473 40.9596 31.1941 41.3162 31.1486C41.6724 31.1031 41.9945 31.0803 42.2829 31.0803C43.0107 31.0803 43.6553 31.1791 44.2162 31.376C44.7771 31.5735 45.2206 31.941 45.5468 32.4796C45.873 33.0182 46.0358 33.8025 46.0358 34.8333C46.0358 35.8495 45.8652 36.6306 45.5241 37.176C45.1829 37.7215 44.6825 38.094 44.0229 38.2901C43.3633 38.4875 42.5558 38.5862 41.6005 38.5862ZM40.3495 36.9941H41.6005C41.8735 36.9941 42.1387 36.9336 42.3966 36.8121C42.6541 36.6911 42.8706 36.4709 43.0448 36.153C43.2191 35.835 43.3064 35.3951 43.3064 34.8337C43.3064 34.3033 43.2191 33.8903 43.0448 33.5941C42.8706 33.2984 42.6545 33.0906 42.3966 32.9686C42.1387 32.8476 41.8735 32.7867 41.6005 32.7867H40.3495V36.9941ZM47.2868 38.3588V26.9862H50.0162V38.3588H47.2868Z" fill="white"/>
<path d="M57.2486 38.5862C56.0814 38.5862 55.1179 38.3933 54.36 38.0062C53.6017 37.6195 53.0408 36.994 52.6769 36.1297C52.3129 35.2663 52.131 34.1136 52.131 32.6724C52.131 31.2322 52.3016 30.0795 52.6427 29.2156C52.9839 28.3513 53.4766 27.7258 54.1212 27.3392C54.7658 26.952 55.5428 26.7592 56.4526 26.7592C57.3624 26.7592 58.1398 26.9525 58.7839 27.3392C59.4285 27.7258 59.9212 28.3513 60.2624 29.2156C60.6036 30.0795 60.7742 31.2322 60.7742 32.6724V33.4685H54.8604C54.8604 34.7727 55.0915 35.6862 55.5541 36.2093C56.0168 36.7325 56.7332 36.994 57.7036 36.994H60.2055V38.1313C59.8725 38.2377 59.4395 38.3401 58.909 38.4388C58.3782 38.5375 57.825 38.5862 57.2486 38.5862ZM54.8604 31.8764H58.0447C58.0447 30.891 57.977 30.1364 57.8405 29.6137C57.7036 29.0905 57.5143 28.7307 57.2719 28.5333C57.0294 28.3359 56.756 28.2376 56.4526 28.2376C56.1496 28.2376 55.8762 28.3363 55.6342 28.5333C55.3913 28.7307 55.2016 29.0905 55.0656 29.6137C54.9286 30.1368 54.8604 30.8915 54.8604 31.8764Z" fill="white"/>
<path d="M1.59229 62.0138V46.0922H4.32171V53.0294H8.41584V46.0922H11.1453V62.0138H8.41584V54.8491H4.32171V62.0138H1.59229Z" fill="white"/>
<path d="M16.6949 62.2412C16.0581 62.2412 15.4703 62.1425 14.9322 61.9455C14.3936 61.749 13.9655 61.3882 13.6471 60.8651C13.3287 60.3429 13.1694 59.5882 13.1694 58.602C13.1694 57.6166 13.3323 56.8624 13.6585 56.3388C13.9846 55.8152 14.4318 55.4558 15.0004 55.2584C15.5691 55.061 16.2096 54.9627 16.9224 54.9627C17.2713 54.9627 17.6084 54.9859 17.9345 55.031C18.2603 55.0765 18.5673 55.1297 18.8557 55.1902V54.2804C18.8557 53.3706 18.6433 52.7646 18.2189 52.4608C17.794 52.1578 17.2103 52.0059 16.4675 52.0059H14.193V50.8686C14.5419 50.7476 14.9699 50.6411 15.4781 50.5506C15.9862 50.4592 16.4675 50.4137 16.9224 50.4137C17.9537 50.4137 18.8139 50.5161 19.504 50.7212C20.1941 50.9255 20.7131 51.3049 21.062 51.8585C21.4105 52.4121 21.5852 53.2195 21.5852 54.2804V62.0137H19.6518L19.3106 61.3314H19.1969C18.954 61.5588 18.6319 61.7676 18.2302 61.9569C17.8281 62.1461 17.3163 62.2412 16.6949 62.2412ZM17.6047 60.649C17.8927 60.649 18.1465 60.6004 18.3667 60.5016C18.5864 60.4029 18.7497 60.301 18.8557 60.1941V56.5549H17.6047C17.3468 56.5549 17.0852 56.6163 16.82 56.7369C16.5548 56.8588 16.3347 57.0667 16.1604 57.3623C15.9862 57.658 15.8989 58.0715 15.8989 58.602C15.8989 59.1333 15.9857 59.5463 16.1604 59.8416C16.3347 60.1373 16.5548 60.3461 16.82 60.4671C17.0852 60.5885 17.3468 60.649 17.6047 60.649Z" fill="white"/>
<path d="M24.5784 62.2413C24.184 62.2413 23.8428 62.2031 23.5549 62.1276C23.2665 62.052 23.115 62.0138 23.1 62.0138V60.8766C23.4939 60.8766 23.8619 60.6873 24.2031 60.3079C24.5443 59.9295 24.7449 59.2844 24.8059 58.3746L25.2608 50.6412H32.9941V62.0138H30.2647V52.3471H27.8992L27.5353 58.3746C27.4593 59.6788 27.1486 60.6491 26.6027 61.286C26.0568 61.9233 25.3818 62.2413 24.5784 62.2413Z" fill="white"/>
<path d="M35.5896 62.0138V50.6412H38.2053V57.5785H38.319L41.2759 50.6412H44.2328V62.0138H41.6171V54.8491H41.5033L38.319 62.0138H35.5896Z" fill="white"/>
<path d="M52.0156 62.0138V57.9197C51.7272 57.9811 51.3746 58.0334 50.9579 58.0789C50.5408 58.1253 50.135 58.1471 49.7411 58.1471C49.1042 58.1471 48.5165 58.053 47.9783 57.8628C47.4397 57.6736 47.0117 57.321 46.6932 56.8056C46.3748 56.2902 46.2156 55.5628 46.2156 54.6216V50.6412H48.945V54.6216C48.945 55.3654 49.1383 55.8726 49.525 56.1456C49.9117 56.4194 50.3625 56.555 50.8783 56.555H52.0156V50.6412H54.745V62.0138H52.0156Z" fill="white"/>
<path d="M57.3425 62.0138V50.6412H60.072V55.4177H63.1426V50.6412H65.872V62.0138H63.1426V57.1236H60.072V62.0138H57.3425Z" fill="white"/>
<path d="M72.4499 62.2413C71.6006 62.2413 70.8686 62.2076 70.2545 62.1389C69.6404 62.0707 69.0454 61.9533 68.4695 61.7864V50.6412H71.1989V54.9628C71.4869 54.9023 71.8089 54.8491 72.1656 54.8036C72.5213 54.7581 72.8434 54.7354 73.1322 54.7354C73.8601 54.7354 74.5042 54.8341 75.0656 55.0311C75.626 55.2285 76.0696 55.596 76.3957 56.1347C76.7219 56.6733 76.8852 57.4575 76.8852 58.4883C76.8852 59.5046 76.7146 60.2857 76.3734 60.8311C76.0323 61.3765 75.5314 61.7491 74.8718 61.9451C74.2126 62.1426 73.4052 62.2413 72.4499 62.2413ZM71.1989 60.6491H72.4499C72.7228 60.6491 72.9876 60.5886 73.246 60.4672C73.5034 60.3462 73.7195 60.126 73.8938 59.808C74.068 59.49 74.1558 59.0501 74.1558 58.4888C74.1558 57.9584 74.068 57.5453 73.8938 57.2492C73.7195 56.953 73.5039 56.7456 73.246 56.6237C72.9876 56.5027 72.7228 56.4417 72.4499 56.4417H71.1989V60.6491ZM78.1362 62.0138V50.6412H80.8656V62.0138H78.1362Z" fill="white"/>
<path d="M88.0976 62.2412C86.9304 62.2412 85.9669 62.0483 85.209 61.6612C84.4507 61.2745 83.8898 60.649 83.5263 59.7847C83.1619 58.9213 82.98 57.7686 82.98 56.3274C82.98 54.8872 83.1506 53.7349 83.4917 52.8702C83.8329 52.0054 84.326 51.3804 84.9702 50.9937C85.6148 50.607 86.3918 50.4137 87.3016 50.4137C88.2114 50.4137 88.9888 50.6075 89.6329 50.9937C90.2775 51.3804 90.7702 52.0059 91.1114 52.8702C91.4526 53.7345 91.6231 54.8872 91.6231 56.3274V57.1235H85.7094C85.7094 58.4277 85.9405 59.3412 86.4031 59.8643C86.8658 60.3875 87.5822 60.649 88.5526 60.649H91.0545V61.7863C90.7215 61.8927 90.2885 61.9951 89.758 62.0938C89.2276 62.1925 88.6745 62.2412 88.0976 62.2412ZM85.7094 55.5314H88.8937C88.8937 54.546 88.826 53.7918 88.6895 53.2682C88.5526 52.7451 88.3633 52.3852 88.1209 52.1878C87.8784 51.9904 87.605 51.8921 87.3016 51.8921C86.9986 51.8921 86.7252 51.9908 86.4832 52.1878C86.2403 52.3852 86.0506 52.7451 85.9146 53.2682C85.7781 53.7918 85.7094 54.546 85.7094 55.5314Z" fill="white"/>
<defs>
<linearGradient id="paint0_linear" x1="79.7082" y1="17.8648" x2="79.7082" y2="0.332515" gradientUnits="userSpaceOnUse">
<stop offset="0.0044" stop-color="#09738C"/>
<stop offset="0.9959" stop-color="#009CA3"/>
</linearGradient>
<linearGradient id="paint1_linear" x1="67.4499" y1="20.8345" x2="103.933" y2="20.8345" gradientUnits="userSpaceOnUse">
<stop stop-color="#A8E4B6"/>
<stop offset="0.9959" stop-color="#009CA3"/>
</linearGradient>
</defs>
</svg>
