<svg width="40" height="40" viewBox="0 0 40 40" fill="none" xmlns="http://www.w3.org/2000/svg">
<rect width="40" height="40" fill="white"/>
<g clip-path="url(#clip0_73_52)">
<mask id="mask0_73_52" style="mask-type:luminance" maskUnits="userSpaceOnUse" x="1" y="5" width="39" height="29">
<path d="M40 5H1V34H40V5Z" fill="white"/>
</mask>
<g mask="url(#mask0_73_52)">
<path d="M17.6507 6.08008V25.6106H13.3445L6.47699 15.3495H6.36562V25.6106H1.20569V6.08008H5.58607L12.3423 16.3031H12.4907V6.08008H17.6507Z" fill="#33736F"/>
<path d="M28.3982 25.6106H21.0852V6.08008H28.3239C30.279 6.08008 31.9681 6.47108 33.3911 7.25306C34.8203 8.02869 35.9215 9.14763 36.695 10.6099C37.4745 12.0658 37.8643 13.8109 37.8643 15.8454C37.8643 17.8798 37.4776 19.6281 36.7042 21.0904C35.9308 22.5463 34.8357 23.6652 33.419 24.4472C32.0021 25.2228 30.3286 25.6106 28.3982 25.6106ZM26.2452 21.1095H28.2126C29.153 21.1095 29.9542 20.9537 30.6162 20.6422C31.2844 20.3306 31.7917 19.7935 32.1383 19.0305C32.4909 18.2676 32.6672 17.2059 32.6672 15.8454C32.6672 14.4848 32.4878 13.4231 32.129 12.6601C31.7763 11.8973 31.2566 11.36 30.5699 11.0485C29.8893 10.737 29.0541 10.5812 28.0641 10.5812H26.2452V21.1095Z" fill="#33736F"/>
<g opacity="0.7">
<mask id="mask1_73_52" style="mask-type:luminance" maskUnits="userSpaceOnUse" x="13" y="9" width="14" height="12">
<path d="M26.2113 9.16797H13.4973V20.781H26.2113V9.16797Z" fill="white"/>
</mask>
<g mask="url(#mask1_73_52)">
<g opacity="0.8">
<path d="M13.4973 12.0382L16.1037 17.1326L17.868 17.6909C18.723 17.9442 20.8935 16.6193 18.3896 14.1417C16.2646 12.0382 14.7272 11.7677 13.4973 12.0382Z" fill="#FEFEFE"/>
<path d="M20.6054 19.2911L26.2113 9.17945C20.909 8.92745 19.0915 12.8851 18.0808 15.0828C17.2726 16.8414 16.2632 16.8626 15.8598 16.6531C15.7586 16.4648 15.8896 16.7287 17.2233 19.2911C18.557 21.8535 20.0333 20.3588 20.6054 19.2911Z" fill="#FEFEFE"/>
<path d="M21.7887 17.1649C21.7446 17.157 21.7004 17.1491 21.6577 17.1398C20.6522 16.9528 20.2461 15.9116 18.4805 14.2246C18.4207 14.3665 18.3234 14.5416 18.1873 14.8002C17.763 15.6079 17.4451 16.2153 16.8406 16.4767C16.6616 16.5536 16.3242 16.6583 15.8209 16.5681C16.6642 18.4913 17.1182 19.287 17.3777 19.6849C18.6854 21.6916 19.9503 20.4807 20.4264 19.6849L21.7887 17.1649Z" fill="#FEFEFE"/>
</g>
<g opacity="0.6">
<path d="M13.4973 12.0382L16.1037 17.1326L17.868 17.6909C18.723 17.9442 20.8935 16.6193 18.3896 14.1417C16.2646 12.0382 14.7272 11.7677 13.4973 12.0382Z" fill="url(#paint0_linear_73_52)"/>
<path d="M20.6057 19.2911L26.2116 9.17945C20.9093 8.92745 19.0917 12.8851 18.0811 15.0828C17.2729 16.8415 16.2635 16.8626 15.86 16.6531C15.7588 16.4648 15.8899 16.7287 17.2235 19.2911C18.5572 21.8535 20.0336 20.3588 20.6057 19.2911Z" fill="url(#paint1_linear_73_52)"/>
<path d="M21.7896 17.165C21.7454 17.157 21.7014 17.1491 21.6585 17.1398C20.6531 16.9528 20.247 15.9116 18.4813 14.2246C18.4216 14.3665 18.3243 14.5416 18.1881 14.8002C17.7639 15.6079 17.4461 16.2153 16.8415 16.4767C16.6624 16.5536 16.3251 16.6584 15.8218 16.5681C16.665 18.4913 17.1191 19.287 17.3786 19.6849C18.6863 21.6916 19.9512 20.4807 20.4274 19.6849L21.7896 17.165Z" fill="url(#paint2_linear_73_52)"/>
</g>
</g>
</g>
<path d="M1.45868 32.5117V28.1977H2.3582V29.9776H4.18425V28.1977H5.08169V32.5117H4.18425V30.7296H2.3582V32.5117H1.45868ZM6.32265 32.5117H5.35874L6.82746 28.1977H7.98669L9.45335 32.5117H8.4894L7.42368 29.1835H7.39045L6.32265 32.5117ZM6.26241 30.816H8.53925V31.528H6.26241V30.816ZM9.5008 33.5523V31.785H9.78959C9.88787 31.7134 9.9779 31.6123 10.0596 31.4816C10.1414 31.3496 10.2113 31.1678 10.2694 30.9361C10.3276 30.7029 10.3692 30.3982 10.3941 30.0219L10.5146 28.1977H13.3295V31.785H13.7948V33.5481H12.9307V32.5117H10.365V33.5523H9.5008ZM10.8283 31.785H12.4653V28.9497H11.3248L11.2583 30.0219C11.2403 30.3069 11.2105 30.5597 11.169 30.7802C11.1288 31.0006 11.0796 31.1938 11.0215 31.3595C10.9647 31.5238 10.9003 31.6656 10.8283 31.785ZM18.0174 30.3547C18.0174 30.8251 17.9295 31.2254 17.7536 31.5554C17.5791 31.8854 17.3408 32.1374 17.0389 32.3116C16.7384 32.4843 16.4005 32.5707 16.0252 32.5707C15.6471 32.5707 15.3078 32.4836 15.0072 32.3095C14.7067 32.1353 14.4692 31.8833 14.2947 31.5533C14.1202 31.2233 14.0329 30.8237 14.0329 30.3547C14.0329 29.8843 14.1202 29.484 14.2947 29.154C14.4692 28.824 14.7067 28.5726 15.0072 28.3999C15.3078 28.2257 15.6471 28.1387 16.0252 28.1387C16.4005 28.1387 16.7384 28.2257 17.0389 28.3999C17.3408 28.5726 17.5791 28.824 17.7536 29.154C17.9295 29.484 18.0174 29.8843 18.0174 30.3547ZM17.1054 30.3547C17.1054 30.05 17.0604 29.793 16.9704 29.5837C16.8817 29.3745 16.7564 29.2158 16.5944 29.1077C16.4323 28.9995 16.2426 28.9455 16.0252 28.9455C15.8077 28.9455 15.618 28.9995 15.456 29.1077C15.2939 29.2158 15.1679 29.3745 15.0779 29.5837C14.9892 29.793 14.9449 30.05 14.9449 30.3547C14.9449 30.6594 14.9892 30.9164 15.0779 31.1257C15.1679 31.3349 15.2939 31.4936 15.456 31.6017C15.618 31.7098 15.8077 31.7639 16.0252 31.7639C16.2426 31.7639 16.4323 31.7098 16.5944 31.6017C16.7564 31.4936 16.8817 31.3349 16.9704 31.1257C17.0604 30.9164 17.1054 30.6594 17.1054 30.3547Z" fill="#6D8B87"/>
<path d="M20.2761 33.0285V31.2611H20.5649C20.6633 31.1895 20.7533 31.0884 20.835 30.9578C20.9167 30.8258 20.9866 30.644 21.0448 30.4122C21.103 30.1792 21.1445 29.8744 21.1694 29.4981L21.2899 27.6738H24.1048V31.2611H24.5702V33.0243H23.706V31.9879H21.1404V33.0285H20.2761ZM21.6036 31.2611H23.2406V28.4259H22.1001L22.0337 29.4981C22.0157 29.7831 21.9859 30.0359 21.9443 30.2563C21.9042 30.4769 21.855 30.6699 21.7968 30.8356C21.7401 30.9999 21.6756 31.1418 21.6036 31.2611ZM24.8831 31.9879V27.6738H27.7499V28.4259H25.7825V29.4538H27.6024V30.2058H25.7825V31.2359H27.7582V31.9879H24.8831ZM28.231 31.9879V27.6738H29.1306V29.4538H30.9566V27.6738H31.8541V31.9879H30.9566V30.2058H29.1306V31.9879H28.231ZM32.3617 31.9879V27.6738H35.2285V28.4259H33.2612V29.4538H35.081V30.2058H33.2612V31.2359H35.2368V31.9879H32.3617ZM38.5329 27.6738V28.4259H36.6092V31.9879H35.7097V27.6738H38.5329Z" fill="#6D8B87"/>
</g>
</g>
<defs>
<linearGradient id="paint0_linear_73_52" x1="15.2565" y1="11.9573" x2="16.5502" y2="16.4917" gradientUnits="userSpaceOnUse">
<stop stop-color="#5BE8D0"/>
<stop offset="1" stop-color="#159580"/>
</linearGradient>
<linearGradient id="paint1_linear_73_52" x1="20.1207" y1="11.9567" x2="22.3786" y2="17.636" gradientUnits="userSpaceOnUse">
<stop stop-color="#4AECD1"/>
<stop offset="1" stop-color="#00E8C1"/>
</linearGradient>
<linearGradient id="paint2_linear_73_52" x1="18.4656" y1="16.2413" x2="20.1864" y2="20.7126" gradientUnits="userSpaceOnUse">
<stop stop-color="#23C0A6"/>
<stop offset="1" stop-color="#20E5C4"/>
</linearGradient>
<clipPath id="clip0_73_52">
<rect width="39" height="29" fill="white" transform="translate(1 5)"/>
</clipPath>
</defs>
</svg>
