<svg width="41" height="40" viewBox="0 0 41 40" fill="none" xmlns="http://www.w3.org/2000/svg">
<path fill-rule="evenodd" clip-rule="evenodd" d="M31.1 2.52332C34.5373 4.29851 36.5493 8.39333 36.7175 11.2614C35.2538 6.68632 32.6203 4.57174 29.8641 3.33339C28.9071 4.0364 28.6489 4.21619 28.6489 4.21619L26.6364 3.76065C26.6364 3.76065 26.5288 3.42581 26.1585 2.3208C18.4658 1.9097 12.6552 6.69742 9.29114 12.3467C9.94698 13.4063 10.1759 13.828 10.1759 13.828L9.03549 16.4451C9.03549 16.4451 8.62824 16.5107 7.34992 16.6395C3.28505 30.1866 11.9054 35.4566 11.9054 35.4566L13.6344 34.6475L15.658 35.5672C15.658 35.5672 15.7353 35.8854 16.0182 37.251C20.6046 38.4121 26.9512 36.6934 32.1651 31.5325C28.2553 38.0272 18.2975 41.009 11.8422 37.5338C3.96716 33.2956 2.0906 21.7748 7.51009 12.0558C12.9296 2.33747 23.5639 -1.36949 31.1 2.52332Z" fill="#C51617"/>
<path fill-rule="evenodd" clip-rule="evenodd" d="M19.986 3.92188C20.2221 3.92188 20.413 4.11328 20.413 4.34963C20.413 4.58549 20.2221 4.7769 19.986 4.7769C19.7501 4.7769 19.5586 4.58549 19.5586 4.34963C19.5591 4.11328 19.7501 3.92188 19.986 3.92188Z" fill="#C51617"/>
<path fill-rule="evenodd" clip-rule="evenodd" d="M22.2731 35.3945C22.5092 35.3945 22.7001 35.5859 22.7001 35.8218C22.7001 36.0582 22.5092 36.249 22.2731 36.249C22.0372 36.249 21.8457 36.0577 21.8457 35.8218C21.8457 35.5859 22.0367 35.3945 22.2731 35.3945Z" fill="#C51617"/>
<path fill-rule="evenodd" clip-rule="evenodd" d="M13.9865 8.08984C14.2619 8.08984 14.4847 8.31307 14.4847 8.58882C14.4847 8.86457 14.2614 9.08779 13.9865 9.08779C13.7117 9.08779 13.4883 8.86457 13.4883 8.58882C13.4883 8.31358 13.7111 8.08984 13.9865 8.08984Z" fill="#C51617"/>
<path fill-rule="evenodd" clip-rule="evenodd" d="M7.59831 21.7461C7.87368 21.7461 8.09651 21.9693 8.09651 22.2451C8.09651 22.5203 7.87368 22.7435 7.59831 22.7435C7.32294 22.7435 7.09961 22.5203 7.09961 22.2451C7.09961 21.9693 7.32294 21.7461 7.59831 21.7461Z" fill="#C51617"/>
<path fill-rule="evenodd" clip-rule="evenodd" d="M8.84635 29.3086C9.12173 29.3086 9.34455 29.5318 9.34455 29.807C9.34455 30.0828 9.12122 30.306 8.84635 30.306C8.57098 30.306 8.34766 30.0828 8.34766 29.807C8.34766 29.5318 8.57098 29.3086 8.84635 29.3086Z" fill="#C51617"/>
<path fill-rule="evenodd" clip-rule="evenodd" d="M34.0823 7.67188C34.2789 7.67188 34.4385 7.83146 34.4385 8.02793C34.4385 8.22489 34.2789 8.38448 34.0823 8.38448C33.8857 8.38448 33.7266 8.22489 33.7266 8.02793C33.7266 7.83146 33.8857 7.67188 34.0823 7.67188Z" fill="#C51617"/>
<path fill-rule="evenodd" clip-rule="evenodd" d="M30.0232 31.7227C30.2198 31.7227 30.3794 31.8817 30.3794 32.0792C30.3794 32.2757 30.2198 32.4353 30.0232 32.4353C29.8267 32.4353 29.667 32.2757 29.667 32.0792C29.6675 31.8817 29.8267 31.7227 30.0232 31.7227Z" fill="#C51617"/>
<path fill-rule="evenodd" clip-rule="evenodd" d="M15.9287 31.7724V9.65234H24.4379C26.2659 9.65234 27.8772 9.94326 29.2692 10.525C30.6612 11.1064 31.8254 11.8952 32.7601 12.8926C33.6949 13.8896 34.4018 15.0577 34.8792 16.3976C35.3572 17.7369 35.5967 19.1646 35.5967 20.6813C35.5967 22.3636 35.3314 23.8852 34.8014 25.2458C34.2719 26.6059 33.5186 27.7695 32.5418 28.7351C31.5647 29.7002 30.391 30.4481 29.0202 30.9779C27.6484 31.5072 26.1209 31.7724 24.4379 31.7724H15.9287ZM29.4248 20.6813C29.4248 19.8298 29.3107 19.051 29.0818 18.345C28.8534 17.6385 28.5265 17.0365 28.1 16.538C27.6746 16.0395 27.1496 15.6496 26.5262 15.3693C25.9026 15.0891 25.2064 14.9487 24.4379 14.9487H22.0066V26.4756H24.4379C25.2276 26.4756 25.934 26.3306 26.557 26.0397C27.1805 25.7488 27.7049 25.3438 28.1314 24.8251C28.5568 24.3059 28.8797 23.6928 29.0975 22.9863C29.3157 22.2807 29.4248 21.5121 29.4248 20.6813Z" fill="#005C32"/>
<path fill-rule="evenodd" clip-rule="evenodd" d="M22.6173 29.797H10.794C11.0441 30.4753 11.3351 31.1354 11.6671 31.7732H22.6173V29.797ZM22.6173 9.65625H14.6987C14.2899 10.1517 13.8979 10.6693 13.5254 11.2097C13.4284 11.3501 13.3339 11.4911 13.241 11.6325H22.6173V9.65625ZM22.6173 12.8769H12.4806C12.1117 13.5258 11.7803 14.1859 11.4852 14.8531H22.6173V12.8769ZM22.6173 26.5765H9.93555C10.0497 27.2467 10.2008 27.9062 10.3867 28.5526H22.6173V26.5765Z" fill="#005C32"/>
</svg>
