<svg width="40" height="40" viewBox="0 0 40 40" fill="none" xmlns="http://www.w3.org/2000/svg">
<rect width="40" height="40" rx="12" fill="#F9AA00"/>
<g clip-path="url(#clip0_25202_142114)">
<path d="M2.875 22.28V17.72C2.875 15.4365 3.86767 14.5 6.47034 14.5C9.07302 14.5 10.1534 15.4365 10.1534 17.72V22.28C10.1534 24.5038 9.03444 25.5 6.47385 25.5C3.91327 25.5 2.875 24.5073 2.875 22.28ZM8.22066 22.1818V17.8182C8.22066 16.8396 7.96811 16.2082 6.46684 16.2082C5.06378 16.2082 4.8007 16.8396 4.8007 17.8182V22.1853C4.8007 23.206 5.06728 23.7953 6.46684 23.7953C7.86639 23.7953 8.22066 23.206 8.22066 22.1853V22.1818Z" fill="black"/>
<path d="M19.6186 22.0731C19.6186 24.4372 18.4997 25.4334 15.9391 25.4334C13.3785 25.4334 12.3438 24.4372 12.3438 22.2169V17.8323C12.3438 15.5524 13.3364 14.6123 15.9391 14.6123C18.5418 14.6123 19.6186 15.5524 19.6186 17.9586H17.6894C17.6894 16.9063 17.4369 16.3205 15.9356 16.3205C14.5325 16.3205 14.2695 16.9098 14.2695 17.9305V22.1152C14.2695 23.1359 14.536 23.7252 15.9356 23.7252C17.3351 23.7252 17.6894 23.1359 17.6894 22.0731H19.6186Z" fill="black"/>
<path d="M25.4612 22.8549L23.3215 18.516L23.546 21.5957V25.4015H21.6133V14.626H23.4758L25.6751 19.4104L27.8815 14.626H29.744V25.4015H27.8113V21.5957L28.0358 18.516L25.8961 22.8549H25.4612Z" fill="black"/>
<path d="M37.1262 20.7049L35.1303 20.6944L36.8421 25.4016H35.0777L33.3309 20.7189H31.6367V14.6016L37.1262 20.7049Z" fill="white"/>
</g>
<defs>
<clipPath id="clip0_25202_142114">
<rect width="34.2522" height="11" fill="white" transform="translate(2.875 14.5)"/>
</clipPath>
</defs>
</svg>
