<svg width="40" height="40" viewBox="0 0 40 40" fill="none" xmlns="http://www.w3.org/2000/svg">
<rect width="40" height="40" rx="12" fill="white"/>
<path fill-rule="evenodd" clip-rule="evenodd" d="M30.0127 18.8913L26.7692 22.5454V28.9093H13.2203V17.8238C13.2203 14.1286 16.2996 11.0904 20.0358 11.0904C21.1033 11.0904 22.0886 11.3367 23.033 11.7473H23.074C23.9362 12.1989 24.7574 12.8558 25.3732 13.5949L25.7017 13.3485L27.7135 11.0904C26.7692 10.1461 25.7427 9.32491 24.511 8.70905H24.47C23.1561 8.05213 21.637 7.68262 20.0358 7.68262C14.452 7.68262 9.8125 12.1989 9.8125 17.8238V32.317H30.1769V18.8913H30.0127Z" fill="#78B943"/>
<path d="M20.5701 22.8735L29.808 12.3218C29.849 12.2808 29.849 12.2808 29.8901 12.3218C30.3007 12.7734 30.1775 13.2251 29.808 13.6356L20.6522 23.9C20.5701 23.9821 20.488 23.9821 20.4058 23.941L15.3147 21.026C14.9452 20.7796 14.6578 20.4101 15.0273 19.8353C15.0684 19.7942 15.0684 19.7942 15.1094 19.8353L20.488 22.9557C20.529 22.9557 20.5701 22.9146 20.5701 22.8735Z" fill="#015293"/>
<path d="M20.5701 21.0679L29.849 10.5161C29.8901 10.4751 29.8901 10.4751 29.9311 10.5161C30.3417 10.9678 30.2185 11.4194 29.849 11.83L20.6522 22.0943C20.5701 22.1764 20.488 22.1764 20.4058 22.1354L15.3147 19.1792C14.9452 18.9329 14.6578 18.5634 15.0273 17.9886C15.0684 17.9475 15.0684 17.9475 15.1094 17.9886L20.488 21.1089C20.529 21.15 20.5701 21.1089 20.5701 21.0679Z" fill="#015293"/>
<path d="M20.5701 24.7212L29.808 14.1695C29.849 14.1284 29.849 14.1284 29.8901 14.1695C30.3007 14.6211 30.1775 15.0727 29.808 15.4833L20.6522 25.7066C20.5701 25.7887 20.488 25.7887 20.4058 25.7476L15.3147 22.8326C14.9452 22.5862 14.6578 22.2167 15.0273 21.6419C15.0684 21.6008 15.0684 21.6008 15.1094 21.6419L20.488 24.7623C20.529 24.7623 20.5701 24.7212 20.5701 24.7212Z" fill="#015293"/>
<path d="M20.5701 26.5278L29.808 15.9761C29.849 15.935 29.849 15.935 29.8901 15.9761C30.3007 16.4277 30.1775 16.8794 29.808 17.2899L20.6522 27.5132C20.5701 27.5953 20.488 27.5953 20.4058 27.5543L15.3147 24.6392C14.9452 24.3929 14.6578 24.0233 15.0273 23.4485C15.0684 23.4075 15.0684 23.4075 15.1094 23.4485L20.488 26.5689C20.529 26.5689 20.5701 26.5689 20.5701 26.5278Z" fill="#015293"/>
</svg>
