<svg width="41" height="40" viewBox="0 0 41 40" fill="none" xmlns="http://www.w3.org/2000/svg">
<rect width="40" height="40" transform="translate(0.5)" fill="white"/>
<path d="M24.6873 15.0834C25.4078 15.0834 25.9922 14.4986 25.9922 13.7785C25.9922 13.0575 25.4078 12.4732 24.6873 12.4732C23.9662 12.4732 23.3824 13.0575 23.3824 13.7785C23.3824 14.4986 23.9662 15.0834 24.6873 15.0834Z" fill="#FC7321"/>
<path d="M31.6798 16.814C32.1878 16.814 32.6005 16.4017 32.6005 15.8938C32.6005 15.3853 32.1882 14.9731 31.6798 14.9731C31.1714 14.9731 30.7596 15.3853 30.7596 15.8938C30.7596 16.4017 31.1714 16.814 31.6798 16.814Z" fill="#FC7321"/>
<path d="M35.4365 21.2364C35.4283 21.2309 35.4199 21.226 35.4121 21.2209C31.0207 18.3829 25.9305 16.7563 20.5026 16.7471H20.5003H20.498C15.07 16.7563 9.97969 18.3829 5.58835 21.2209C5.58007 21.226 5.57226 21.2309 5.56397 21.2364C5.52532 21.2663 5.5 21.3134 5.5 21.3654C5.5 21.3828 5.50371 21.3989 5.50831 21.4146C5.52948 21.4813 5.59111 21.5305 5.66519 21.5305C5.68543 21.5305 5.70526 21.526 5.7232 21.519C5.72643 21.5181 5.72964 21.517 5.73287 21.5157L5.99235 21.4146L7.18819 20.9504C7.18819 20.9504 7.41781 20.8781 7.57102 20.9347C7.74817 21.0009 7.8862 21.1472 7.94234 21.3276C7.9497 21.3515 7.95798 21.381 7.96626 21.4141C7.96765 21.4201 7.96944 21.4261 7.97081 21.4325C8.02143 21.6377 8.08174 21.9625 8.08174 21.9625L8.92008 27.1835C8.93987 27.3731 9.10919 27.5264 9.29876 27.5264C9.48787 27.5264 9.62493 27.3731 9.60515 27.1835C9.60515 27.1835 9.54763 24.8862 9.54763 24.8719C9.55131 24.7031 9.68199 24.5732 9.85638 24.5732C10.0252 24.5732 10.1789 24.6961 10.2235 24.8567C10.2291 24.8755 10.2383 24.9189 10.2383 24.9189L10.7495 27.184C10.7693 27.3736 10.9386 27.5268 11.1277 27.5268C11.3173 27.5268 11.4544 27.3736 11.4346 27.184L11.1452 21.4146L11.1355 21.2254L11.1199 20.9127L11.1061 20.4144C11.1061 19.6188 11.7502 18.9749 12.5448 18.9749C13.3399 18.9749 13.9841 19.6188 13.9841 20.4144L14.51 27.0321C14.51 27.3054 14.7308 27.5268 15.0042 27.5268C15.2775 27.5268 15.4988 27.3054 15.4988 27.0321C15.4988 27.0321 15.7463 23.7574 15.7491 23.7367C15.7799 23.4933 15.9883 23.3051 16.2396 23.3051C16.4839 23.3051 16.6868 23.4818 16.7268 23.7147C16.7314 23.7423 16.7383 23.8039 16.7383 23.8039L17.1506 27.0321C17.1506 27.3054 17.3719 27.5268 17.6452 27.5268C17.918 27.5268 18.1399 27.3054 18.1399 27.0321L18.1155 21.4146L18.1412 20.7671L18.1531 20.4658C18.1531 19.1986 19.1802 18.1722 20.4469 18.1722C20.4639 18.1722 20.4809 18.1726 20.4975 18.1735H20.4998H20.5021C20.5187 18.1726 20.5357 18.1722 20.5527 18.1722C21.8194 18.1722 22.8464 19.1986 22.8464 20.4658L22.8583 20.7671L22.8841 21.4146L22.9012 27.0321C22.9012 27.3054 23.1224 27.5268 23.3957 27.5268C23.6686 27.5268 23.8903 27.3054 23.8903 27.0321L24.3021 23.8039C24.3021 23.8039 24.3095 23.7418 24.3137 23.7147C24.3541 23.4818 24.5571 23.3051 24.8014 23.3051C25.0535 23.3051 25.261 23.4928 25.2918 23.7367C25.2941 23.7574 25.5422 27.0321 25.5422 27.0321C25.5422 27.3054 25.7635 27.5268 26.0368 27.5268C26.3097 27.5268 26.5309 27.3054 26.5309 27.0321L27.0155 20.4144C27.0155 19.6188 27.6596 18.9749 28.4547 18.9749C29.2493 18.9749 29.8935 19.6188 29.8935 20.4144L29.8797 20.9127L29.8645 21.2254L29.8548 21.4146L29.5654 27.184C29.5456 27.3736 29.6827 27.5268 29.8718 27.5268C30.0614 27.5268 30.2307 27.3736 30.2505 27.184L30.7617 24.8773C30.7617 24.8773 30.7714 24.8347 30.776 24.8153C30.8211 24.6543 30.9748 24.5318 31.1436 24.5318C31.318 24.5318 31.4486 24.662 31.4524 24.8308C31.4524 24.8451 31.3948 27.1835 31.3948 27.1835C31.3751 27.3731 31.5122 27.5264 31.7013 27.5264C31.8909 27.5264 32.0602 27.3731 32.08 27.1835L32.9183 21.9625C32.9183 21.9625 32.9786 21.6377 33.0292 21.4325C33.0306 21.4261 33.0319 21.4201 33.0337 21.4141C33.042 21.381 33.0504 21.3511 33.0577 21.3276C33.1138 21.1468 33.2519 21.0004 33.429 20.9347C33.5823 20.8781 33.8119 20.9504 33.8119 20.9504L35.0072 21.4146L35.2672 21.5157C35.2709 21.517 35.2736 21.5181 35.2768 21.519C35.2948 21.5264 35.3141 21.5305 35.3348 21.5305C35.4089 21.5305 35.4705 21.4813 35.4917 21.4146C35.4963 21.3989 35.5 21.3828 35.5 21.3654C35.5 21.3134 35.4752 21.2663 35.4365 21.2364Z" fill="#FC7321"/>
<path d="M16.3126 15.0834C17.0331 15.0834 17.6175 14.4986 17.6175 13.7785C17.6175 13.0575 17.0331 12.4732 16.3126 12.4732C15.5925 12.4732 15.0073 13.0575 15.0073 13.7785C15.0073 14.4986 15.5925 15.0834 16.3126 15.0834Z" fill="#FC7321"/>
<path d="M9.32011 16.814C9.82853 16.814 10.2403 16.4017 10.2403 15.8938C10.2403 15.3853 9.82853 14.9731 9.32011 14.9731C8.81213 14.9731 8.39987 15.3853 8.39987 15.8938C8.39987 16.4017 8.81168 16.814 9.32011 16.814Z" fill="#FC7321"/>
</svg>
