<svg width="41" height="40" viewBox="0 0 41 40" fill="none" xmlns="http://www.w3.org/2000/svg">
<rect x="1.52344" y="0.550781" width="38.8994" height="38.8994" fill="#3D84AE"/>
<path d="M16.9727 9.57812H11.9727C11.1442 9.57812 10.4727 10.2497 10.4727 11.0781C10.4727 11.9066 11.1442 12.5781 11.9727 12.5781H16.9727C17.8011 12.5781 18.4727 11.9066 18.4727 11.0781C18.4727 10.2497 17.8011 9.57812 16.9727 9.57812Z" fill="white"/>
<path d="M29.9727 9.57812H24.9727C24.1442 9.57812 23.4727 10.2497 23.4727 11.0781C23.4727 11.9066 24.1442 12.5781 24.9727 12.5781H29.9727C30.8011 12.5781 31.4727 11.9066 31.4727 11.0781C31.4727 10.2497 30.8011 9.57812 29.9727 9.57812Z" fill="white"/>
<path d="M11.9708 21.7921C11.4728 32.2921 29.9708 34.7921 29.9708 20.2921V16.9141" stroke="white" stroke-width="3" stroke-linecap="round"/>
</svg>
