<svg width="40" height="40" viewBox="0 0 40 40" fill="none" xmlns="http://www.w3.org/2000/svg">
<rect width="40" height="40" fill="#9FDC16"/>
<g clip-path="url(#clip0_4663_8713)">
<path d="M30.9776 13.0946L30.4606 14.0392L26.3317 18.3962L26.2779 18.5401C26.056 18.7224 25.8422 18.931 25.6456 19.1403C24.6023 20.2523 23.5883 21.405 22.5239 22.4959C21.2725 23.7787 20.219 24.7022 18.4237 23.4417C16.8754 21.8091 15.3197 20.1812 13.7812 18.5401C12.2622 16.9196 10.6858 15.3186 9.27915 13.6127L9.0235 12.9799C9.04987 11.9842 9.1347 11.2872 10.0031 10.6635C11.1679 9.82665 12.3459 10.2548 13.2664 11.1726C15.3472 13.2476 17.2652 15.5124 19.3116 17.6235C19.4125 17.7279 19.9811 18.3292 20.0556 18.3108L26.9651 10.945C28.1672 9.71545 30.3247 10.1494 30.8647 11.8025C31.0172 12.2697 30.9656 12.6194 30.9771 13.0946H30.9776Z" fill="#FEFEFD"/>
<path d="M30.9776 14.3555C31.0137 18.9355 31.02 23.547 30.8934 28.1144C30.1201 30.6778 26.4733 30.3006 26.275 27.5704C26.1815 26.2847 26.1317 23.2971 26.3346 22.0939C26.808 19.2874 28.1219 16.9968 30.1447 15.0416C30.3792 14.8152 30.703 14.5314 30.9776 14.3555Z" fill="#FEFEFD"/>
<path d="M13.6666 22.1512C13.8471 23.9643 13.5324 26.0668 13.666 27.9114C13.2292 30.3654 9.76984 30.5138 9.10892 28.1132C8.98109 23.5481 8.9851 18.9343 9.02351 14.3555C9.13701 14.3543 9.18229 14.4329 9.25394 14.4976C11.3874 16.4345 13.3713 19.1848 13.6666 22.1512Z" fill="#FEFEFD"/>
<path d="M13.7812 18.5407L13.6666 22.1519C13.3714 19.1855 11.3869 16.4352 9.25395 14.4983C9.18287 14.4336 9.13701 14.355 9.02351 14.3562C9.02753 13.8988 9.01148 13.4373 9.02351 12.9805L9.27917 13.6133C10.6864 15.3192 12.2628 16.9202 13.7812 18.5407Z" fill="#87C10D"/>
<path d="M30.9777 14.3548C30.7031 14.5308 30.3792 14.8145 30.1448 15.041C28.1219 16.9956 26.8081 19.2868 26.3346 22.0932C26.2395 22.0336 26.2773 21.8754 26.2762 21.7785C26.263 20.6992 26.2882 19.6181 26.2773 18.5393L26.3312 18.3954L30.4601 14.0384L30.9771 13.0938C30.9868 13.5128 30.9737 13.9358 30.9771 14.3548H30.9777Z" fill="#87C10D"/>
</g>
<defs>
<clipPath id="clip0_4663_8713">
<rect width="22" height="19.628" fill="white" transform="translate(9 10.2148)"/>
</clipPath>
</defs>
</svg>
