<svg width="141" height="28" viewBox="0 0 141 28" fill="none" xmlns="http://www.w3.org/2000/svg">
<path d="M20.6275 4.9287H18.9773C18.5212 4.9287 18.1522 5.29613 18.1522 5.75024C18.1522 6.2043 18.5212 6.57178 18.9773 6.57178H20.6275C21.0835 6.57178 21.4526 6.20436 21.4526 5.75024C21.4525 5.29613 21.0835 4.9287 20.6275 4.9287ZM12.2895 2.09671L11.4645 0.45368C11.259 0.0477199 10.7651 -0.115112 10.3573 0.0862553C9.9496 0.289208 9.78441 0.782625 9.9883 1.18859L10.8134 2.83161C11.017 3.23593 11.5101 3.40205 11.9206 3.19904C12.3282 2.99608 12.4934 2.50267 12.2895 2.09671ZM17.6961 0.0862553C17.29 -0.115112 16.7929 0.0477746 16.589 0.45368L15.7639 2.09671C15.56 2.50267 15.7252 2.99603 16.1329 3.19904C16.3287 3.29634 16.5552 3.31229 16.7628 3.2434C16.9704 3.17451 17.142 3.0264 17.24 2.83161L18.0652 1.18859C18.269 0.782625 18.1038 0.289208 17.6961 0.0862553ZM9.07611 4.9287H7.42592C6.96988 4.9287 6.6008 5.29613 6.6008 5.75024C6.6008 6.2043 6.96983 6.57178 7.42592 6.57178H9.07611C9.53215 6.57178 9.90123 6.20436 9.90123 5.75024C9.90123 5.29613 9.53215 4.9287 9.07611 4.9287ZM4.12555 13.1987H0.825121C0.369465 13.1987 0 13.5665 0 14.0202V27.1644C0 27.6181 0.36941 27.986 0.825121 27.986H4.1255C4.58115 27.986 4.95062 27.6182 4.95062 27.1644V14.0202C4.95062 13.5665 4.58126 13.1987 4.12555 13.1987Z" fill="#221F49"/>
<path d="M24.4935 15.3903C24.348 14.1159 23.1523 13.2126 21.8641 13.2126H15.4314C15.9781 12.238 16.2715 9.48133 16.2585 8.35522C16.237 6.4912 14.6866 4.99745 12.8144 4.99745H12.1335C11.6775 4.99745 11.3084 5.36488 11.3084 5.81899C11.3084 7.7187 10.5655 11.1476 9.1643 12.5428C8.2212 13.4818 7.41497 13.822 6.35779 14.3481V26.6749C7.97635 27.2121 10.0314 28 13.1637 28H18.5611C20.3396 28 21.7246 26.36 21.0355 24.6273C22.0854 24.3425 22.8597 23.3838 22.8597 22.2494C22.8597 21.9292 22.7977 21.6228 22.6857 21.3412C24.455 20.8612 25.1063 18.686 23.8782 17.3202C24.3294 16.8184 24.5782 16.132 24.4935 15.3903Z" fill="#864EA9"/>
<path d="M38.1792 9.8657L43.4001 22.3678H40.3709L36.9141 13.6961L33.4928 22.3678H30.5349L35.7558 9.8657H38.1792Z" fill="#221F49"/>
<path d="M47.7396 22.5451C45.9399 22.5451 44.4609 21.5343 44.4609 19.6369V19.6014C44.4609 17.5443 46.0468 16.569 48.3098 16.569C49.2898 16.569 49.9491 16.7286 50.6441 16.9591V16.7995C50.6441 15.6646 49.9491 15.0616 48.5949 15.0616C47.5436 15.0616 46.8308 15.2389 45.9577 15.5759L45.2806 13.5188C46.3319 13.0755 47.3654 12.7563 48.9869 12.7563C50.4837 12.7563 51.5172 13.1287 52.2121 13.8203C52.9249 14.5296 53.2456 15.5759 53.2456 16.8527V22.3678H50.6262V21.3393C49.9669 22.0663 49.076 22.5451 47.7396 22.5451ZM48.5592 20.6831C49.8422 20.6831 50.6797 20.0093 50.6797 19.0162V18.5374C50.1986 18.3246 49.6106 18.1827 48.9513 18.1827C47.793 18.1827 47.0803 18.6438 47.0803 19.495V19.5305C47.0803 20.2575 47.6861 20.6831 48.5592 20.6831Z" fill="#221F49"/>
<path d="M55.5763 22.3678V12.8627H58.2669V18.094L61.991 12.8627H64.5391V22.3678H61.8485V16.9414L57.9818 22.3678H55.5763ZM60.0488 11.8519C58.1422 11.8519 56.8592 10.8233 56.6988 9.03223H58.5164C58.7302 9.67063 59.14 10.0962 60.0488 10.0962C60.9576 10.0962 61.3674 9.67063 61.5812 9.03223H63.3987C63.2384 10.8233 61.9554 11.8519 60.0488 11.8519Z" fill="#221F49"/>
<path d="M69.6651 12.8627V16.4094H70.3244L73.0151 12.8627H76.3116L72.4092 17.5088L76.4541 22.3678H73.2289L70.3423 18.7324H69.6651V22.3678H66.9567V12.8627H69.6651Z" fill="#221F49"/>
<path d="M79.0818 13.6429L77.4247 11.7987C78.8324 10.5396 80.347 9.74157 82.5743 9.74157C85.5679 9.74157 87.2607 11.0361 87.2607 13.0932V13.1109C87.2607 14.7247 86.4232 15.4695 85.1403 15.9838C86.5836 16.3739 87.5993 17.1187 87.5993 18.8743V18.892C87.5993 21.0023 85.7105 22.5806 82.3962 22.5806C80.1153 22.5806 78.4582 21.7826 77.193 20.6654L78.8146 18.7147C79.8837 19.5482 81.0419 20.1334 82.4674 20.1334C83.8217 20.1334 84.8195 19.6546 84.8195 18.6615V18.6438C84.8195 17.7394 83.9464 17.2251 82.4496 17.2428H80.151V14.9729H82.5209C83.8038 14.9729 84.481 14.37 84.481 13.5188V13.5011C84.481 12.6676 83.7504 12.1711 82.5209 12.1888C81.2379 12.1888 80.1332 12.7917 79.0818 13.6429Z" fill="#221F49"/>
<path d="M92.3563 22.5451C90.5566 22.5451 89.0777 21.5343 89.0777 19.6369V19.6014C89.0777 17.5443 90.6635 16.569 92.9265 16.569C93.9066 16.569 94.5659 16.7286 95.2608 16.9591V16.7995C95.2608 15.6646 94.5659 15.0616 93.2116 15.0616C92.1603 15.0616 91.4476 15.2389 90.5745 15.5759L89.8973 13.5188C90.9487 13.0755 91.9821 12.7563 93.6037 12.7563C95.1004 12.7563 96.1339 13.1287 96.8289 13.8203C97.5416 14.5296 97.8624 15.5759 97.8624 16.8527V22.3678H95.243V21.3393C94.5837 22.0663 93.6928 22.5451 92.3563 22.5451ZM93.176 20.6831C94.459 20.6831 95.2965 20.0093 95.2965 19.0162V18.5374C94.8153 18.3246 94.2273 18.1827 93.568 18.1827C92.4098 18.1827 91.697 18.6438 91.697 19.495V19.5305C91.697 20.2575 92.3029 20.6831 93.176 20.6831Z" fill="#221F49"/>
<path d="M100.193 22.3678V12.8627H102.884V18.094L106.608 12.8627H109.156V22.3678H106.465V16.9414L102.599 22.3678H100.193ZM104.666 11.8519C102.759 11.8519 101.476 10.8233 101.316 9.03223H103.133C103.347 9.67063 103.757 10.0962 104.666 10.0962C105.574 10.0962 105.984 9.67063 106.198 9.03223H108.016C107.855 10.8233 106.572 11.8519 104.666 11.8519Z" fill="#221F49"/>
<path d="M111.573 22.3678V12.8627H114.389L116.866 16.6931L119.342 12.8627H122.14V22.3678H119.521V16.7463L116.866 20.7541H116.812L114.193 16.7995V22.3678H111.573Z" fill="#221F49"/>
</svg>
