<svg width="41" height="41" viewBox="0 0 41 41" fill="none" xmlns="http://www.w3.org/2000/svg">
<path d="M33.9468 27.1732C33.2056 27.3639 32.6552 27.1098 32.147 26.6868C31.4699 26.1364 30.8139 25.5641 30.1572 24.9926C29.2259 24.2303 28.2307 23.5954 26.9602 23.6377C26.6428 23.6377 26.3887 23.6799 26.1768 23.2991C25.9656 22.8768 26.2197 22.7276 26.4098 22.4946C27.5106 21.1819 28.2729 19.7214 28.2307 17.9849C28.1673 15.9106 26.6428 14.9998 24.8008 15.8684C24.5678 15.974 24.3144 16.3759 24.0814 16.0585C23.8907 15.8044 24.1236 15.4658 24.3355 15.2138C24.4197 15.1132 24.4973 15.0071 24.5678 14.8964C25.6693 13.4549 25.7116 11.9549 24.7585 10.4064C24.125 9.39076 23.3614 8.47996 22.5765 7.59098C22.4076 7.40023 22.2802 7.27354 22.471 6.93498C23.1044 5.83343 22.9792 5.0078 22.1958 4.39403C21.3279 3.71692 20.2482 3.78026 19.4007 4.60519C19.1466 4.85929 18.8932 4.90152 18.5751 4.8804C17.3264 4.79594 16.0771 4.90152 14.915 5.36748C13.9831 5.74827 13.1997 5.85455 12.4381 5.11338C12.3107 4.98598 12.12 4.94375 11.9299 4.8804C10.7643 4.41445 9.62124 4.753 8.83784 5.76938C8.05444 6.78576 8.07626 7.82326 8.88077 8.88187C9.02858 9.07191 9.1771 9.17819 8.96524 9.4534C5.17564 13.9201 4.4767 20.9067 5.3875 25.0137C6.63615 30.6664 10.7432 32.8892 12.3557 33.7156C13.6896 34.3927 15.1086 34.9009 16.5085 35.4513C19.7048 36.7007 23.0714 37.0392 26.4802 36.7429C29.19 36.5099 29.9946 35.642 30.4809 32.8048C30.502 32.6358 30.502 32.5296 30.7139 32.4873C33.0008 31.9369 33.8475 29.9893 34.7787 28.1895C35.1109 27.5335 34.6457 26.9831 33.9468 27.1732Z" fill="white"/>
<path d="M19.6782 11.4435C19.6148 12.3754 19.3607 13.2644 18.7047 14.0056C18.1332 14.6616 17.3287 14.789 16.6509 14.3653C16.0371 13.9845 15.9097 13.3489 16.2701 12.481C16.6086 11.6554 17.1802 11.0029 17.9002 10.4912C18.281 10.216 18.6836 9.85772 19.1918 10.1308C19.6571 10.4067 19.6571 10.9353 19.6782 11.4435Z" fill="#0A0205"/>
<path d="M33.9468 27.1732C33.2056 27.3639 32.6552 27.1098 32.147 26.6868C31.4699 26.1364 30.8139 25.5641 30.1572 24.9926C29.2259 24.2303 28.2307 23.5954 26.9602 23.6377C26.6428 23.6377 26.3887 23.6799 26.1768 23.2991C25.9656 22.8768 26.2197 22.7276 26.4098 22.4946C27.5106 21.1819 28.2729 19.7214 28.2307 17.9849C28.1673 15.9106 26.6428 14.9998 24.8008 15.8684C24.5678 15.974 24.3144 16.3759 24.0814 16.0585C23.8907 15.8044 24.1236 15.4658 24.3355 15.2138C24.4197 15.1132 24.4973 15.0071 24.5678 14.8964C25.6693 13.4549 25.7116 11.9549 24.7585 10.4064C24.125 9.39076 23.3614 8.47996 22.5765 7.59098C22.4076 7.40023 22.2802 7.27354 22.471 6.93498C23.1044 5.83343 22.9792 5.0078 22.1958 4.39403C21.3279 3.71692 20.2482 3.78026 19.4007 4.60519C19.1466 4.85929 18.8932 4.90152 18.5751 4.8804C17.3264 4.79594 16.0771 4.90152 14.915 5.36748C13.9831 5.74827 13.1997 5.85455 12.4381 5.11338C12.3107 4.98598 12.12 4.94375 11.9299 4.8804C10.7643 4.41445 9.62124 4.753 8.83784 5.76938C8.05444 6.78576 8.07626 7.82326 8.88077 8.88187C9.02858 9.07191 9.1771 9.17819 8.96524 9.4534C5.17564 13.9201 4.4767 20.9067 5.3875 25.0137C6.63615 30.6664 10.7432 32.8892 12.3557 33.7156C13.6896 34.3927 15.1086 34.9009 16.5085 35.4513C19.7048 36.7007 23.0714 37.0392 26.4802 36.7429C29.19 36.5099 29.9946 35.642 30.4809 32.8048C30.502 32.6358 30.502 32.5296 30.7139 32.4873C33.0008 31.9369 33.8475 29.9893 34.7787 28.1895C35.1109 27.5335 34.6457 26.9831 33.9468 27.1732ZM12.7126 32.1488C10.4891 31.0479 8.79561 29.5656 7.67365 27.385C9.38826 28.8885 11.3788 29.5234 13.6868 29.4389C13.0934 30.2645 12.631 31.0479 12.7126 32.1488ZM10.2779 19.7425C9.15427 19.1526 8.12143 18.404 7.21121 17.5197C6.95711 17.2867 6.83042 17.0748 6.91488 16.694C7.46178 14.365 8.30853 12.1661 9.76975 10.2368C9.9598 9.98271 10.1505 9.72861 10.532 9.83419C11.0395 9.96159 11.3999 9.74973 11.6329 9.28377C13.0512 6.55278 15.5281 5.98124 18.3013 5.98124C19.0424 5.98124 19.7203 6.21422 20.2496 6.72241C21.2652 7.69586 22.2394 8.69323 23.4036 9.81308C22.8532 9.68638 22.4935 9.41117 22.1972 9.7075C21.8797 10.0038 22.0275 10.4057 22.1549 10.745C22.4935 11.6551 22.9594 12.4807 23.8907 12.9044C24.2503 13.0734 24.1659 13.2219 24.1018 13.5182C24.0385 13.8357 23.8907 13.8568 23.6147 13.8145C23.1066 13.709 22.6195 13.8357 22.1542 14.0686C21.8361 14.2383 21.5609 14.4705 21.582 14.852C21.6038 15.2744 22.0043 15.3602 22.3232 15.4658C22.5343 15.5292 22.7891 15.5292 23.1678 15.5503C21.9825 17.0115 20.522 16.1225 19.1881 16.1647C19.3571 16.8207 19.9927 16.7574 20.4157 17.0748C17.1554 18.1968 14.0225 18.9168 11.7779 15.1272C11.4815 17.0981 13.7895 18.5994 17.4728 19.0435C15.5492 20.8644 12.9238 21.0974 10.2779 19.7425ZM27.2354 29.9893C24.8859 30.2223 22.6202 29.9042 20.4396 28.9518C19.847 28.6977 19.2332 28.4436 18.5554 28.1684C19.8047 27.5124 20.9267 26.729 21.8797 25.7549C22.8762 24.7206 23.6791 23.516 24.2503 22.1983C25.0548 24.4211 26.3676 26.0934 27.9104 27.5969C28.0546 27.7512 28.1693 27.9306 28.249 28.1262C28.8022 29.27 28.4848 29.8619 27.2354 29.9893Z" fill="#0A0104"/>
<path d="M25.9648 12.9743L27.438 14.0829L27.8181 16.1108L28.8035 15.271L30.6089 16.6971C31.9716 14.7009 33.5877 12.4514 35.0292 10.3623C31.9688 11.2316 25.9648 12.9743 25.9648 12.9743ZM30.2274 15.9524L28.2946 14.5904L27.866 15.8264L27.8026 14.242L34.2338 10.8522L30.2274 15.9524Z" fill="#F28A00"/>
<path d="M34.2339 10.8516L30.2261 15.9525L28.2933 14.5905L27.8661 15.8258L27.8027 14.2414L34.2339 10.8516Z" fill="white"/>
</svg>
