<svg width="40" height="40" viewBox="0 0 40 40" fill="none" xmlns="http://www.w3.org/2000/svg">
<rect width="40" height="40" rx="12" fill="white"/>
<path fill-rule="evenodd" clip-rule="evenodd" d="M25.8349 8.0546C22.5274 8.35317 19.2239 9.49818 16.6202 11.2485C15.3125 12.1275 14.3428 12.911 13.4421 13.8163C11.2088 16.0606 10.216 18.0875 10.1057 20.6275C10.0174 22.6622 10.5746 24.5807 11.8104 26.4964C12.0031 26.7952 12.1607 27.0646 12.1607 27.0952C12.1607 27.1258 11.2236 28.0903 10.0784 29.2385C8.61525 30.7054 7.99609 31.3788 7.99609 31.5029C7.99609 31.7319 8.26647 32 8.4972 32C8.62687 32 9.26661 31.411 10.7591 29.9177C11.9037 28.7725 12.8639 27.8354 12.8928 27.8354C12.9217 27.8354 13.1383 27.9655 13.374 28.1245C14.0217 28.5614 15.2987 29.1803 16.0781 29.4349C17.7527 29.9822 19.6628 30.0595 21.2106 29.6429C22.2031 29.3756 23.709 28.6273 24.6143 27.9513C26.9501 26.2073 29.3255 23.0156 30.5416 19.9868C31.4914 17.6216 31.9149 15.5572 31.9956 12.899C32.0416 11.3862 31.9335 9.88685 31.7 8.79902L31.6107 8.38304L31.1959 8.29903C29.9258 8.04154 27.3034 7.92197 25.8349 8.0546ZM30.2888 9.16109C30.5026 9.20018 30.706 9.27842 30.7409 9.33488C30.8939 9.58236 31.0008 11.3366 30.9599 12.9279C30.8912 15.5992 30.4563 17.5931 29.4041 20.0601C28.275 22.7076 25.9998 25.6759 23.9389 27.1904C23.1488 27.771 21.9011 28.3976 21.0504 28.6409C20.2966 28.8565 18.5302 28.9417 17.7167 28.8018C16.5896 28.6079 15.1034 28.024 14.0906 27.3773L13.6579 27.101L17.9549 22.8013C22.548 18.2053 22.4767 18.2897 22.0916 17.9045C21.7081 17.5211 21.7905 17.4515 17.1965 22.0403L12.8957 26.3362L12.6458 25.9446C12.2942 25.3935 11.7191 24.1998 11.531 23.6308C11.4436 23.3665 11.3109 22.8472 11.236 22.4767C11.0541 21.5769 11.109 19.9011 11.3499 18.9974C11.8241 17.2191 13.1311 15.3514 15.0545 13.7033C18.109 11.0859 21.5067 9.59333 25.5353 9.09894C26.2404 9.01245 29.7248 9.05794 30.2888 9.16109Z" fill="#83D462"/>
<path d="M30.2888 9.16109C30.5026 9.20018 30.706 9.27842 30.7409 9.33488C30.8939 9.58236 31.0008 11.3366 30.9599 12.9279C30.8912 15.5992 30.4563 17.5931 29.4041 20.0601C28.275 22.7076 25.9998 25.6759 23.9389 27.1904C23.1488 27.771 21.9011 28.3976 21.0504 28.6409C20.2966 28.8565 18.5302 28.9417 17.7167 28.8018C16.5896 28.6079 15.1034 28.024 14.0906 27.3773L13.6579 27.101L17.9549 22.8013C22.548 18.2053 22.4767 18.2897 22.0916 17.9045C21.7081 17.5211 21.7905 17.4515 17.1965 22.0403L12.8957 26.3362L12.6458 25.9446C12.2942 25.3935 11.7191 24.1998 11.531 23.6308C11.4436 23.3665 11.3109 22.8472 11.236 22.4767C11.0541 21.5769 11.109 19.9011 11.3499 18.9974C11.8241 17.2191 13.1311 15.3514 15.0545 13.7033C18.109 11.0859 21.5067 9.59333 25.5353 9.09894C26.2404 9.01245 29.7248 9.05794 30.2888 9.16109Z" fill="#83D462"/>
<path fill-rule="evenodd" clip-rule="evenodd" d="M25.8349 8.0546C22.5274 8.35317 19.2239 9.49818 16.6202 11.2485C15.3125 12.1275 14.3428 12.911 13.4421 13.8163C11.2088 16.0606 10.216 18.0875 10.1057 20.6275C10.0174 22.6622 10.5746 24.5807 11.8104 26.4964C12.0031 26.7952 12.1607 27.0646 12.1607 27.0952C12.1607 27.1258 11.2236 28.0903 10.0784 29.2385C8.61525 30.7054 7.99609 31.3788 7.99609 31.5029C7.99609 31.7319 8.26647 32 8.4972 32C8.62687 32 9.26661 31.411 10.7591 29.9177C11.9037 28.7725 12.8639 27.8354 12.8928 27.8354C12.9217 27.8354 13.1383 27.9655 13.374 28.1245C14.0217 28.5614 15.2987 29.1803 16.0781 29.4349C17.7527 29.9822 19.6628 30.0595 21.2106 29.6429C22.2031 29.3756 23.709 28.6273 24.6143 27.9513C26.9501 26.2073 29.3255 23.0156 30.5416 19.9868C31.4914 17.6216 31.9149 15.5572 31.9956 12.899C32.0416 11.3862 31.9335 9.88685 31.7 8.79902L31.6107 8.38304L31.1959 8.29903C29.9258 8.04154 27.3034 7.92197 25.8349 8.0546ZM30.2888 9.16109C30.5026 9.20018 30.706 9.27842 30.7409 9.33488C30.8939 9.58236 31.0008 11.3366 30.9599 12.9279C30.8912 15.5992 30.4563 17.5931 29.4041 20.0601C28.275 22.7076 25.9998 25.6759 23.9389 27.1904C23.1488 27.771 21.9011 28.3976 21.0504 28.6409C20.2966 28.8565 18.5302 28.9417 17.7167 28.8018C16.5896 28.6079 15.1034 28.024 14.0906 27.3773L13.6579 27.101L17.9549 22.8013C22.548 18.2053 22.4767 18.2897 22.0916 17.9045C21.7081 17.5211 21.7905 17.4515 17.1965 22.0403L12.8957 26.3362L12.6458 25.9446C12.2942 25.3935 11.7191 24.1998 11.531 23.6308C11.4436 23.3665 11.3109 22.8472 11.236 22.4767C11.0541 21.5769 11.109 19.9011 11.3499 18.9974C11.8241 17.2191 13.1311 15.3514 15.0545 13.7033C18.109 11.0859 21.5067 9.59333 25.5353 9.09894C26.2404 9.01245 29.7248 9.05794 30.2888 9.16109Z" fill="black"/>
</svg>
