<svg width="96" height="96" viewBox="0 0 96 96" fill="none" xmlns="http://www.w3.org/2000/svg">
<rect width="96" height="96" fill="#F4F5F8"/>
<circle cx="48" cy="48" r="43" fill="#1B42AC"/>
<path d="M41.0288 35C40.2654 35 39.5643 35.2671 39.0129 35.7107C38.81 35.8738 29.6155 46.335 29.6155 46.335C29.6155 46.335 20.6007 36.0369 20.4289 35.8738C19.8524 35.3324 19.075 35 18.2202 35C16.4414 35 15 36.4387 15 38.2138V57.7862C15 59.5593 16.4414 60.999 18.2202 60.999C20.0001 60.999 21.4424 59.5593 21.4424 57.7862V46.7663C21.4424 46.7663 27.2179 53.3468 27.3002 53.4325C27.8858 54.0442 28.7095 54.4276 29.6245 54.4276C30.5948 54.4276 31.4636 54.0004 32.0532 53.3234C32.1376 53.2255 37.8076 46.7449 37.8076 46.7449V57.7872C37.8076 59.5613 39.2499 61 41.0288 61C42.8076 61 44.25 59.5613 44.25 57.7872V38.2138C44.25 36.4387 42.8076 35 41.0288 35Z" fill="white"/>
<path d="M56.088 47.8108C56.088 49.3647 54.1656 50.6242 51.7941 50.6242C49.4226 50.6242 47.501 49.3647 47.501 47.8108C47.501 46.2596 49.4226 45 51.7941 45C54.1647 45 56.088 46.2596 56.088 47.8108Z" fill="white"/>
<path d="M51.794 50.6021C54.1655 50.6021 56.0879 49.3481 56.0879 47.8011C56.0879 46.2541 54.1655 45 51.794 45C49.4225 45 47.5 46.2541 47.5 47.8011C47.5 49.3481 49.4225 50.6021 51.794 50.6021Z" fill="#ED1C24"/>
<path d="M77.8555 52.0538C77.0333 52.0538 76.2865 52.364 75.7168 52.8688C75.7168 52.8688 75.7168 52.8688 75.7178 52.8688C75.7158 52.8637 75.7138 52.8616 75.7118 52.8596C74.5523 53.9049 73.0215 54.5458 71.3367 54.5458C67.7195 54.5458 64.7877 51.6146 64.7877 47.9974C64.7877 44.3803 67.7195 41.4511 71.3367 41.4511C72.9501 41.4511 74.4235 42.0357 75.5658 43.0022C75.6494 43.0739 75.7309 43.1517 75.8114 43.2264C76.368 43.682 77.0796 43.9564 77.8555 43.9564C79.638 43.9564 81.0833 42.5118 81.0833 40.7303C81.0833 39.8355 80.7179 39.0257 80.1291 38.4411C80.1301 38.4431 80.1311 38.4441 80.1332 38.4452C80.1362 38.4411 80.1402 38.439 80.1442 38.437C77.8284 36.3023 74.7355 35 71.3377 35C64.1556 35 58.3333 40.8194 58.3333 47.9995C58.3333 55.1796 64.1556 61 71.3377 61C74.6208 61 77.618 59.7817 79.9067 57.7739C79.9107 57.7709 79.9138 57.7668 79.9178 57.7647C80.6293 57.1719 81.0833 56.2802 81.0833 55.2809C81.0822 53.4984 79.638 52.0538 77.8555 52.0538Z" fill="#ED1C24"/>
</svg>
