<svg width="40" height="40" viewBox="0 0 40 40" fill="none" xmlns="http://www.w3.org/2000/svg">
<rect width="40" height="40" rx="12" fill="white"/>
<g clip-path="url(#clip0_25202_142134)">
<path d="M9.57575 14H13.5323L13.2497 15.4286H10.9888L10.141 19.4286H8.44531L9.57575 14Z" fill="#92CA00"/>
<path d="M17.9499 14.4985C17.593 14.1637 17.1199 13.9851 16.6333 14.0011L14.2442 14L13.1055 19.4284H14.8183L15.125 17.9553H16.0965C16.7331 17.9764 17.3526 17.7444 17.822 17.3091C18.0367 17.0977 18.2046 16.8428 18.3148 16.561C18.425 16.2793 18.4748 15.9771 18.4611 15.6745C18.4627 15.4531 18.418 15.2339 18.3299 15.0312C18.2418 14.8285 18.1122 14.647 17.9499 14.4985ZM16.5502 16.1371C16.4455 16.2337 16.3086 16.2868 16.1668 16.2857H15.4574L15.6427 15.4328H16.3201C16.4234 15.4301 16.5239 15.4671 16.6013 15.5362C16.6442 15.5696 16.6787 15.6128 16.702 15.6622C16.7253 15.7116 16.7368 15.7658 16.7355 15.8205C16.7276 15.8832 16.707 15.9437 16.6752 15.9981C16.6433 16.0526 16.6008 16.0998 16.5502 16.1371Z" fill="#92CA00"/>
<path d="M21.2119 14L20.6559 16.5986L23.1611 14H24.7078L23.5574 19.4286H21.8318L22.375 16.8312L19.8762 19.4286H18.3359L19.4927 14H21.2119Z" fill="#92CA00"/>
<path d="M29.7598 19.4286H28.0279L28.455 17.4286H26.875C26.7117 18.2096 26.602 18.6475 26.4386 19.4286H24.7109L25.8677 14.0011H27.6169L27.219 15.8445L28.7929 15.8361L29.1846 14H30.9102L29.7598 19.4286Z" fill="#92CA00"/>
<path d="M10.4646 24.759L9.37794 23.0787L8.75789 25.9998H7L8.15062 20.5713H9.91488L10.8609 22.5101L12.785 20.5713H14.5557L13.4051 25.9998H11.6408L12.2673 23.0723L10.4646 24.759Z" fill="#DF005E"/>
<path d="M18.9373 20.5713H17.0197L13.9258 25.9998H15.8115L16.3502 24.857H17.8941L17.9657 25.9998H19.7556L18.9373 20.5713ZM16.8279 23.8429L17.6909 22.09L17.8123 23.8429H16.8279Z" fill="#DF005E"/>
<path d="M29.3609 20.5713L28.824 23.1692L31.3233 20.5713H32.8575L31.7069 25.9998H29.9938L30.5435 23.4019L28.0377 25.9998H26.4844L27.635 20.5713H29.3609Z" fill="#DF005E"/>
<path d="M25.3301 25.9999H23.5982L24.0254 23.9999H22.4453C22.282 24.7809 22.1722 25.2188 22.0089 25.9999H20.2812L21.438 20.5724H23.1872L22.7893 22.4158L24.3632 22.4074L24.7549 20.5713H26.4805L25.3301 25.9999Z" fill="#DF005E"/>
</g>
<defs>
<clipPath id="clip0_25202_142134">
<rect width="26" height="12" fill="white" transform="translate(7 14)"/>
</clipPath>
</defs>
</svg>
