<svg width="40" height="40" viewBox="0 0 40 40" fill="none" xmlns="http://www.w3.org/2000/svg">
<rect width="40" height="40" rx="12" fill="#2CB64D"/>
<path fill-rule="evenodd" clip-rule="evenodd" d="M28.8734 23.0551H27.4706C26.2333 24.4448 25.0854 25.4983 24.0228 26.2153C22.9601 26.9469 21.5953 27.2978 20.0225 27.2978C19.1297 27.2978 18.4497 27.0686 17.9397 26.6102C17.4674 26.1519 17.2122 25.2056 17.2122 23.7573C17.2122 23.4352 17.2122 22.8696 17.297 22.0746C19.8524 21.9235 22.0627 20.9921 23.9378 19.3142C25.8083 17.632 26.7859 15.603 26.7859 13.2038C26.7859 11.9847 26.4459 11.0041 25.7658 10.2731C25.0433 9.54129 23.7679 9.17578 21.8502 9.17578C20.7027 9.17578 19.5548 9.43412 18.4922 9.97053C16.3621 10.9312 14.7043 12.5649 13.5139 14.8523C11.8941 17.8465 11.1289 20.9483 11.1289 24.1524C11.1289 26.5372 11.6814 28.2441 12.8719 29.2829C14.0241 30.3068 15.5968 30.8237 17.5522 30.8237C22.02 30.8235 25.7656 28.2293 28.8734 23.0551ZM22.5775 11.4041C23.2577 11.4041 23.5977 11.9066 23.5977 12.916C23.5977 14.7789 23.0027 16.4127 21.8078 17.8173C20.5749 19.2071 19.2149 19.9535 17.6371 20.0604C18.0669 17.8903 18.7046 15.9055 19.6397 14.1207C20.5749 12.3356 21.5525 11.4333 22.5775 11.4041Z" fill="white"/>
</svg>
