<svg width="40" height="40" viewBox="0 0 40 40" fill="none" xmlns="http://www.w3.org/2000/svg">
<rect width="40" height="40" rx="12" fill="white"/>
<path d="M21.9314 7C15.8029 7 10.8629 11.9771 10.8629 18.0686V21.3H7V23.9743H10.8629V29.1371H16.0257V33H18.7V29.1371H21.9314C28.0229 29.1371 33 24.1971 33 18.0686C33 11.94 28.0229 7 21.9314 7ZM13.5 26.5V23.9743H16.0257V26.5H13.5ZM21.9314 26.5H18.7V23.9743H21.7829C24.94 23.9743 27.54 21.3743 27.54 18.2171C27.54 15.06 24.94 12.46 21.7829 12.46C18.6257 12.46 16.0257 15.06 16.0257 18.2171V21.3H13.5V18.0686C13.5 13.4257 17.2886 9.63714 21.9314 9.63714C26.5743 9.63714 30.3629 13.4257 30.3629 18.0686C30.3629 22.7114 26.5743 26.5 21.9314 26.5ZM18.7 21.3V18.2171C18.7 16.5086 20.0743 15.1343 21.7829 15.1343C23.4914 15.1343 24.8657 16.5086 24.8657 18.2171C24.8657 19.9257 23.4914 21.3 21.7829 21.3H18.7Z" fill="url(#paint0_linear_25202_142106)"/>
<defs>
<linearGradient id="paint0_linear_25202_142106" x1="28.129" y1="27.5256" x2="12.4744" y2="11.871" gradientUnits="userSpaceOnUse">
<stop stop-color="#0056D6"/>
<stop offset="1" stop-color="#0088F1"/>
</linearGradient>
</defs>
</svg>
