<svg width="40" height="40" viewBox="0 0 40 40" fill="none" xmlns="http://www.w3.org/2000/svg">
<path d="M33.6561 1.37354C33.267 1.39429 32.8983 1.41504 32.5092 1.4358L31.9362 1.49805C31.7514 1.51881 31.5675 1.53956 31.3827 1.56031C31.0149 1.62257 30.6463 1.66407 30.2776 1.74708C29.9089 1.83009 29.5607 1.89235 29.192 1.99611C27.7797 2.34889 26.4079 2.84695 25.1179 3.42801C22.5177 4.59013 20.1632 6.1258 18.0543 7.91049C15.9455 9.69518 14.0823 11.7289 12.5466 13.9909C11.7891 15.1115 11.093 16.2944 10.5402 17.5188C9.96691 18.7431 9.49599 20.0091 9.20931 21.2956C10.0488 20.2788 10.9087 19.3242 11.8301 18.4111C12.731 17.5188 13.6727 16.6679 14.635 15.9001C15.5974 15.1115 16.6006 14.3852 17.6039 13.7004C18.6276 13.0155 19.6513 12.393 20.716 11.8119C22.8248 10.6705 25.0156 9.73669 27.2064 9.07262C27.3701 9.03111 27.5339 8.9896 27.6978 8.92735C26.7969 10.6913 25.9369 12.4552 25.077 14.2399L24.4014 15.6303L23.7462 17.0207C23.5209 17.4773 23.3162 17.9546 23.091 18.4319L22.4563 19.8223C22.1082 20.6316 21.6783 21.4202 21.2073 22.2088C20.7569 22.9973 20.2451 23.7652 19.6922 24.5122C19.4261 24.8858 19.1394 25.2593 18.8528 25.6329C18.5457 25.9857 18.2796 26.3593 17.9519 26.7121C17.6448 27.0648 17.3377 27.4176 17.0101 27.7704C16.6825 28.1024 16.3549 28.4552 16.0274 28.7872C15.8635 28.9533 15.6997 29.1192 15.5155 29.2853C15.3517 29.4513 15.1674 29.6173 15.0036 29.7833L14.4713 30.2607C14.287 30.4267 14.1027 30.5719 13.9389 30.7379C13.2223 31.3605 12.4647 31.983 11.6867 32.5434C10.9088 33.1245 10.1102 33.6847 9.27079 34.1828C8.4518 34.7016 7.59185 35.1789 6.71148 35.6355C5.83102 36.092 4.90969 36.4863 3.96784 36.8391C3.02609 37.1919 2.04329 37.5032 1.01953 37.7522C2.04329 38.0012 3.10791 38.105 4.17262 38.1258C5.23733 38.1465 6.32247 38.0635 7.38709 37.9182C8.4518 37.7522 9.51642 37.5239 10.5606 37.2126L11.3386 36.9844C11.6049 36.9013 11.8505 36.7976 12.1167 36.7146C12.3829 36.6316 12.6285 36.5278 12.8743 36.424C13.1199 36.3203 13.3862 36.2165 13.6318 36.1128C14.635 35.6977 15.6178 35.1997 16.5801 34.6601C17.5425 34.1205 18.4638 33.5395 19.3647 32.8962C20.2655 32.2736 21.146 31.568 21.9854 30.8417C22.4153 30.4681 22.8248 30.0946 23.2138 29.7003C23.6028 29.306 24.0124 28.9118 24.3809 28.476C25.1385 27.6458 25.8755 26.7535 26.5511 25.8197C27.2268 24.8858 27.8411 23.9105 28.4147 22.8729L29.1511 21.5032C29.3972 21.0467 29.6219 20.5901 29.868 20.1336L30.585 18.7639L31.2805 17.3942C33.1444 13.7211 34.9255 10.0065 36.625 6.25031L38.9996 1L33.6561 1.37354Z" fill="url(#paint0_linear_2697_8236)"/>
<path d="M31.3021 17.4335C32.879 14.3414 34.3732 11.2285 35.8266 8.09497C32.4082 7.88744 29.664 8.32324 27.4939 9.00807C27.5554 8.98731 27.6168 8.96657 27.6782 8.94581C26.7773 10.7098 25.9174 12.4737 25.0575 14.2584L24.3819 15.6488L23.7266 17.0392C23.5014 17.4957 23.2966 17.973 23.0714 18.4504L22.4368 19.8408C22.0887 20.6501 21.6587 21.4386 21.1878 22.2272C20.7373 23.0159 20.2255 23.7837 19.6727 24.5307C19.4065 24.9043 19.1199 25.2778 18.8332 25.6513C18.5261 26.0041 18.2599 26.3777 17.9324 26.7305C17.6253 27.0832 17.3181 27.436 16.9905 27.7888C16.6629 28.1209 16.3354 28.4737 16.0077 28.8057C15.8439 28.9717 15.6802 29.1377 15.4959 29.3037C15.3321 29.4698 15.1478 29.6357 14.9841 29.8018L14.4517 30.2791C14.2674 30.4452 14.0832 30.5904 13.9194 30.7564C13.2028 31.3789 12.4452 32.0015 11.6672 32.5619C10.8891 33.1429 10.0907 33.7032 9.25116 34.2013C8.43218 34.7201 7.57232 35.1974 6.69186 35.6539C5.81149 36.1105 4.89016 36.5048 3.94831 36.8576C3.00646 37.2104 2.02376 37.5217 1 37.7706C2.02376 38.0197 3.08838 38.1234 4.15309 38.1442C5.21771 38.1649 6.30284 38.0819 7.36755 37.9367C8.43217 37.7706 9.49689 37.5424 10.5411 37.2311L11.3191 37.0028C11.5853 36.9198 11.831 36.8161 12.0971 36.733C12.3633 36.65 12.609 36.5463 12.8546 36.4425C13.1004 36.3387 13.3665 36.235 13.6123 36.1313C14.6155 35.7161 15.5983 35.2181 16.5606 34.6786C17.5228 34.139 18.4442 33.5579 19.3451 32.9147C20.246 32.2921 21.1263 31.5865 21.9658 30.8602C22.3958 30.4866 22.8053 30.1131 23.1943 29.7188C23.5833 29.3245 23.9928 28.9302 24.3613 28.4944C25.1188 27.6643 25.856 26.772 26.5316 25.8382C27.2073 24.9043 27.8215 23.9289 28.3945 22.8913L29.1319 21.5216C29.378 21.0651 29.6027 20.6086 29.8488 20.152L30.5648 18.7824L31.3021 17.4335Z" fill="url(#paint1_linear_2697_8236)"/>
<defs>
<linearGradient id="paint0_linear_2697_8236" x1="41.6908" y1="5.1907" x2="-1.93436" y2="33.142" gradientUnits="userSpaceOnUse">
<stop stop-color="#89E8FF"/>
<stop offset="0.4022" stop-color="#00E0D3"/>
<stop offset="0.4958" stop-color="#00DAD8"/>
<stop offset="0.6196" stop-color="#00C9E7"/>
<stop offset="0.6832" stop-color="#00BEF1"/>
</linearGradient>
<linearGradient id="paint1_linear_2697_8236" x1="19.848" y1="6.67658" x2="16.9502" y2="39.3542" gradientUnits="userSpaceOnUse">
<stop stop-color="#0088AB"/>
<stop offset="0.0301966" stop-color="#0095B2"/>
<stop offset="0.1055" stop-color="#00B0C2"/>
<stop offset="0.1724" stop-color="#00C0CC"/>
<stop offset="0.2235" stop-color="#00C6CF"/>
<stop offset="0.3263" stop-color="#00C2D0"/>
<stop offset="0.4262" stop-color="#00B6D4"/>
<stop offset="0.5248" stop-color="#00A3DA"/>
<stop offset="0.5922" stop-color="#0091E0"/>
<stop offset="0.6819" stop-color="#0095E1"/>
<stop offset="0.7686" stop-color="#00A0E6"/>
<stop offset="0.854" stop-color="#00B4EC"/>
<stop offset="0.9382" stop-color="#00CFF6"/>
<stop offset="1" stop-color="#00E8FF"/>
</linearGradient>
</defs>
</svg>
