<svg width="171" height="40" viewBox="0 0 171 40" fill="none" xmlns="http://www.w3.org/2000/svg">
<mask id="mask0_4023_887" style="mask-type:alpha" maskUnits="userSpaceOnUse" x="0" y="0" width="171" height="40">
<rect width="171" height="40" fill="#D9D9D9"/>
</mask>
<g mask="url(#mask0_4023_887)">
<path d="M60.6009 23.8519H62.2742L61.3263 28.5308H58.7947L59.2831 26.083H50.9397L50.46 28.5308H47.9168L48.8618 23.8519H49.2173C49.9494 23.8307 50.5823 23.2903 51.116 22.2306C51.767 20.833 52.2576 19.3661 52.5783 17.8581L53.4453 14.26H62.5314L60.6009 23.8519ZM53.8962 21.8C53.6551 22.5557 53.2616 23.2541 52.7402 23.8519H57.893L59.3611 16.4882H55.3152L54.8932 18.3176C54.6242 19.4956 54.2914 20.6581 53.8962 21.8Z" fill="#B71923"/>
<path d="M74.1404 15.2311C74.5399 15.5566 74.8572 15.9716 75.0666 16.4426C75.276 16.9135 75.3715 17.4271 75.3455 17.9419C75.368 18.8582 75.1251 19.7614 74.6461 20.5428C74.1635 21.2928 73.4696 21.883 72.652 22.2393C71.6894 22.6499 70.6492 22.8471 69.6031 22.8173H66.9674L66.3259 26.0772H63.5746L65.9386 14.2716H70.7186C72.1925 14.2716 73.3331 14.5914 74.1404 15.2311ZM71.8284 19.9677C72.0798 19.7455 72.2774 19.4689 72.4061 19.159C72.5348 18.849 72.5912 18.5138 72.5711 18.1788C72.5862 17.9362 72.5413 17.6936 72.4406 17.4723C72.3398 17.2511 72.1861 17.058 71.9931 16.9101C71.5088 16.5989 70.9376 16.4511 70.3632 16.4882H68.2188L67.3894 20.592H69.7014C70.6348 20.592 71.3371 20.3839 71.8457 19.9677H71.8284Z" fill="#B71923"/>
<path d="M83.8768 23.5484H78.3858L76.8483 26.0829H73.9121L81.5619 14.2716H84.2727L87.1627 26.0829H84.4259L83.8768 23.5484ZM83.4202 21.4705L82.4231 16.9101L79.6487 21.4705H83.4202Z" fill="#B71923"/>
<path d="M91.1214 14.2716H93.8236L92.2543 21.9734L99.433 14.2716H102.034L99.6671 26.0945H96.965L98.5545 18.41L91.3584 26.0945H88.7574L91.1214 14.2716ZM94.5432 13.0115C94.2985 12.8309 94.1029 12.5918 93.9741 12.3162C93.8454 12.0406 93.7877 11.7372 93.8062 11.4336C93.8023 11.2691 93.814 11.1046 93.8409 10.9423H95.5749C95.5617 11.0206 95.5558 11.0999 95.5575 11.1793C95.5502 11.3241 95.5761 11.4686 95.6332 11.6018C95.6903 11.7351 95.7771 11.8535 95.887 11.948C96.1606 12.1544 96.4986 12.2568 96.8407 12.237C97.2306 12.2529 97.6145 12.1369 97.9302 11.9076C98.2284 11.6715 98.4248 11.3303 98.4793 10.9539H100.254C100.211 11.3372 100.091 11.7081 99.9028 12.0446C99.7142 12.3812 99.4601 12.6765 99.1556 12.9133C98.5776 13.341 97.7616 13.5549 96.7078 13.5549C95.7521 13.5394 95.0306 13.3545 94.5432 13V13.0115Z" fill="#B71923"/>
<path d="M113.646 20.8896C113.932 21.3218 114.076 21.8316 114.06 22.3491C114.088 22.9003 113.969 23.4491 113.715 23.9391C113.461 24.4292 113.081 24.8429 112.615 25.1379C111.651 25.7679 110.362 26.0829 108.748 26.0829H102.54L104.904 14.2716H110.615C111.886 14.2716 112.866 14.5047 113.554 14.971C113.884 15.1874 114.152 15.4857 114.332 15.8367C114.513 16.1877 114.599 16.5794 114.583 16.9737C114.598 17.6369 114.395 18.2866 114.005 18.8233C113.609 19.3498 113.075 19.7561 112.462 19.9966C112.937 20.1683 113.35 20.4796 113.646 20.8896ZM110.699 23.5831C110.905 23.4451 111.073 23.2561 111.186 23.0344C111.298 22.8126 111.351 22.5657 111.34 22.3173C111.34 21.5052 110.762 21.1006 109.566 21.1006H106.257L105.679 24.0224H108.904C109.533 24.0585 110.158 23.9055 110.699 23.5831ZM107.202 16.3206L106.644 19.1065H109.433C110.024 19.1412 110.611 18.9907 111.112 18.6759C111.308 18.5354 111.465 18.348 111.57 18.131C111.675 17.9139 111.724 17.6741 111.713 17.4332C111.713 16.6915 111.135 16.3206 109.979 16.3206H107.202Z" fill="#B71923"/>
<path d="M125.192 20.9186C125.497 21.3541 125.656 21.8753 125.645 22.4069C125.649 23.1736 125.356 23.9121 124.827 24.4675C124.225 25.0999 123.477 25.5752 122.648 25.8518C121.707 26.1836 120.716 26.3489 119.718 26.3402C118.905 26.3399 118.095 26.2321 117.311 26.0194C116.538 25.8151 115.805 25.4841 115.14 25.0397L116.392 23.0803C116.871 23.4155 117.405 23.6649 117.97 23.8172C118.55 23.9777 119.15 24.0593 119.753 24.06C120.529 24.0843 121.299 23.9103 121.989 23.5543C122.602 23.2161 122.911 22.7595 122.911 22.1873C122.911 21.4166 122.326 21.0313 121.154 21.0313H118.233L118.637 18.9708H121.374C121.885 18.9954 122.391 18.8568 122.819 18.5748C122.989 18.4638 123.128 18.3119 123.224 18.1332C123.32 17.9545 123.369 17.7546 123.368 17.5518C123.373 17.3507 123.322 17.1522 123.22 16.979C123.117 16.8057 122.969 16.6647 122.79 16.5721C122.307 16.3252 121.768 16.2086 121.227 16.2339C120.683 16.2413 120.141 16.3121 119.614 16.4449C119.021 16.5913 118.446 16.8036 117.9 17.0778L117.496 14.9508C118.795 14.3374 120.212 14.0148 121.648 14.0058C122.435 13.9972 123.216 14.1222 123.96 14.3757C124.591 14.5851 125.158 14.9522 125.608 15.4421C126.007 15.8869 126.223 16.4658 126.215 17.0634C126.216 17.6891 125.999 18.2955 125.599 18.7771C125.162 19.3088 124.585 19.7089 123.934 19.9331C124.438 20.137 124.873 20.4785 125.192 20.9186Z" fill="#1D3A44"/>
<path d="M135.746 23.5484H130.241L128.703 26.0829H125.782L133.434 14.2716H136.136L139.041 26.0945H136.293L135.746 23.5484ZM135.293 21.4705L134.296 16.9101L131.507 21.4705H135.293Z" fill="#1D3A44"/>
<path d="M142.995 14.2716H145.697L144.125 21.9734L151.303 14.2716H153.904L151.54 26.0945H148.838L150.425 18.41L143.229 26.0829H140.628L142.995 14.2716ZM146.408 13C146.164 12.8188 145.969 12.5796 145.841 12.3041C145.712 12.0285 145.655 11.7254 145.674 11.4221C145.67 11.2576 145.681 11.0931 145.708 10.9308H147.442C147.429 11.009 147.423 11.0884 147.425 11.1677C147.418 11.3125 147.444 11.457 147.501 11.5903C147.558 11.7235 147.645 11.8419 147.754 11.9365C148.028 12.1428 148.366 12.2453 148.708 12.2255C149.098 12.2414 149.482 12.1253 149.798 11.896C150.095 11.6592 150.291 11.3183 150.347 10.9423H152.121C152.078 11.3257 151.959 11.6966 151.77 12.0331C151.582 12.3696 151.328 12.665 151.023 12.9017C150.445 13.3294 149.621 13.5433 148.572 13.5433C147.624 13.5356 146.903 13.3545 146.408 13Z" fill="#1D3A44"/>
<path d="M170.155 14.2716L167.794 26.0829H165.245L166.646 19.0401L162.12 24.82H160.886L158.453 18.9418L157.034 26.0714H154.5L156.861 14.2716H159.092L162.045 21.6353L167.794 14.2716H170.155Z" fill="#1D3A44"/>
<path d="M36.3981 14.8195C34.3912 10.3733 30.8755 8.13074 26.0552 8.0457C21.0648 7.9558 19.4734 8.02626 14.4805 8.02626H0L6.82236 17.3195C12.6097 17.3195 17.8552 17.3195 23.5673 17.3195V12.9973L30.4917 19.9192L23.5673 26.8412V22.5286H16.9247C14.5072 25.8572 12.2574 28.9501 9.94927 32.1183C11.8419 34.701 13.8148 37.3906 15.7318 40C17.0292 38.224 18.069 36.7467 19.952 34.1689C20.9579 32.7865 21.3855 32.2009 21.6527 31.8462C23.5551 31.8462 25.0542 31.8462 25.4891 31.8341C27.1955 31.8117 28.8788 31.436 30.4327 30.7306C31.9867 30.0251 33.3775 29.0052 34.5175 27.7353C35.9826 26.1195 36.9635 24.1241 37.348 21.9771C37.78 19.5504 37.4481 17.0495 36.3981 14.8195Z" fill="#B71923"/>
</g>
</svg>
