<svg width="161" height="24" viewBox="0 0 161 24" fill="none" xmlns="http://www.w3.org/2000/svg">
<g clip-path="url(#clip0_996_49778)">
<path d="M0.5 0V11.9957L10.7197 6.00204L0.5 0ZM6.99823 6.00204L2.35663 8.72343V3.27231L6.99823 6.00204Z" fill="#E40029"/>
<path d="M0.5 11.9958V24L10.7197 17.998L0.5 11.9958ZM6.99823 17.998L2.35663 20.7277V15.2681L6.99823 17.9979V17.998Z" fill="#E40029"/>
<path d="M10.7197 6.00208V17.9979L20.9394 11.9958L10.7197 6.00209V6.00208ZM17.2262 11.9958L12.5763 14.7255V9.26602L17.2262 11.9958Z" fill="#E40029"/>
<path d="M149.923 16.3558H148.609V8.97069H148.303L144.444 16.3558H142.033V7.63547H143.347V15.0205H143.653L147.512 7.63547H149.923V16.3558Z" fill="#101820"/>
<path d="M112.734 16.3558H111.42V8.97069H111.114L107.255 16.3558H104.844V7.63547H106.158V15.0205H106.464L110.323 7.63547H112.734V16.3558Z" fill="#101820"/>
<path d="M62.3144 16.3558H61.0003V8.97069H60.6945L56.8356 16.3558H54.4248V7.63547H55.739V15.0205H56.0447L59.9036 7.63547H62.3144V16.3558Z" fill="#101820"/>
<path d="M118.722 16.6004C116.223 16.6004 114.189 14.5347 114.189 11.9945C114.189 9.45503 116.222 7.3893 118.722 7.3893C120.268 7.3893 121.69 8.17848 122.526 9.50075L121.421 10.2228C120.827 9.28463 119.818 8.72466 118.722 8.72466C116.948 8.72466 115.504 10.1912 115.504 11.9945C115.504 13.7977 116.948 15.265 118.722 15.265C119.818 15.265 120.827 14.7042 121.421 13.7658L122.526 14.4882C121.69 15.8105 120.268 16.6004 118.722 16.6004Z" fill="#101820"/>
<path d="M79.8075 16.6004C77.3074 16.6004 75.2744 14.5347 75.2744 11.9945C75.2744 9.45503 77.3074 7.3893 79.8075 7.3893C82.3063 7.3893 84.3394 9.45503 84.3394 11.9945C84.3394 14.5347 82.3063 16.6004 79.8075 16.6004ZM79.8075 8.72468C78.0327 8.72468 76.5886 10.1913 76.5886 11.9945C76.5886 13.7977 78.0327 15.265 79.8075 15.265C81.5819 15.265 83.0251 13.7978 83.0251 11.9945C83.0251 10.1913 81.5819 8.72468 79.8075 8.72468Z" fill="#101820"/>
<path d="M51.2707 7.63605V8.76304C50.4492 7.91153 49.3074 7.3858 48.0504 7.3858C45.553 7.3858 43.5156 9.45589 43.5156 11.9936C43.5156 14.5315 45.553 16.6016 48.0504 16.6016C49.3074 16.6016 50.4492 16.0756 51.2707 15.2243V16.3596H52.5769V7.63603H51.2707V7.63605ZM48.0504 15.2661C46.2759 15.2661 44.83 13.7969 44.83 11.9936C44.83 10.1905 46.2759 8.72133 48.0504 8.72133C49.825 8.72133 51.2707 10.1905 51.2707 11.9936C51.2707 13.7969 49.825 15.2661 48.0504 15.2661Z" fill="#101820"/>
<path d="M73.9797 16.3607H72.6655V9.97512L69.0698 14.1474L65.4731 9.97512V16.3607H64.1592V7.63705H65.2061L69.0698 12.1208L72.9328 7.63705H73.9797V16.3607Z" fill="#101820"/>
<path d="M42.9897 16.3558H36.1055V15.0205H41.2479L38.6791 11.9962L41.2479 8.97247H36.1055V7.63705H42.9897V8.96672L40.4152 11.9962L42.9897 15.0261V16.3558Z" fill="#101820"/>
<path d="M139.454 11.7933C139.832 11.3509 140.062 10.7749 140.062 10.1488C140.062 8.7631 138.953 7.63609 137.59 7.63609H132.619V16.3595H138.033C139.397 16.3595 140.506 15.2325 140.506 13.8468C140.506 13.0036 140.095 12.2524 139.454 11.7933V11.7933ZM133.934 8.97174H137.59C138.23 8.97174 138.748 9.49771 138.748 10.1488C138.748 10.8 138.23 11.3342 137.59 11.3342H133.934V8.97174ZM138.033 15.0239H133.934V12.6698H138.033C138.674 12.6698 139.192 13.1958 139.192 13.8468C139.192 14.4897 138.674 15.0239 138.033 15.0239V15.0239Z" fill="#101820"/>
<path d="M131.156 7.63605V8.9718H127.87V16.3596H126.556V8.9718H123.27V7.63605H131.156Z" fill="#101820"/>
<path d="M94.3358 16.3558H84.0293L89.1822 7.28989L94.3358 16.3558ZM86.3059 15.0205H92.0592L89.1822 9.96053L86.3059 15.0205Z" fill="#101820"/>
<path d="M106.81 5.61084H109.318L108.064 7.81713L106.81 5.61084Z" fill="#101820"/>
<path d="M34.0278 11.7933C34.3976 11.3509 34.6275 10.7749 34.6275 10.1488C34.6275 8.7631 33.5184 7.63609 32.1548 7.63609H27.1846V16.3595H32.6066C33.9704 16.3595 35.0795 15.2325 35.0795 13.8468C35.0795 13.0036 34.6687 12.2524 34.0278 11.7933V11.7933ZM28.4991 8.97174H32.1548C32.7955 8.97174 33.3131 9.49771 33.3131 10.1488C33.3131 10.8 32.7955 11.3342 32.1548 11.3342H28.4991V8.97174ZM32.6066 15.0239H28.4991V12.6698H32.6066C33.2393 12.6698 33.765 13.1958 33.765 13.8468C33.765 14.4897 33.2393 15.0239 32.6066 15.0239V15.0239Z" fill="#101820"/>
<path d="M103.371 11.2672C103.264 10.6246 103.034 10.0318 102.705 9.51428C101.9 8.23699 100.496 7.41898 98.9099 7.41898C97.5789 7.41898 96.3796 7.99491 95.5499 8.9299C94.8047 9.76279 94.3916 10.8813 94.3916 12.0102C94.3916 16.108 99.2388 18.0995 101.949 15.4078C102.245 15.1323 102.5 14.8234 102.713 14.4812C102.771 14.381 102.829 14.2891 102.878 14.1891L101.711 13.5628C101.374 14.2057 100.849 14.6982 100.216 14.982C98.4119 15.8735 96.0682 14.6026 95.7634 12.5945C95.747 12.4944 95.7305 12.3858 95.7222 12.2856H102.253C102.697 12.2856 102.853 12.2022 102.919 12.169C103.223 12.0186 103.395 11.7014 103.379 11.3758L103.371 11.2672L103.371 11.2672ZM95.8784 10.95C95.9028 10.8665 95.9359 10.7915 95.9689 10.7162C96.0868 10.399 96.2829 10.1261 96.4945 9.86484C97.086 9.18023 97.9487 8.75459 98.9099 8.75459C100.315 8.75459 101.522 9.66447 101.949 10.95H95.8784L95.8784 10.95Z" fill="#101820"/>
<path d="M160.49 11.2672C160.383 10.6246 160.153 10.0318 159.825 9.51428C159.02 8.23699 157.615 7.41898 156.029 7.41898C154.698 7.41898 153.499 7.99491 152.669 8.9299C151.924 9.76279 151.511 10.8813 151.511 12.0102C151.511 16.108 156.358 18.0995 159.069 15.4078C159.365 15.1323 159.619 14.8234 159.833 14.4812C159.89 14.381 159.948 14.2891 159.997 14.1891L158.831 13.5628C158.494 14.2057 157.968 14.6982 157.336 14.982C155.531 15.8735 153.188 14.6026 152.883 12.5945C152.866 12.4944 152.85 12.3858 152.842 12.2856H159.373C159.816 12.2856 159.973 12.2022 160.038 12.169C160.342 12.0186 160.515 11.7014 160.499 11.3758L160.49 11.2672V11.2672ZM152.998 10.95C153.022 10.8665 153.055 10.7915 153.088 10.7162C153.206 10.399 153.402 10.1261 153.614 9.86484C154.205 9.18023 155.068 8.75459 156.029 8.75459C157.434 8.75459 158.642 9.66447 159.069 10.95H152.998L152.998 10.95Z" fill="#101820"/>
</g>
<defs>
<clipPath id="clip0_996_49778">
<rect width="160" height="24" fill="white" transform="translate(0.5)"/>
</clipPath>
</defs>
</svg>
