<svg width="129" height="61" viewBox="0 0 129 61" fill="none" xmlns="http://www.w3.org/2000/svg">
<path d="M29.29 8.24023C30.0645 7.91955 30.9346 7.91948 31.709 8.24023L45.3838 13.9043C46.1583 14.2252 46.7739 14.8407 47.0947 15.6152L52.7588 29.29C53.0794 30.0644 53.0795 30.9346 52.7588 31.709L47.0947 45.3838C46.7739 46.1583 46.1583 46.7739 45.3838 47.0947L31.709 52.7588C30.9346 53.0795 30.0644 53.0794 29.29 52.7588L15.6152 47.0947C14.8407 46.7739 14.2252 46.1583 13.9043 45.3838L8.24023 31.709C7.91948 30.9346 7.91956 30.0645 8.24023 29.29L13.9043 15.6152C14.2251 14.8407 14.8407 14.2251 15.6152 13.9043L29.29 8.24023ZM29.1699 27.0781C28.7164 26.8163 28.1359 26.9713 27.874 27.4248L20.2871 40.5654C20.0253 41.019 20.1812 41.5995 20.6348 41.8613L23.5361 43.5361C23.9897 43.798 24.5701 43.643 24.832 43.1895L32.418 30.0488C32.6798 29.5952 32.5249 29.0148 32.0713 28.7529L29.1699 27.0781ZM27.6992 17.8027C27.2456 17.5409 26.6652 17.6958 26.4033 18.1494L24.2227 21.9277C23.9609 22.3813 24.1159 22.9608 24.5693 23.2227L37.71 30.8096C38.1635 31.0714 38.744 30.9155 39.0059 30.4619L41.1865 26.6846C41.4484 26.231 41.2933 25.6506 40.8398 25.3887L27.6992 17.8027ZM34.5215 18.0605C34.068 17.7988 33.4885 17.9538 33.2266 18.4072L33.0996 18.626C32.8377 19.0796 32.9937 19.66 33.4473 19.9219L36.1299 21.4707C36.5834 21.7326 37.1639 21.5775 37.4258 21.124L37.5518 20.9043C37.8133 20.4509 37.6583 19.8713 37.2051 19.6094L34.5215 18.0605Z" fill="#002D8B"/>
<path d="M78.7968 22.94V41.5H74.3168V22.94H68.2688V19.1H84.8448V22.94H78.7968ZM105.816 39.516L102.104 41.66H92.0883L88.3763 39.516V21.084L92.0883 18.94H102.104L105.816 21.084V39.516ZM92.8563 22.78V37.82H101.336V22.78H92.8563ZM111.251 41.5V19.1H123.059L126.771 21.244V31.228L123.059 33.372H115.731V41.5H111.251ZM115.731 22.94V29.532H122.291V22.94H115.731Z" fill="#002D8B"/>
</svg>
