<svg width="81" height="41" viewBox="0 0 81 41" fill="none" xmlns="http://www.w3.org/2000/svg">
<path d="M0 35.4188H5.15803V36.6648H1.55613V37.4758H5.07083V38.7292H1.55613V40.9041H0V35.4188Z" fill="url(#paint0_linear_140_1344)"/>
<path d="M7.37946 35.4188V40.9041H5.81662V35.4188H7.37946Z" fill="url(#paint1_linear_140_1344)"/>
<path d="M8.14196 35.4188H9.88589L13.0719 38.8692V35.4188H14.6146V40.9041H13.0719L9.68467 37.2694V40.9041H8.14196V35.4188Z" fill="url(#paint2_linear_140_1344)"/>
<path d="M19.3776 38.6628L18.4117 36.6058L17.4861 38.6628H19.3776ZM20.424 40.9041L19.9545 39.9014H16.9294L16.48 40.9041H14.8903L17.4123 35.4188H19.438L22.1076 40.9041H20.424Z" fill="url(#paint3_linear_140_1344)"/>
<path d="M22.3822 35.4188H24.1261L27.3122 38.8692V35.4188H28.8549V40.9041H27.3122L23.9249 37.2694V40.9041H22.3822V35.4188Z" fill="url(#paint4_linear_140_1344)"/>
<path d="M33.0343 40.9999H32.7593C29.8684 40.9999 29.419 39.2231 29.419 38.2499V38.0361C29.419 37.0408 29.808 35.323 32.7593 35.323H33.0343C35.9252 35.323 36.3746 36.8418 36.3746 37.4832V37.5643H34.7179C34.6776 37.4168 34.4764 36.6501 32.8935 36.6501C31.3977 36.6501 31.0556 37.3873 31.0556 38.073V38.1615C31.0556 38.8103 31.4514 39.6655 32.9069 39.6655C34.5234 39.6655 34.6843 38.8176 34.7246 38.6923H36.3813V38.7734C36.3813 39.4664 35.885 40.9999 33.0343 40.9999Z" fill="url(#paint5_linear_140_1344)"/>
<path d="M36.9237 35.4188H42.1824V36.6648H38.4665V37.4758H42.0952V38.7292H38.4665V39.6286H42.2495V40.9041H36.9237V35.4188Z" fill="url(#paint6_linear_140_1344)"/>
<path d="M48.2274 40.9999H48.0866C45.3835 40.9999 44.7597 39.3411 44.7597 38.2426V38.0361C44.7597 36.9671 45.2694 35.323 48.1402 35.323H48.4286C51.2189 35.323 51.7086 36.6574 51.7354 37.4021V37.4095H50.072C50.0317 37.2841 49.8506 36.628 48.2945 36.628C46.7719 36.628 46.3963 37.3505 46.3963 38.1099V38.1909C46.3963 38.9061 46.9061 39.6655 48.2811 39.6655C49.7634 39.6655 50.2128 39.0388 50.2128 38.884V38.8692H48.2543V37.8297H51.769V40.9041H50.8299C50.8098 40.705 50.7159 40.2774 50.6287 40.0489C50.4141 40.3216 49.7701 40.9999 48.2274 40.9999Z" fill="url(#paint7_linear_140_1344)"/>
<path d="M54.0434 36.6648V37.7412H56.4111C56.8605 37.7412 57.0416 37.5053 57.0416 37.203V37.1956C57.0416 36.9081 56.8673 36.6648 56.4111 36.6648H54.0434ZM54.0434 38.9577V40.9041H52.4806V35.4188H56.5051C58.1685 35.4188 58.6716 36.0529 58.6716 36.8418V36.9302C58.6716 37.7191 58.0746 38.014 57.7459 38.132C58.2557 38.2942 58.6917 38.6849 58.6917 39.3927V40.1963C58.6917 40.6387 58.7386 40.7787 58.7856 40.8672V40.9041H57.1959C57.149 40.8377 57.1221 40.7566 57.1221 40.5576V39.9235C57.1221 39.2526 56.8538 38.9577 56.0825 38.9577H54.0434Z" fill="url(#paint8_linear_140_1344)"/>
<path d="M62.6194 35.323H62.9078C66.0469 35.323 66.4158 37.0556 66.4158 38.0361V38.2573C66.4158 39.2231 66.0536 40.9999 62.9078 40.9999H62.6194C59.4602 40.9999 59.1047 39.2231 59.1047 38.2573V38.0361C59.1047 37.0556 59.4602 35.323 62.6194 35.323ZM64.7792 38.1909V38.0877C64.7792 37.4611 64.4506 36.6501 62.7603 36.6501C61.0432 36.6501 60.7413 37.4611 60.7413 38.0877V38.1762C60.7413 38.8029 61.07 39.6655 62.7603 39.6655C64.4371 39.6655 64.7792 38.825 64.7792 38.1909Z" fill="url(#paint9_linear_140_1344)"/>
<path d="M70.2696 40.9852H70.0282C67.3519 40.9852 66.9159 39.1125 66.9159 38.0804V35.4188H68.4855V37.9771C68.4855 38.6849 68.7739 39.5623 70.1355 39.5623C71.477 39.5623 71.7721 38.6849 71.7721 37.9771V35.4188H73.3349V38.0804C73.3349 39.1125 72.8252 40.9852 70.2696 40.9852Z" fill="url(#paint10_linear_140_1344)"/>
<path d="M77.7802 39.0757H75.6003V40.9041H74.0374V35.4188H77.7802C79.5778 35.4188 80.1077 36.2003 80.1077 37.203V37.2767C80.1077 38.2573 79.5644 39.0757 77.7802 39.0757ZM75.6003 36.6648V37.8444H77.7534C78.243 37.8444 78.4778 37.6454 78.4778 37.2694V37.2473C78.4778 36.8712 78.2564 36.6648 77.7534 36.6648H75.6003Z" fill="url(#paint11_linear_140_1344)"/>
<path d="M31.0634 19.1558C31.5821 19.8978 32.1225 20.6936 32.6879 21.5445C32.7034 21.5682 32.7175 21.5888 32.733 21.6124H44.1538L31.797 3.47971C31.1257 2.4898 30.3096 1.66407 29.3487 0.997813C28.3877 0.333131 27.19 0 25.7572 0C24.3243 0 23.027 0.355234 22.052 1.06728C21.0755 1.77933 20.2672 2.58295 19.627 3.47971L0 31.5385H11.209L25.575 10.9475L31.065 19.1558H31.0634Z" fill="url(#paint12_linear_140_1344)"/>
<path d="M79.3151 17.7247C78.3651 16.531 77.207 15.729 75.8393 15.32C76.3683 15.1321 76.8893 14.8574 77.4024 14.4958C77.9155 14.1343 78.3667 13.6796 78.7559 13.1285C79.1451 12.5791 79.4628 11.9428 79.7122 11.2196C79.9616 10.4965 80.0855 9.66443 80.0855 8.72183C80.0855 7.27713 79.798 6.01086 79.2229 4.92616C78.6463 3.84146 77.8234 2.93043 76.7495 2.19151C75.6757 1.45416 74.3857 0.903129 72.8766 0.541562C71.3675 0.179994 69.6804 0 67.8138 0H47.1418L40.6096 8.20237H68.2348C68.9179 8.20237 69.5406 8.34447 70.1014 8.62709C70.6621 8.90971 70.9417 9.44496 70.9417 10.2297C70.9417 11.0144 70.6685 11.6049 70.1252 11.9033C69.5803 12.2017 68.9512 12.3517 68.2348 12.3517H40.6096L45.4817 19.0936H68.095C69.1514 19.0936 69.9155 19.2752 70.381 19.6352C70.848 19.9967 71.0815 20.5241 71.0815 21.2141C71.0815 21.904 70.848 22.4866 70.381 22.864C69.9139 23.2414 69.1514 23.4292 68.095 23.4292H20.9717L15.1384 31.5385H68.0442C70.5017 31.5385 72.5478 31.3032 74.1808 30.8311C75.8139 30.359 77.1133 29.7164 78.0776 28.8985C79.0418 28.0823 79.7265 27.116 80.1316 25.9997C80.5351 24.885 80.7384 23.6661 80.7384 22.3461C80.7384 20.4609 80.2635 18.9215 79.3151 17.7263V17.7247Z" fill="url(#paint13_radial_140_1344)"/>
<defs>
<linearGradient id="paint0_linear_140_1344" x1="16.8541" y1="34.7063" x2="18.0587" y2="46.9703" gradientUnits="userSpaceOnUse">
<stop stop-color="#7B7B7B"/>
<stop offset="1" stop-color="#454A4D"/>
</linearGradient>
<linearGradient id="paint1_linear_140_1344" x1="16.8541" y1="34.7063" x2="18.0587" y2="46.9703" gradientUnits="userSpaceOnUse">
<stop stop-color="#7B7B7B"/>
<stop offset="1" stop-color="#454A4D"/>
</linearGradient>
<linearGradient id="paint2_linear_140_1344" x1="16.8541" y1="34.7063" x2="18.0587" y2="46.9703" gradientUnits="userSpaceOnUse">
<stop stop-color="#7B7B7B"/>
<stop offset="1" stop-color="#454A4D"/>
</linearGradient>
<linearGradient id="paint3_linear_140_1344" x1="16.8541" y1="34.7063" x2="18.0587" y2="46.9703" gradientUnits="userSpaceOnUse">
<stop stop-color="#7B7B7B"/>
<stop offset="1" stop-color="#454A4D"/>
</linearGradient>
<linearGradient id="paint4_linear_140_1344" x1="16.8541" y1="34.7063" x2="18.0587" y2="46.9703" gradientUnits="userSpaceOnUse">
<stop stop-color="#7B7B7B"/>
<stop offset="1" stop-color="#454A4D"/>
</linearGradient>
<linearGradient id="paint5_linear_140_1344" x1="16.8541" y1="34.7063" x2="18.0587" y2="46.9703" gradientUnits="userSpaceOnUse">
<stop stop-color="#7B7B7B"/>
<stop offset="1" stop-color="#454A4D"/>
</linearGradient>
<linearGradient id="paint6_linear_140_1344" x1="16.8541" y1="34.7063" x2="18.0587" y2="46.9703" gradientUnits="userSpaceOnUse">
<stop stop-color="#7B7B7B"/>
<stop offset="1" stop-color="#454A4D"/>
</linearGradient>
<linearGradient id="paint7_linear_140_1344" x1="16.8541" y1="34.7063" x2="18.0587" y2="46.9703" gradientUnits="userSpaceOnUse">
<stop stop-color="#7B7B7B"/>
<stop offset="1" stop-color="#454A4D"/>
</linearGradient>
<linearGradient id="paint8_linear_140_1344" x1="16.8541" y1="34.7063" x2="18.0587" y2="46.9703" gradientUnits="userSpaceOnUse">
<stop stop-color="#7B7B7B"/>
<stop offset="1" stop-color="#454A4D"/>
</linearGradient>
<linearGradient id="paint9_linear_140_1344" x1="16.8541" y1="34.7063" x2="18.0587" y2="46.9703" gradientUnits="userSpaceOnUse">
<stop stop-color="#7B7B7B"/>
<stop offset="1" stop-color="#454A4D"/>
</linearGradient>
<linearGradient id="paint10_linear_140_1344" x1="16.8541" y1="34.7063" x2="18.0587" y2="46.9703" gradientUnits="userSpaceOnUse">
<stop stop-color="#7B7B7B"/>
<stop offset="1" stop-color="#454A4D"/>
</linearGradient>
<linearGradient id="paint11_linear_140_1344" x1="16.8541" y1="34.7063" x2="18.0587" y2="46.9703" gradientUnits="userSpaceOnUse">
<stop stop-color="#7B7B7B"/>
<stop offset="1" stop-color="#454A4D"/>
</linearGradient>
<linearGradient id="paint12_linear_140_1344" x1="9.43662" y1="4.41122" x2="27.0814" y2="34.5194" gradientUnits="userSpaceOnUse">
<stop stop-color="#7B7B7B"/>
<stop offset="1" stop-color="#454A4D"/>
</linearGradient>
<radialGradient id="paint13_radial_140_1344" cx="0" cy="0" r="1" gradientUnits="userSpaceOnUse" gradientTransform="translate(47.9392 15.7684) scale(25.7634 25.6065)">
<stop stop-color="#60AB41"/>
<stop offset="1" stop-color="#205541"/>
</radialGradient>
</defs>
</svg>
