<svg width="40" height="40" viewBox="0 0 40 40" fill="none" xmlns="http://www.w3.org/2000/svg">
<g clip-path="url(#clip0_89_102)">
<rect width="40" height="40" fill="white"/>
<g clip-path="url(#clip1_89_102)">
<path d="M28 0H12C5.37258 0 0 5.37258 0 12V28C0 34.6274 5.37258 40 12 40H28C34.6274 40 40 34.6274 40 28V12C40 5.37258 34.6274 0 28 0Z" fill="white"/>
<path opacity="0.4" fill-rule="evenodd" clip-rule="evenodd" d="M20.4979 6C19.1081 6 18.1268 6.67892 17.3558 7.61341C16.707 8.39979 16.0939 9.50835 15.4159 10.7341C15.3671 10.8224 15.318 10.9112 15.2685 11.0005C13.7304 13.7769 9.69732 20.8511 7.86922 24.0477C6.92795 25.6956 7.20678 27.589 8.31852 28.8038C9.49032 30.0841 11.4075 30.4335 13.2204 29.3751C14.6397 28.5464 16.0481 27.7334 17.3154 27.0019C18.5503 26.289 19.6515 25.6534 20.498 25.1561C21.3349 25.6475 22.4211 26.2741 23.6394 26.9769L23.6407 26.9776C24.9199 27.7156 26.3446 28.5375 27.7792 29.3751C29.5921 30.4335 31.5093 30.0841 32.6811 28.8038C33.7928 27.589 34.072 25.6963 33.1308 24.0484C31.3027 20.8518 27.2692 13.7769 25.7311 11.0005C25.6842 10.9158 25.6376 10.8316 25.5913 10.7479C24.9098 9.51594 24.2936 8.40211 23.6411 7.61248C22.8691 6.67831 21.887 6 20.4979 6Z" fill="#FF3A1F"/>
<path fill-rule="evenodd" clip-rule="evenodd" d="M20.4979 6C19.1081 6 18.1268 6.67892 17.3558 7.61341C16.707 8.39979 16.0939 9.50835 15.4159 10.7341C15.3671 10.8224 15.318 10.9112 15.2685 11.0005C13.7304 13.7769 9.69732 20.8511 7.86922 24.0477C6.92795 25.6956 7.20678 27.589 8.31852 28.8038C9.48934 30.0831 11.4043 30.4329 13.2158 29.3777L29.2145 20.1722C29.5363 19.9871 29.9173 19.762 30.4895 19.4192C30.3062 19.099 30.1729 18.8607 30.0523 18.6451C29.9552 18.4714 29.8663 18.3124 29.7663 18.1374L29.4421 17.5707C27.8542 14.7942 27.1752 13.6071 25.7311 11.0005C25.6842 10.9158 25.6376 10.8316 25.5913 10.7479C24.9098 9.51594 24.2936 8.40211 23.6411 7.61248C22.8691 6.67831 21.887 6 20.4979 6Z" fill="#FF3A1F"/>
</g>
</g>
<defs>
<clipPath id="clip0_89_102">
<rect width="40" height="40" fill="white"/>
</clipPath>
<clipPath id="clip1_89_102">
<rect width="40" height="40" fill="white"/>
</clipPath>
</defs>
</svg>
